<svg width="73" height="30" viewBox="0 0 73 30" fill="none" xmlns="http://www.w3.org/2000/svg">
<path d="M3.64546 17.851C2.94824 17.851 2.33449 17.6995 1.80421 17.3964C1.27393 17.0837 0.861494 16.6536 0.566897 16.1062C0.272297 15.5492 0.125 14.909 0.125 14.1856C0.125 13.3157 0.341039 12.5533 0.77312 11.8985C1.21501 11.2436 1.83858 10.7402 2.64382 10.3883C3.45888 10.0365 4.41142 9.8606 5.50143 9.8606C6.00225 9.8606 6.40978 9.89478 6.72402 9.96323V9.65535C6.72402 8.91248 6.58654 8.36024 6.31158 7.9986C6.03662 7.62718 5.61927 7.44147 5.05953 7.44147C4.15609 7.44147 3.57671 7.91552 3.3214 8.8636C3.24284 9.13729 3.08081 9.25458 2.83531 9.21548L0.832039 8.8636C0.684733 8.83429 0.581628 8.77075 0.522707 8.67302C0.47361 8.57527 0.468698 8.44332 0.507986 8.27716C0.763304 7.2802 1.30341 6.50803 2.12828 5.96069C2.96298 5.40356 4.00881 5.125 5.26576 5.125C6.75839 5.125 7.8926 5.52574 8.66838 6.32722C9.45399 7.1287 9.84676 8.29671 9.84676 9.83129V17.2059C9.84676 17.3134 9.80753 17.4062 9.72898 17.4844C9.66021 17.5528 9.57178 17.587 9.46378 17.587H7.5489C7.31322 17.587 7.16592 17.4599 7.107 17.2059L6.8124 15.8277H6.69456C6.42943 16.4728 6.03172 16.9712 5.50144 17.3231C4.98098 17.675 4.36232 17.851 3.64546 17.851ZM3.33613 13.8337C3.33613 14.3518 3.4687 14.7672 3.73383 15.08C4.0088 15.383 4.37704 15.5345 4.83858 15.5345C5.44742 15.5345 5.91387 15.2656 6.23793 14.7281C6.56198 14.1807 6.72402 13.3988 6.72402 12.3823V11.6053C6.44905 11.5564 6.18883 11.5319 5.94333 11.5319C5.13809 11.5319 4.49979 11.7421 4.02843 12.1624C3.5669 12.5729 3.33613 13.13 3.33613 13.8337ZM11.6732 5.77009C11.6732 5.66257 11.7077 5.57461 11.7764 5.50619C11.8549 5.42799 11.9482 5.3889 12.0562 5.3889H14.0006C14.1086 5.3889 14.197 5.4231 14.2657 5.49152C14.3444 5.55995 14.3934 5.6528 14.413 5.77009L14.7077 7.20689H14.8255C15.0907 6.53247 15.4687 6.01933 15.9597 5.66746C16.4605 5.30581 17.0497 5.125 17.7272 5.125C18.454 5.125 19.0775 5.31559 19.598 5.69679C20.1283 6.07798 20.5358 6.62045 20.8206 7.32418H20.9384C21.3705 6.58134 21.8566 6.02911 22.3967 5.66746C22.9368 5.30581 23.5407 5.125 24.2084 5.125C24.9352 5.125 25.5636 5.32048 26.0939 5.71144C26.634 6.10242 27.0464 6.65954 27.3312 7.38282C27.616 8.10612 27.7584 8.96135 27.7584 9.94853V17.2059C27.7584 17.3134 27.7191 17.4062 27.6405 17.4844C27.5718 17.5528 27.4834 17.587 27.3754 17.587H25.0186C24.9106 17.587 24.8173 17.5528 24.7388 17.4844C24.67 17.4062 24.6356 17.3134 24.6356 17.2059V10.1831C24.6356 9.46957 24.4982 8.92225 24.2232 8.54106C23.9482 8.15987 23.5506 7.96927 23.03 7.96927C22.4605 7.96927 22.0235 8.19408 21.7191 8.64369C21.4245 9.0933 21.2772 9.74327 21.2772 10.5936V17.2059C21.2772 17.3134 21.2379 17.4062 21.1593 17.4844C21.0907 17.5528 21.0022 17.587 20.8942 17.587H18.5374C18.4294 17.587 18.3361 17.5528 18.2576 17.4844C18.1888 17.4062 18.1544 17.3134 18.1544 17.2059V10.1831C18.1544 9.46957 18.017 8.92225 17.742 8.54106C17.467 8.15987 17.0694 7.96927 16.5489 7.96927C15.9793 7.96927 15.5423 8.19408 15.2379 8.64369C14.9433 9.0933 14.796 9.74327 14.796 10.5936V17.2059C14.796 17.3134 14.7568 17.4062 14.6782 17.4844C14.6095 17.5528 14.521 17.587 14.413 17.587H12.0562C11.9482 17.587 11.8549 17.5528 11.7764 17.4844C11.7077 17.4062 11.6732 17.3134 11.6732 17.2059V5.77009ZM29.2903 14.1856C29.2903 13.3157 29.5064 12.5533 29.9384 11.8985C30.3803 11.2436 31.0039 10.7402 31.8092 10.3883C32.6241 10.0365 33.5768 9.8606 34.6667 9.8606C35.1676 9.8606 35.5751 9.89478 35.8893 9.96323V9.65535C35.8893 8.91248 35.7518 8.36024 35.4769 7.9986C35.2019 7.62718 34.7846 7.44147 34.2248 7.44147C33.3214 7.44147 32.742 7.91552 32.4867 8.8636C32.4081 9.13729 32.2461 9.25458 32.0006 9.21548L29.9973 8.8636C29.85 8.83429 29.7469 8.77075 29.688 8.67302C29.6389 8.57527 29.634 8.44332 29.6732 8.27716C29.9286 7.2802 30.4687 6.50803 31.2936 5.96069C32.1283 5.40356 33.1741 5.125 34.4311 5.125C35.9237 5.125 37.0579 5.52574 37.8337 6.32722C38.6192 7.1287 39.0121 8.29671 39.0121 9.83129V17.2059C39.0121 17.3134 38.9728 17.4062 38.8942 17.4844C38.8255 17.5528 38.7371 17.587 38.6291 17.587H36.7142C36.4785 17.587 36.3312 17.4599 36.2723 17.2059L35.9777 15.8277H35.8599C35.5947 16.4728 35.197 16.9712 34.6667 17.3231C34.1463 17.675 33.5276 17.851 32.8108 17.851C32.0939 17.851 31.4998 17.6995 30.9695 17.3964C30.4392 17.0837 30.0268 16.6536 29.7322 16.1062C29.4376 15.5492 29.2903 14.909 29.2903 14.1856ZM32.5015 13.8337C32.5015 14.3518 32.634 14.7672 32.8991 15.08C33.1741 15.383 33.5423 15.5345 34.0039 15.5345C34.6127 15.5345 35.0792 15.2656 35.4032 14.7281C35.7272 14.1807 35.8893 13.3988 35.8893 12.3823V11.6053C35.6144 11.5564 35.3541 11.5319 35.1086 11.5319C34.3034 11.5319 33.6651 11.7421 33.1938 12.1624C32.7322 12.5729 32.5015 13.13 32.5015 13.8337ZM40.6029 15.4318C40.6029 15.2168 40.6618 15.0311 40.7797 14.8747L45.8173 7.85198H41.1037C40.9957 7.85198 40.9024 7.81778 40.8238 7.74936C40.7552 7.67116 40.7207 7.57831 40.7207 7.4708V5.77009C40.7207 5.66257 40.7552 5.57461 40.8238 5.50619C40.9024 5.42799 40.9957 5.3889 41.1037 5.3889H48.8516C48.9597 5.3889 49.0481 5.42799 49.1168 5.50619C49.1954 5.57461 49.2346 5.66257 49.2346 5.77009V7.54409C49.2346 7.75913 49.1757 7.94483 49.0579 8.10123L44.4916 14.3469C44.7666 14.2981 45.0464 14.2736 45.3312 14.2736C46.0383 14.2736 46.6864 14.3371 47.2756 14.4642C47.8746 14.5815 48.4932 14.7769 49.1315 15.0506C49.3574 15.1484 49.4703 15.3145 49.4703 15.5492V17.2352C49.4703 17.3916 49.4213 17.4991 49.3231 17.5577C49.2249 17.6066 49.1021 17.6017 48.9548 17.5431C48.2183 17.2694 47.5652 17.0788 46.9957 16.9712C46.436 16.854 45.8222 16.7953 45.1544 16.7953C44.4867 16.7953 43.8484 16.854 43.2101 16.9712C42.5816 17.0886 41.8844 17.2791 41.1185 17.5431C40.9712 17.592 40.8484 17.592 40.7502 17.5431C40.6521 17.4844 40.6029 17.3817 40.6029 17.2352V15.4318ZM50.1185 11.4879C50.1185 10.2955 50.3492 9.21548 50.8108 8.24784C51.2723 7.27042 51.9056 6.50803 52.7109 5.96069C53.526 5.40356 54.4294 5.125 55.4212 5.125C56.413 5.125 57.3263 5.40356 58.1315 5.96069C58.9466 6.50803 59.5849 7.27042 60.0464 8.24784C60.5178 9.21548 60.7535 10.2955 60.7535 11.4879C60.7535 12.6804 60.5178 13.7654 60.0464 14.7428C59.5849 15.7104 58.9466 16.4728 58.1315 17.0299C57.3263 17.5773 56.4229 17.851 55.4212 17.851C54.4196 17.851 53.526 17.5773 52.7109 17.0299C51.9056 16.4728 51.2723 15.7104 50.8108 14.7428C50.3492 13.7654 50.1185 12.6804 50.1185 11.4879ZM53.359 11.4879C53.359 12.7293 53.5358 13.6872 53.8893 14.3616C54.2429 15.0262 54.7534 15.3585 55.4212 15.3585C56.089 15.3585 56.6046 15.0262 56.9679 14.3616C57.3312 13.6872 57.5129 12.7293 57.5129 11.4879C57.5129 10.2467 57.3312 9.29367 56.9679 8.62903C56.6046 7.95461 56.089 7.6174 55.4212 7.6174C54.7534 7.6174 54.2429 7.95461 53.8893 8.62903C53.5358 9.29367 53.359 10.2467 53.359 11.4879ZM62.3443 5.77009C62.3443 5.66257 62.3787 5.57461 62.4475 5.50619C62.526 5.42799 62.6193 5.3889 62.7272 5.3889H64.6716C64.7796 5.3889 64.868 5.4231 64.9368 5.49152C65.0154 5.55995 65.0645 5.6528 65.084 5.77009L65.3787 7.20689H65.4965C65.7617 6.54225 66.1496 6.02911 66.6602 5.66746C67.1806 5.30581 67.7895 5.125 68.4867 5.125C69.233 5.125 69.8762 5.32048 70.4163 5.71144C70.9663 6.10242 71.3885 6.65954 71.6831 7.38282C71.9777 8.10612 72.125 8.96135 72.125 9.94853V17.2059C72.125 17.3134 72.0857 17.4062 72.0071 17.4844C71.9385 17.5528 71.85 17.587 71.742 17.587H69.3852C69.2772 17.587 69.1839 17.5528 69.1053 17.4844C69.0367 17.4062 69.0022 17.3134 69.0022 17.2059V10.1831C69.0022 9.46957 68.8549 8.92225 68.5604 8.54106C68.2657 8.15987 67.8484 7.96927 67.3083 7.96927C66.7093 7.96927 66.2527 8.19408 65.9384 8.64369C65.6241 9.0933 65.467 9.74327 65.467 10.5936V17.2059C65.467 17.3134 65.4278 17.4062 65.3493 17.4844C65.2805 17.5528 65.1921 17.587 65.084 17.587H62.7272C62.6193 17.587 62.526 17.5528 62.4475 17.4844C62.3787 17.4062 62.3443 17.3134 62.3443 17.2059V5.77009Z" fill="#171D27"/>
<path d="M8.31519 19.2731C8.12861 19.4197 8.08933 19.664 8.19735 20.0062C8.29555 20.3092 8.52632 20.6854 8.88966 21.135C10.3528 22.9335 12.0958 24.4289 14.1188 25.6214C16.1417 26.8139 18.307 27.6935 20.6147 28.2604C22.9322 28.8371 25.2988 29.1254 27.7145 29.1254C30.8078 29.1254 33.7538 28.6758 36.5525 27.7766C39.3512 26.8871 41.6883 25.636 43.564 24.0233C44.2219 23.4467 44.5509 22.9873 44.5509 22.6451C44.5509 22.5181 44.4969 22.391 44.3889 22.2639C44.2415 22.1174 44.0648 22.0685 43.8586 22.1174C43.6523 22.1662 43.3627 22.2884 42.9895 22.4839C41.1924 23.4222 39.0026 24.1699 36.4199 24.7271C33.8471 25.2939 31.1614 25.5774 28.3627 25.5774C24.8962 25.5774 21.5476 25.1083 18.3168 24.1699C15.0861 23.2316 12.2235 21.7655 9.72927 19.7716C9.36594 19.4881 9.0713 19.3072 8.84547 19.2291C8.62943 19.1509 8.45267 19.1656 8.31519 19.2731Z" fill="#FF6201"/>
<path d="M41.0445 20.0062C40.8383 20.2017 40.7843 20.407 40.8825 20.622C40.9513 20.7784 41.0838 20.8663 41.2802 20.8859C41.4766 20.9152 41.7565 20.8956 42.1198 20.8273C42.709 20.7002 43.3227 20.6122 43.961 20.5633C44.5994 20.5243 45.1542 20.534 45.6255 20.5926C46.097 20.6611 46.3915 20.7784 46.5094 20.9445C46.6862 21.2085 46.6223 21.7655 46.3178 22.6159C46.0233 23.4663 45.6206 24.2922 45.11 25.0937C44.9136 25.4162 44.7958 25.6703 44.7565 25.8561C44.7172 26.0418 44.7663 26.1981 44.9038 26.3252C44.9921 26.4131 45.0903 26.4571 45.1983 26.4571C45.4832 26.4571 45.8956 26.2079 46.4357 25.7094C47.4079 24.8689 48.0903 23.8719 48.4832 22.7186C48.6992 22.1223 48.8318 21.4968 48.8809 20.8419C48.93 20.1871 48.8563 19.7179 48.6599 19.4344C48.4733 19.1607 48.0609 18.9359 47.4226 18.7601C46.7942 18.5841 46.1607 18.4961 45.5224 18.4961C44.2753 18.4961 43.092 18.7894 41.9726 19.3758C41.5601 19.6006 41.2508 19.8108 41.0445 20.0062Z" fill="#FF6201"/>
</svg>
