<svg width="1920" height="352" viewBox="0 0 1920 352" fill="none" xmlns="http://www.w3.org/2000/svg">
<path d="M0 291.098H118.75H129.5C129.5 291.098 112 261.545 137 244.542C171.168 221.304 169.452 265.743 160.5 259.545C154 255.044 185.381 237.546 196 246.042C206 254.044 197.963 268.602 195 263.045C191 255.544 206.5 250.543 211 264.545C220.865 295.242 173 308.053 139 281.048C133.674 276.818 293.128 291.148 299 286.468C317.828 271.462 321.719 232.448 318.5 231.04C310.5 227.539 244.889 243.864 265 235.54C279.5 229.539 289.568 202.976 277.5 207.536C255 216.037 201 207.536 216 207.536C225.434 207.536 300.833 163.182 275.5 169.029C249.5 175.03 228.979 172.368 249 167.029C279 159.027 305 130.022 287.5 137.524C274.757 142.986 218.572 140.972 232 137.524C269 128.022 298.157 106.267 296 106.018C283 104.518 262 106.018 271.5 102.517C285.307 97.4299 309.497 87.8767 296 86.0146C281.5 84.0143 246.728 77.9329 257 79.5135C263.5 80.5137 314.326 68.1746 302 62.0105C300 61.0103 277.056 43.5501 283 44.0074C315.5 46.5078 328 10.0016 328 10.0016C328 10.0016 340.5 44.0074 371.5 44.0074C378.796 44.0074 362.696 50.8092 355.5 52.0088C349.5 53.009 369.5 61.5104 397 75.5128C408.074 81.1515 345.962 74.4267 356.5 81.0138C372.5 91.0155 397 107.823 385 107.823C373.403 107.823 358 110.019 371.5 114.52C385 119.02 397 125.021 412.5 132.023C424.487 137.437 392 139.024 376 133.023C357.487 126.079 424.395 175.382 437.5 180.531C451.5 186.032 409 188.032 388 183.531C367.189 179.071 385.5 189.532 409 196.034C429.098 201.594 382 211.536 368.5 204.035C359.206 198.871 377 222.038 388 233.04C399.486 244.528 348.486 214.551 337 226.039C332 231.04 332 289.05 354 300.052C376 311.053 402.906 265.574 388.5 262.045C364 256.044 375 296.571 411.5 294.551C448.067 292.527 521.5 291.55 521.5 291.55L1385.95 291.098C1385.95 291.098 1383.52 278.61 1383.26 277.509C1381.86 271.532 1381.41 265.38 1383.15 259.408C1387.21 245.506 1403.01 236.525 1417.15 239.065C1426.7 240.779 1433.31 250.566 1427.53 259.488C1425.82 262.118 1419.65 266.67 1416.92 262.725C1414.18 258.77 1417.55 253.54 1420.47 250.806C1427.26 244.45 1438.76 241.312 1447.75 244.066C1454.26 246.054 1459.69 252.878 1458.85 259.921C1458.64 261.719 1456.2 270.874 1452.72 268.728C1450.3 267.228 1454.27 263.742 1455.56 263.149C1462.37 260.031 1466.92 267.602 1467.66 273.345C1469.23 285.499 1458.21 293.05 1447.6 295.212C1426.78 299.456 1409.55 290.037 1391.63 281.594C1419.03 278.242 1450.22 281.574 1474.8 293.389C1480.43 296.094 1482.5 302.285 1486.65 306.549C1490.73 310.728 1497.2 312.885 1502.66 314.569C1535.83 324.79 1513.45 301.18 1547.72 303.631C1555.73 304.204 1563.72 305.05 1571.42 307.521C1573.12 308.069 1579.58 309.937 1578.01 312.911C1574.36 319.834 1558.82 320.567 1552.23 321.309C1527.66 324.068 1503.2 326.564 1478.49 327.919C1375.01 333.592 1366.87 362.358 1420.47 346.059C1443.5 339.058 1327.81 337.502 1297.91 335.296C1291.02 334.788 1283.91 334.942 1277.28 332.711C1274.83 331.889 1270.76 330.105 1270.65 326.982C1270.49 322.634 1279.77 320.552 1282.7 319.71C1295.9 315.899 1309.93 314.121 1323.53 312.408C1382.65 304.951 1282.66 305.444 1342.09 302.112C1375.25 300.249 1408.66 317.597 1440.82 308.796C1449.58 306.4 1458.45 303.884 1466.39 299.341C1472.53 295.83 1478.01 289.773 1485.27 288.692C1491.28 287.795 1497.83 291.212 1503.66 292.557C1509.06 293.802 1514.83 293.593 1520.34 293.553C1527.35 293.499 1534.36 293.27 1541.37 293.12C1549.87 292.936 1559.87 293.802 1566.64 287.596C1573.08 281.688 1575.45 266.71 1565.3 263.144C1561.1 261.669 1556.48 262.646 1553.17 265.594C1548.18 270.028 1546.37 278.635 1551.91 283.402C1553.12 284.448 1554.56 285.21 1556.07 285.723C1558.56 286.575 1561.24 286.699 1563.84 286.43C1566.54 286.151 1569.22 285.379 1571.4 283.711C1573.87 281.838 1575.63 278.959 1576.41 275.985C1576.91 274.077 1577.12 272.045 1576.96 270.072C1576.85 268.658 1576.52 267.258 1575.95 265.958C1570.97 254.711 1554.13 258.242 1547.74 265.968C1546.47 267.502 1545.45 269.261 1544.78 271.143C1541.93 279.178 1547.13 286.679 1554.66 289.404C1562.33 292.174 1571.67 290.42 1576.57 283.526C1578.34 281.036 1579.37 278.082 1579.72 275.059C1580.12 271.537 1579.59 267.975 1578.35 264.663C1577.3 261.839 1576.06 259.189 1573.57 257.341C1570.58 255.124 1566.68 253.849 1563.09 253.047C1555.6 251.378 1545.2 253.72 1543.3 262.407C1542.85 264.499 1543.19 266.655 1543.71 268.703C1543.94 269.604 1544.44 270.909 1543.66 271.671C1542.2 273.091 1539.21 272.688 1537.4 272.702C1532.08 272.742 1526.83 272.757 1521.53 272.324C1518.05 272.04 1514.51 271.632 1511.08 270.989C1509.62 270.715 1507.88 270.391 1506.89 269.161C1506.08 268.15 1506.23 266.641 1506.26 265.425C1506.32 263.074 1506.37 260.718 1506.43 258.367C1506.58 252.624 1505.56 241.63 1513.05 239.962C1515.55 239.404 1518.27 239.678 1520.8 239.792C1523.71 239.922 1526.61 240.101 1529.51 240.35C1533.18 240.664 1536.88 240.968 1540.53 241.541C1542.58 241.864 1544.76 242.243 1545.18 244.589C1545.54 246.567 1544.99 248.728 1544.64 250.671C1544.14 253.51 1543.66 257.211 1541.69 259.463C1538.54 263.049 1531.12 261.889 1526.95 261.913C1523.95 261.933 1518.7 262.825 1515.95 261.201C1514.01 260.055 1516.13 256.305 1516.67 254.96C1518.28 250.95 1519.84 244.186 1515.32 241.351C1512.6 239.648 1509.78 241.202 1508.46 243.892C1506.58 247.752 1504.99 254.601 1508.12 258.272C1509.17 259.508 1511.05 258.481 1511.95 257.61C1514.19 255.463 1515.25 251.598 1515.22 248.574C1515.21 246.587 1514.44 244.44 1512.48 243.613C1511.49 243.194 1509.42 243.04 1508.81 242.049C1507.92 240.634 1508.61 238.348 1508.93 236.878C1509.7 233.382 1510.2 229.775 1511.36 226.378C1511.77 225.193 1512.19 223.569 1513.25 222.777C1513.68 222.458 1514.18 222.234 1514.71 222.085C1514.82 222.304 1515.98 222.274 1516.15 222.284C1517.93 222.373 1519.73 222.329 1521.51 222.319C1528.61 222.289 1535.67 221.766 1542.75 221.312C1552.77 220.67 1562.98 220.471 1572.94 219.096C1576.33 218.628 1580.93 218.374 1583.11 215.29C1586.23 210.857 1585.09 204.068 1585.37 198.967C1585.55 195.705 1587.37 191.471 1586.5 188.253C1585.99 186.345 1583.66 185.812 1581.98 185.558C1577.26 184.841 1572.35 185.259 1567.6 185.399C1560.97 185.598 1554.31 185.663 1547.68 185.434C1543.86 185.299 1539.35 184.427 1535.73 186.076C1531.4 188.039 1528.42 192.178 1525.95 196.068C1523.32 200.217 1521.06 204.641 1519.27 209.218C1518.9 210.175 1517.33 213.303 1518.35 214.274C1519.41 215.285 1521.44 213.517 1522.18 212.884C1525.63 209.975 1528.09 206.01 1530.52 202.27C1537.48 191.56 1544.23 180.642 1552.18 170.625C1555.25 166.759 1558.4 161.689 1562.46 158.78C1566.24 156.08 1571.87 156.234 1576.28 155.851C1583.54 155.223 1567.72 155.711 1575.01 155.676C1578.52 155.661 1582.7 155.054 1586.18 155.826C1590.15 156.708 1587.58 162.237 1586.46 164.398C1585.99 165.33 1585.46 166.226 1584.82 167.053C1584.77 167.113 1584.21 167.93 1584.07 167.785C1583.52 167.228 1584.89 164.378 1585.11 163.865C1586.51 160.443 1588.42 155.188 1591.93 153.33C1594.75 151.836 1598.25 151.881 1601.34 151.796C1601.98 151.781 1602.61 151.766 1603.25 151.751C1602.33 151.363 1601.32 151.502 1600.59 150.67C1598.29 148.03 1599.25 143.946 1599.45 140.773C1599.51 139.632 1599.43 137.849 1600.2 136.908C1600.28 136.803 1600.39 136.708 1600.5 136.619C1599.17 136.798 1597.99 135.498 1597.44 134.392C1596.09 131.717 1596.5 128.076 1597.51 125.371C1598.47 122.826 1600.43 120.081 1603.14 119.26C1603.87 119.035 1607.37 119.598 1607.64 119.14C1608.22 118.164 1606.92 115.748 1606.87 114.662C1606.65 110.194 1608.76 106.139 1613.05 104.695C1619.36 102.568 1626.4 102.568 1632.97 102.115C1640.61 101.587 1648.5 100.74 1656.15 101.357C1657.12 101.437 1658.1 101.557 1659.05 101.771C1661.35 102.284 1662.22 104.087 1662.7 106.264C1663.48 109.84 1663.34 113.726 1662.88 117.337C1662.7 118.682 1662.21 122.866 1660.33 122.756C1658.26 122.632 1657.79 119.758 1657.82 118.199C1657.89 114.089 1659.61 108.635 1662.7 105.771C1669.16 99.7735 1702.4 101.113 1710.39 101.138C1713.02 101.148 1716.28 100.65 1718.74 101.811C1720.61 102.697 1721.2 104.929 1721.5 106.812C1721.61 107.504 1721.54 109.332 1722.35 109.701C1722.95 109.975 1723.73 108.5 1723.98 108.152C1725.16 106.478 1726.46 104.799 1728.44 104.052C1730.16 103.4 1732.1 103.36 1733.91 103.514C1739.35 103.978 1750.56 105.616 1751.97 112.236C1752.75 115.877 1752.07 119.887 1751.5 123.503C1750.79 128.036 1750.1 132.574 1749.29 137.092C1748.87 139.468 1748.84 144.15 1746.68 145.789C1744.77 147.238 1741.72 147.164 1739.45 147.298C1734.31 147.597 1729.15 147.747 1724 147.866C1713.2 148.11 1679.29 147.438 1668.53 147.154C1658.46 146.885 1648.29 147.537 1638.22 147.766C1630.57 147.941 1623.06 147.657 1615.43 147.154C1612.22 146.94 1607.7 146.84 1605.32 144.305C1603.38 142.247 1603.15 138.417 1602.98 135.707C1603.32 135.647 1603.63 135.613 1603.89 135.593C1609.54 135.189 1607.24 141.236 1609.04 144.031C1609.87 145.306 1611.95 145.375 1613.29 145.485C1623.36 146.302 1633.69 145.102 1643.8 145.201C1648.85 145.251 1655.88 146.506 1660.72 144.544C1663.88 143.264 1663.26 139.264 1663.67 136.544C1663.83 135.418 1664.04 133.207 1665.47 132.948C1666.03 132.843 1666.62 132.983 1667.17 133.102C1672.11 134.183 1669.1 138.551 1670.44 141.68C1670.86 142.661 1671.91 142.995 1672.86 143.244C1676.7 144.245 1704.44 144.275 1708.39 143.961C1710.02 143.831 1711.84 143.567 1713.01 142.312C1714.72 140.469 1714.34 135.613 1716.77 134.581C1718.43 133.879 1720.91 135.06 1722.44 135.603C1726.65 137.092 1732.8 138.79 1733.17 144.075C1733.34 146.422 1733.84 151.119 1732.24 153.076C1731.04 154.556 1728.21 154.65 1726.5 154.869C1721.57 155.502 1716.58 155.801 1711.62 156.165C1692.43 157.569 1650.33 156.877 1631.17 156.185C1624.57 155.945 1617.94 156.189 1611.44 154.8C1609.35 154.351 1605.72 154.157 1604.99 151.736C1625.53 151.467 1646.35 153.4 1666.83 154.232C1675.17 154.571 1706.78 154.346 1715.11 154.72C1721.5 155.009 1727.79 156.344 1734.17 156.812C1737.32 157.046 1741.5 156.922 1744.06 159.123C1746.64 161.345 1747 165.29 1747.77 168.373C1748.34 170.65 1749.38 173.17 1748.86 175.546C1748.4 177.738 1745.19 176.572 1743.75 176.209C1743.42 176.124 1741.22 175.73 1741.33 176.069C1741.89 177.842 1745.47 178.928 1746.97 179.431C1751.59 180.97 1758.77 181.12 1761.55 185.737C1764.7 190.948 1764.12 198.315 1763.75 204.128C1762.92 217.064 1760.6 229.79 1759.33 242.671C1758.9 246.985 1758.64 251.324 1758.68 255.657C1758.7 257.665 1758.5 259.826 1760.24 261.201C1763.72 263.971 1773.53 264.962 1775.41 260.085C1776.91 256.2 1776.59 251.433 1776.67 247.329C1776.81 240.764 1777.44 233.935 1776.84 227.394C1776.45 223.006 1774.8 218.174 1769.73 217.766C1763.54 217.268 1762.95 224.655 1762.21 229.173C1760.69 238.323 1758.43 247.324 1755.86 256.225C1754.92 259.503 1755.05 263.702 1751.48 265.33C1749.55 266.212 1746.4 267.348 1744.37 266.162C1742.85 265.271 1742.57 263.099 1742 261.595C1741.06 259.114 1739.46 256.828 1737.81 254.776C1731.74 247.254 1720.16 244.714 1712.17 250.716C1708.7 253.316 1706.11 256.947 1704.72 261.047C1704.08 262.955 1703.59 266.367 1706.72 265.505C1708.95 264.897 1708.49 262.551 1708.97 260.793C1709.48 258.87 1710.69 257.161 1712.05 255.742C1713.31 254.432 1714.75 253.281 1716.32 252.36C1725.17 247.149 1733.38 253.102 1738.01 260.882C1740.65 265.33 1742.23 271.039 1740.83 276.159C1738.12 286.047 1726.06 290.894 1716.99 286.679C1711.98 284.348 1708.56 279.84 1708.31 274.237C1708.25 272.882 1709.08 269.405 1708.33 268.374C1708.03 267.956 1707.64 267.657 1707.2 267.433C1708.76 268.015 1711.26 267.348 1712.48 268.563C1713.85 269.923 1713.36 273.146 1713.88 274.884C1715.5 280.368 1720.45 282.66 1725.93 282.261C1728.05 282.107 1730.35 281.524 1732.1 280.289C1739.79 274.854 1740.22 260.459 1730.71 256.678C1726.14 254.86 1719.16 255.508 1715.79 259.493C1713.5 262.202 1713.46 268.718 1708.7 267.791C1708.12 267.677 1707.53 267.577 1706.99 267.338C1705.2 266.551 1702.63 266.855 1700.97 265.849C1697.68 263.866 1695.45 260.329 1691.82 258.89C1685.15 256.255 1677.7 261.734 1676.75 268.464C1675.77 275.328 1682.95 283.472 1690.08 282.236C1695.09 281.37 1698.62 276.613 1700.19 272.08C1700.83 270.232 1701.2 268.279 1701.21 266.322C1701.22 264.872 1701.04 263.423 1700.61 262.038C1698.12 254.028 1689.17 253.475 1682.44 256.086C1678.23 257.714 1673.92 260.653 1672 264.887C1671.14 266.8 1671.33 269.046 1670.33 270.889C1669.43 272.563 1667.32 272.922 1666.29 271.163C1664.3 267.761 1667.3 262.197 1668.74 259.074C1673.95 247.772 1692.2 239.892 1700.28 252.594C1707.03 263.209 1706.83 281.185 1693.39 286.376C1690.9 287.337 1688.21 287.85 1685.54 287.93C1678.85 288.134 1673.66 283.83 1672.5 277.24C1672.11 275.014 1672.21 272.722 1672.54 270.496C1672.65 269.809 1673.01 268.668 1672.1 268.384C1670.2 267.786 1667.64 268.877 1665.75 269.131C1661.57 269.694 1657.28 269.739 1653.07 269.948C1638.1 270.695 1623.15 270.944 1608.17 270.381C1601.53 270.132 1590.8 272.847 1585.86 266.88C1584.24 264.912 1584.6 262.476 1584.81 260.11C1585.17 256.15 1585.54 252.18 1585.82 248.21C1586.86 233.74 1586.32 219.2 1587.53 204.74C1587.98 199.48 1587.46 192.193 1591.2 187.974C1593.02 185.927 1595.86 186.071 1598.36 186.206C1603.04 186.455 1607.82 186.843 1612.51 186.684C1616.74 186.539 1620.9 185.907 1625.15 185.972C1634.36 186.116 1643.54 186.793 1652.75 186.838C1665.51 186.903 1678.28 186.3 1691.04 186.838C1701.05 187.262 1711.01 188.422 1720.98 189.244C1730.6 190.036 1740.2 190.709 1749.7 192.502C1753.23 193.164 1758.02 193.921 1759.01 198.061C1759.44 199.844 1759.3 201.901 1759.29 203.724C1759.27 206.763 1759.14 210.807 1756.77 213.074C1754.94 214.822 1751.98 214.937 1749.6 215.066C1744.42 215.35 1739.22 215.5 1734.03 215.674C1717.84 216.212 1701.69 217.736 1685.48 217.786C1677.92 217.806 1670.35 217.89 1662.82 218.682C1659.95 218.981 1656.8 218.772 1654.07 219.818C1650.35 221.243 1652.36 227.813 1652.3 230.712C1652.11 238.806 1650.89 246.831 1650.39 254.905C1650.29 256.544 1650.1 258.188 1649.63 259.767C1647.15 267.99 1637.47 266.307 1630.78 266.725C1627.85 266.91 1620.94 268.678 1619.49 265.037C1618.58 262.755 1618.83 260.031 1619.08 257.65C1619.52 253.416 1620.3 249.286 1620.53 245.027C1620.99 236.047 1620.94 227.051 1621.29 218.065C1621.56 211.216 1622.29 204.402 1622.42 197.543C1622.46 195.475 1621.73 192.716 1622.7 190.858C1623.51 189.319 1627.56 189.398 1628.96 189.284C1634.46 188.836 1640.11 188.89 1645.6 189.528C1646.93 189.682 1650.25 189.722 1651.04 191.112C1652.19 193.119 1651.69 196.497 1651.6 198.678C1651.37 204.431 1650.55 210.155 1650.42 215.913C1650.37 218.139 1650.21 223.21 1653.82 222.129C1656.35 221.372 1656.92 218.075 1657.18 215.838C1657.9 209.756 1657.69 203.595 1657.76 197.483C1657.78 195.216 1657.2 191.401 1659.61 190.091C1663.8 187.805 1669.84 189.867 1674.3 190.151C1679.19 190.459 1684.06 191.072 1688.97 191.147C1695.38 191.247 1701.78 190.738 1708.19 190.823C1712.43 190.878 1718.84 189.563 1722.35 192.596C1723.76 193.817 1723.95 195.784 1723.95 197.538C1723.96 201.144 1723.51 204.76 1723.06 208.337C1722.83 210.19 1721.87 213.402 1724.18 214.364C1727.32 215.669 1728.08 211.031 1728.41 208.954C1729.16 204.412 1728.79 199.764 1729.58 195.226C1729.99 192.895 1730.64 190.669 1733.23 190.121C1738.44 189.015 1747.8 189.971 1750.5 195.406C1752.89 200.222 1751.77 206.847 1751.98 212.068C1752.56 226.652 1752.25 241.361 1749.44 255.727C1748.56 260.165 1746.91 264.434 1744.68 268.359C1743.88 269.774 1742.44 271.627 1744 273.071C1746.75 275.621 1752.47 275.158 1755.92 275.452C1757.1 275.552 1760.3 275.417 1760.79 276.882C1761.16 277.963 1760.04 279.009 1759.33 279.641C1757.47 281.3 1755.25 282.49 1753.32 284.064C1752.32 284.876 1750.54 286.425 1751.84 287.75C1754.23 290.196 1759.61 289.026 1762.61 288.816C1772.91 288.099 1783.21 287.955 1793.46 286.465C1796.45 286.032 1799.52 285.554 1802.38 284.538C1803.36 284.189 1804.97 283.661 1805.39 282.57C1805.91 281.175 1803.02 280.488 1802.21 280.254C1798.35 279.153 1794.32 278.755 1790.4 277.908C1789.94 277.808 1785.87 277.076 1786.14 276.105C1786.39 275.223 1790.67 275.562 1791.47 275.592C1795.55 275.756 1799.76 276.13 1803.8 275.377C1805.42 275.079 1807.72 274.481 1808.16 272.618C1808.46 271.353 1805.69 268.653 1805.02 267.796C1801.91 263.811 1797.17 259.323 1795.72 254.357C1793.98 248.42 1792.9 242.368 1792.27 236.266C1793.09 248.898 1798.52 261.525 1812.55 263.214C1820.28 264.145 1836.44 258.118 1832.18 247.523C1830.04 242.213 1822.24 241.516 1817.53 243.09C1809.32 245.844 1802.03 257.844 1806.35 266.232C1814.73 282.525 1841.89 278.909 1856.66 277.474C1861.13 277.041 1865.62 276.418 1869.98 275.362C1876.25 273.848 1886.98 270.207 1889.03 263.124C1891.3 255.289 1882.86 248.928 1875.79 249.067C1873.4 249.112 1866.68 250.467 1866.86 254.098C1866.91 255.159 1870.39 252.454 1870.58 252.275C1872.63 250.317 1873.72 247.832 1874.22 245.067C1875.71 236.749 1872.81 228.675 1867.08 222.563C1861.48 216.585 1852.26 213.98 1844.39 216.162C1842.89 216.58 1832.72 221.696 1835.48 224.859C1836.22 225.711 1836.63 219.943 1836.53 219.579C1835.58 216.013 1833.09 213.059 1830.12 210.947C1821.4 204.735 1808.05 207.829 1800.19 214.05C1797 216.58 1794.23 219.539 1792.4 223.2C1792.23 223.524 1790.93 226.209 1791.59 226.533C1791.27 217.91 1791.61 209.238 1791.99 200.661C1792.25 195.092 1789.88 186.524 1791.95 181.394C1793.15 178.425 1798.71 181.459 1800.42 182.171C1804.01 183.665 1821.56 191.102 1824.69 187.635C1825.69 186.524 1820.11 183.79 1819.57 183.486C1816.4 181.718 1800.68 172.139 1802.21 167.736C1803.13 165.076 1809.01 166.849 1810.72 167.238C1815.31 168.279 1830.97 173.444 1834.37 167.591C1836.16 164.513 1827.68 160.553 1826.03 159.597C1818.38 155.143 1810.8 149.236 1804.97 142.551C1803.64 141.017 1799.68 137.276 1800.3 134.87C1801.3 130.96 1823.24 137.994 1824.5 133.441C1824.75 132.559 1812.52 123.693 1808.3 118.722C1807.58 117.875 1804.25 114.303 1805.8 113.078C1810.46 109.397 1834.88 120.44 1837.68 111.614C1839.09 107.18 1822.37 95.6392 1819.29 93.1984C1811.14 86.7479 1805.05 78.0708 1799.69 69.2642C1798.59 67.4511 1794.37 61.932 1795.47 59.5461C1797.15 55.9198 1820.97 72.3276 1820.63 64.3678C1820.46 60.5672 1814.6 57.2598 1811.97 55.0631C1803.97 48.3486 1795.46 41.913 1788.86 33.729C1783.3 26.8401 1780.6 18.4221 1778.84 9.85955C1778.49 8.11119 1778.32 1.56102 1776.16 1.00812C1775.01 0.714235 1772.96 8.46484 1770.77 13.2816C1767.51 20.4743 1761.75 26.3869 1755.77 31.4028C1749.74 36.4587 1742.8 40.4884 1735.69 43.8406C1733.22 45.0112 1730.63 45.9626 1728.15 47.1182C1727.95 47.2079 1724.38 48.7072 1724.61 49.2153C1725.31 50.7694 1729.59 49.6934 1730.83 49.544C1738.06 48.6723 1745.11 46.8044 1752.22 45.2702C1753.33 45.0311 1759.44 42.964 1759.89 44.6277C1760.78 47.9501 1752.85 52.3284 1750.76 53.8028C1739.82 61.5136 1728.86 68.7462 1715.96 72.7809C1711.15 74.2852 1706.03 74.0859 1701.2 75.5205C1701.04 75.5703 1698.96 76.168 1699.08 76.6562C1699.63 78.9475 1717.16 78.2003 1717.2 80.7456C1717.24 83.0071 1711.28 83.6945 1709.95 83.8539C1701.86 84.8152 1693.85 83.5251 1685.85 82.499C1684.62 82.3396 1679.67 82.1603 1679.39 80.382C1678.83 76.8654 1702.15 75.3461 1702.15 71.0425C1702.15 70.4646 1701.07 70.5693 1700.5 70.4995C1695.99 69.9665 1691.43 70.0711 1686.91 69.4684C1677.41 68.1982 1658.66 65.9717 1653.21 56.6022C1650.1 51.2476 1682.77 58.4502 1667.33 51.2874C1656.15 46.1021 1644.1 41.0562 1635.72 31.6519C1632.96 28.5487 1630.66 25.0669 1628.08 21.8142C1625.48 18.5267 1624.56 17.1469 1624.92 17.2117C1625.65 17.3412 1625.22 21.6548 1625.18 22.2774C1624.84 27.6172 1621.96 32.0354 1618.87 36.2295C1613.84 43.0686 1607.27 50.2962 1599.89 54.6447C1598.07 55.7206 1590.98 58.2111 1591.12 60.9358C1591.29 64.4774 1608 60.1886 1610.42 59.5261C1611.21 59.312 1615.63 57.6532 1615.87 59.1027C1616.3 61.7128 1610.82 64.846 1609.17 66.1759C1601.85 72.0785 1593.74 77.2091 1584.82 80.3223C1583.22 80.8801 1573.56 82.2151 1573.72 84.4416C1573.82 85.9011 1578.99 85.3681 1579.94 85.2934C1583.49 85.0194 1602.66 81.5476 1603.1 84.5263C1604.08 91.2558 1587.32 104.54 1581.96 107.659C1579.81 108.909 1573.21 110.528 1573 113.571C1572.76 116.998 1588.58 112.998 1588.58 115.364C1588.58 121.665 1576.42 125.914 1571.97 128.191C1570.54 128.918 1565.21 130.721 1565.48 132.748C1565.77 134.91 1577.24 132.534 1578.71 132.32C1579.02 132.275 1583.4 131.737 1583 132.375C1577.89 140.295 1558.99 138.895 1551.16 138.168C1549.45 138.008 1539.76 135.393 1538.99 137.371C1538.09 139.662 1555.61 145.639 1557.14 146.352C1557.89 146.705 1562.99 149.091 1559.93 149.849C1551.38 151.97 1541.26 148.1 1533.4 145.136C1531.16 144.295 1526.73 143.478 1525.97 140.753C1525.17 137.884 1543.13 134.86 1541.5 131.742C1538.18 125.411 1526.63 124.34 1521 120.794C1519.92 120.111 1514.81 117.516 1515.45 115.833C1516.09 114.144 1522.25 116.211 1523.42 116.5C1530.71 118.303 1538.47 118.941 1545.94 118.343C1547.31 118.233 1552.62 118.368 1552.92 116.46C1553.29 114.044 1544.59 112.331 1542.97 111.768C1535.73 109.248 1518.81 104.311 1516.29 95.7886C1514.9 91.0715 1535.51 102.279 1535.69 97.6167C1535.82 94.3391 1530.39 91.7738 1528.12 90.3343C1520.94 85.7965 1513.67 80.6759 1507.75 74.5541C1505.49 72.218 1502.49 65.9966 1498.81 65.7974C1496.58 65.6728 1495.52 69.9267 1494.75 71.4409C1491.54 77.7669 1487.88 84.073 1483.42 89.607C1478.88 95.2357 1473.53 100.301 1467.82 104.735C1466.03 106.124 1462.55 108.356 1463.06 111.066C1464.51 118.717 1496.2 105.432 1487.29 123.718C1480.95 136.723 1467.22 146.088 1454.37 151.836C1448.53 154.451 1441.92 155.995 1436.39 159.238C1436.14 159.387 1434.89 160.06 1435.15 160.573C1436.62 163.462 1458.11 159.816 1461.91 159.472C1463.62 159.318 1470.01 157.903 1470.62 160.219C1471.33 162.884 1465.46 165.335 1463.78 166.361C1455.9 171.178 1447.77 175.511 1439.3 179.197C1437.89 179.81 1429.46 182.729 1431.69 185.105C1434.35 187.929 1440.64 186.579 1444.01 186.48C1455.35 186.141 1466.66 184.99 1477.85 183.137C1480.64 182.679 1490.73 179.177 1492.21 183.072C1492.95 185.02 1479.26 194.026 1476.8 195.53C1464.57 203.032 1451.28 208.999 1437.32 212.396C1435.68 212.795 1422.49 215.35 1422.3 215.768C1422.14 216.107 1427.26 216.65 1427.77 216.68C1434.57 217.088 1441.39 216.775 1448.19 216.72C1451.47 216.695 1454.76 216.585 1458.03 216.381C1460.03 216.257 1462.03 216.052 1464.04 216.062C1483.81 216.167 1457.35 231.608 1452.95 233.915C1452.09 234.368 1445.12 237.695 1446.08 239.02C1447.5 240.983 1453.04 240.041 1454.94 239.842C1463.1 238.975 1472.75 237.292 1480.11 233.451C1482.76 232.067 1488.81 228.007 1490.88 232.146C1493.62 237.596 1491.44 244.973 1491.08 250.721C1490.51 259.936 1489.91 269.579 1490.51 278.794C1490.77 282.874 1491.46 288.004 1494.91 290.724C1498.7 293.713 1504.27 292.278 1508.47 291.138C1516.46 288.971 1523.97 286.151 1532.38 287.332C1545.23 289.13 1556.94 296.218 1570.23 295.043C1585.4 293.698 1599.16 283.995 1614.67 285.25C1630.19 286.51 1643.54 295.924 1658.73 298.639C1673.49 301.279 1686.55 290.874 1701.22 292.373C1717.59 294.042 1730.4 307.152 1747.1 307.899C1762.73 308.601 1779.57 304.397 1793.8 298.106C1801.52 294.694 1808.41 292.886 1816.81 291.098C1822.58 289.867 1828.83 290.908 1841.19 291.098H1920" stroke="#00B9FE" stroke-width="2" stroke-miterlimit="10" stroke-linecap="round" stroke-linejoin="round"/>
</svg>
