<svg width="60" height="60" viewBox="0 0 60 60" fill="none" xmlns="http://www.w3.org/2000/svg">
<path d="M7.5 27.5L7.8822 35.5673C8.29285 44.1715 8.49817 48.4735 11.3971 51.1118C14.2961 53.75 18.8179 53.75 27.8615 53.75H32.1385C41.182 53.75 45.704 53.75 48.603 51.1118C51.5018 48.4735 51.7072 44.1715 52.1177 35.5673L52.5 27.5" stroke="#202124" stroke-width="1.5" stroke-linecap="round" stroke-linejoin="round"/>
<path d="M7.11795 26.1077C11.3662 34.186 20.948 37.5 30 37.5C39.052 37.5 48.6337 34.186 52.882 26.1077C54.91 22.2514 53.3745 15 48.38 15H11.62C6.62558 15 5.09008 22.2514 7.11795 26.1077Z" fill="#FE9300" stroke="#202124" stroke-width="1.5" stroke-linecap="round" stroke-linejoin="round"/>
<path d="M29.9995 27.5H30.022" stroke="#202124" stroke-width="1.5" stroke-linecap="round" stroke-linejoin="round"/>
<path d="M39.9996 15L39.7788 14.2273C38.6788 10.3772 38.1288 8.45217 36.8193 7.35107C35.5098 6.25 33.7706 6.25 30.2918 6.25H29.7071C26.2286 6.25 24.4892 6.25 23.1798 7.35107C21.8703 8.45217 21.3203 10.3772 20.2203 14.2273L19.9995 15" stroke="#202124" stroke-width="1.5"/>
</svg>
