<svg width="20" height="22" viewBox="0 0 20 22" fill="none" xmlns="http://www.w3.org/2000/svg">
<path d="M17.682 2.31802C19 3.63604 19 4.75736 19 9H1C1 4.75736 1 3.63604 2.31802 2.31802C3.63604 1 5.75736 1 10 1C14.2426 1 16.364 1 17.682 2.31802Z" fill="#FE9300" stroke="#202124" stroke-width="1.5"/>
<path d="M13 5H15" stroke="#202124" stroke-width="1.5" stroke-linecap="round" stroke-linejoin="round"/>
<path d="M19 12V10C19 5.75736 19 3.63604 17.682 2.31802C16.364 1 14.2426 1 10 1C5.75736 1 3.63604 1 2.31802 2.31802C1 3.63604 1 5.75736 1 10V12C1 16.2426 1 18.364 2.31802 19.682C3.63604 21 5.75736 21 10 21C14.2426 21 16.364 21 17.682 19.682C19 18.364 19 16.2426 19 12Z" stroke="#202124" stroke-width="1.5"/>
<path d="M5 13H5.52632M9.7368 13H10.2632M14.4737 13H15" stroke="#202124" stroke-width="1.5" stroke-linecap="round" stroke-linejoin="round"/>
<path d="M5 17H5.52632M9.7368 17H10.2632M14.4737 17H15" stroke="#202124" stroke-width="1.5" stroke-linecap="round" stroke-linejoin="round"/>
</svg>
