<svg width="22" height="22" viewBox="0 0 22 22" fill="none" xmlns="http://www.w3.org/2000/svg">
<path d="M4.97681 1.25C5.57605 1.25 6.03532 1.24257 6.45532 1.37109C6.94951 1.52232 7.39181 1.80902 7.73071 2.19922C8.01867 2.53086 8.19826 2.95433 8.44165 3.50195L8.84399 4.40723C9.10762 5.00039 9.31816 5.45286 9.36353 5.92969C9.40425 6.3581 9.34488 6.7904 9.18872 7.19141C9.01493 7.63759 8.68808 8.01425 8.27271 8.5127C7.79291 9.08845 7.67447 9.24629 7.60962 9.42383C7.54634 9.59719 7.52025 9.85531 7.54712 10.0381C7.57522 10.2288 7.64169 10.3724 7.94165 10.9336C8.75127 12.4485 9.5518 13.249 11.0667 14.0586C11.6279 14.3586 11.7714 14.425 11.9622 14.4531L12.1106 14.4639C12.2683 14.4648 12.4461 14.4381 12.5764 14.3906C12.7539 14.3258 12.911 14.2072 13.4866 13.7275H13.4875C13.9859 13.3123 14.3628 12.9863 14.8088 12.8125C15.2098 12.6564 15.642 12.596 16.0706 12.6367C16.5473 12.6821 16.9998 12.8926 17.593 13.1562L18.4983 13.5586C19.0455 13.8018 19.4685 13.9818 19.8 14.2695C20.1903 14.6084 20.4779 15.0507 20.6292 15.5449L20.6721 15.7041C20.7567 16.0816 20.7502 16.4989 20.7502 17.0234C20.7502 17.4859 20.7505 17.8769 20.7249 18.2002C20.6983 18.5347 20.6412 18.8482 20.5002 19.1562C20.2002 19.8111 19.5758 20.3785 18.8948 20.6143C18.292 20.8229 17.6765 20.748 16.8879 20.6719C12.2417 20.2235 8.55751 18.7155 5.92114 16.0791C3.28467 13.4426 1.77673 9.75781 1.32837 5.11133C1.2523 4.32303 1.17742 3.70817 1.38599 3.10547C1.6217 2.42462 2.18892 1.80001 2.84399 1.5C3.15202 1.359 3.46556 1.30199 3.80005 1.27539C4.1234 1.2497 4.51438 1.25 4.97681 1.25Z" fill="#FE9300" stroke="#202124" stroke-width="1.5"/>
</svg>
