<svg width="100" height="100" viewBox="0 0 100 100" fill="none" xmlns="http://www.w3.org/2000/svg">
<path d="M11.9612 53.3281C10.949 53.4644 10.0706 53.7256 9.33325 54.2627V37.5C9.33325 31.5786 9.33569 27.2395 9.78931 23.9189C10.2388 20.6292 11.114 18.4883 12.7542 16.874C14.3965 15.2573 16.5781 14.3926 19.928 13.9492C23.3052 13.5022 27.7175 13.5 33.7317 13.5H71.3479C76.5945 13.5 78.9497 13.5164 80.9807 14.3057C82.2729 14.8079 83.4636 15.5325 84.4963 16.4443C86.1179 17.8757 87.1831 19.9358 89.5305 24.5566C90.0007 25.4827 90.3167 26.1077 90.5022 26.5918C90.6414 26.9548 90.6685 27.1458 90.6663 27.248L90.6575 27.3242C90.604 27.5522 90.4749 27.7598 90.2864 27.9131C90.26 27.9346 90.2166 27.9629 90.1379 27.9927C90.0256 28.0354 89.8411 28.0808 89.5315 28.1123C89.0061 28.1658 88.2937 28.167 87.2424 28.167H66.6663C66.635 28.167 66.604 28.168 66.5735 28.1709L65.5522 28.1675L65.1584 28.167C63.938 28.167 62.9453 28.1655 62.1438 28.249C61.4246 28.324 60.783 28.4731 60.1965 28.7969L59.9485 28.9463C59.0781 29.5186 58.3872 30.3599 57.9358 31.3496C57.7202 31.8218 57.5854 32.3247 57.4993 32.8811C57.4546 33.1694 57.4229 33.4719 57.3997 33.792C57.3323 34.7219 57.3333 35.8821 57.3333 37.3574V53.167H16.6663C14.7305 53.167 13.178 53.1646 11.9612 53.3281ZM33.3333 28.167C33.8855 28.167 34.3333 28.6147 34.3333 29.167C34.333 29.7192 33.8855 30.167 33.3333 30.167H25.0002C24.5198 30.167 24.1184 29.8279 24.0222 29.3762C24.0078 29.3088 24.0002 29.2388 24.0002 29.167C24.0002 28.6147 24.448 28.167 25.0002 28.167H33.3333Z" fill="#FE9300"/>
<path d="M70.8333 87.5002C75.4357 87.5002 79.1667 83.7692 79.1667 79.1668C79.1667 74.5645 75.4357 70.8335 70.8333 70.8335C66.231 70.8335 62.5 74.5645 62.5 79.1668C62.5 83.7692 66.231 87.5002 70.8333 87.5002Z" stroke="#202124" stroke-width="2" stroke-linecap="round" stroke-linejoin="round"/>
<path d="M29.1667 87.5002C33.7691 87.5002 37.5 83.7692 37.5 79.1668C37.5 74.5645 33.7691 70.8335 29.1667 70.8335C24.5643 70.8335 20.8334 74.5645 20.8334 79.1668C20.8334 83.7692 24.5643 87.5002 29.1667 87.5002Z" stroke="#202124" stroke-width="2" stroke-linecap="round" stroke-linejoin="round"/>
<path d="M66.6667 29.1667H87.243C89.3017 29.1667 90.3309 29.1667 90.918 28.6888C91.2759 28.3975 91.5267 27.9983 91.6313 27.5529C91.803 26.8223 91.3425 25.916 90.4221 24.1036C88.1121 19.5563 86.9571 17.2826 85.1584 15.6946C84.0367 14.7042 82.7446 13.9182 81.343 13.3734C79.0955 12.5 76.513 12.5 71.348 12.5H33.7315C21.7587 12.5 15.7723 12.5 12.0528 16.1612C8.33337 19.8223 8.33337 25.7149 8.33337 37.5V58.3333" stroke="#202124" stroke-width="2" stroke-linecap="round" stroke-linejoin="round"/>
<path d="M37.5 79.1665H62.5M79.1667 79.1665C86.0705 79.1665 91.6667 73.5703 91.6667 66.6665V54.1665H16.6667C12.7383 54.1665 10.7742 54.1665 9.55375 55.3869C8.33337 56.6073 8.33337 58.5715 8.33337 62.4998V66.6665C8.33337 72.559 8.33337 75.5053 10.164 77.3361C11.9945 79.1665 14.9408 79.1665 20.8334 79.1665" stroke="#202124" stroke-width="2" stroke-linecap="round" stroke-linejoin="round"/>
<path d="M25 29.1665H33.3333" stroke="#202124" stroke-width="2" stroke-linecap="round" stroke-linejoin="round"/>
<path d="M58.3334 54.1665V37.3569C58.3334 34.3768 58.3334 32.8867 58.8459 31.7643C59.2275 30.9277 59.8009 30.2397 60.4984 29.7813C61.4334 29.1665 62.6755 29.1665 65.1588 29.1665C68.9138 29.1665 70.7913 29.1665 72.5171 29.7753C73.8163 30.2335 75.045 30.9421 76.155 31.8733C77.6292 33.1103 78.8021 34.8696 81.148 38.3882L91.6667 54.1665" stroke="#202124" stroke-width="2" stroke-linecap="round" stroke-linejoin="round"/>
</svg>
