<svg width="100" height="100" viewBox="0 0 100 100" fill="none" xmlns="http://www.w3.org/2000/svg">
<path d="M85.5 10L64.5 33" stroke="#202124" stroke-width="2" stroke-linecap="round" stroke-linejoin="round"/>
<path d="M94 86L92.9978 85.2841C89.097 82.4978 84.423 81 79.6293 81H20.3707C15.577 81 10.903 82.4978 7.00222 85.2841L6 86" stroke="#202124" stroke-width="2" stroke-linecap="round" stroke-linejoin="round"/>
<path d="M45.9006 30.0106C33.6716 34.6661 23.777 34.1321 13.9958 30.5914C13.3014 30.34 12.5691 30.8973 12.6374 31.6327C15.582 63.3422 30.7744 75.8054 50.9673 80.89C51.2472 80.9604 51.5408 80.9077 51.7686 80.7303C54.1159 78.9028 67.2472 67.6853 69.2979 44.0095C69.542 41.1917 69.6642 39.783 69.074 38.1954C68.4833 36.6078 67.3247 35.4692 65.0068 33.192C61.1951 29.4464 59.2892 27.5739 57.0268 27.1049C54.765 26.6364 51.8103 27.7611 45.9006 30.0106Z" fill="#FE9300" stroke="#202124" stroke-width="2" stroke-linecap="round" stroke-linejoin="round"/>
<path d="M20.5 57.7499C20.5 57.7499 33.5 60.0002 46.5 51" stroke="#202124" stroke-width="2" stroke-linecap="round" stroke-linejoin="round"/>
</svg>
