<svg width="782" height="630" viewBox="0 0 782 630" fill="none" xmlns="http://www.w3.org/2000/svg">
<path d="M952.783 254.152C950.698 234.549 934.16 219.678 914.447 219.678H180.483C165.093 219.678 150.146 224.835 138.03 234.326L74.1178 284.39H956L952.783 254.152Z" fill="#00B9FE"/>
<path d="M956 307.797H127.822C115.258 307.797 102.984 304.019 92.5945 296.955L74.1178 284.39H956V307.797Z" fill="#00B9FE"/>
<path d="M74.1178 284.39L138.03 234.326C150.146 224.835 165.093 219.678 180.483 219.678H914.447C934.16 219.678 950.698 234.549 952.783 254.152L956 284.39M74.1178 284.39H956M74.1178 284.39L92.5945 296.955C102.984 304.019 115.258 307.797 127.822 307.797H956V284.39" stroke="white"/>
<rect width="637.489" height="168.666" transform="matrix(-1 0 0 1 956 307.797)" fill="#202124" stroke="white"/>
<path d="M589.064 356.676C589.064 349.452 583.208 343.596 575.984 343.596H395.615C388.391 343.596 382.535 349.452 382.535 356.676V427.584C382.535 434.808 388.391 440.665 395.615 440.665H575.984C583.208 440.665 589.064 434.808 589.064 427.584V356.676Z" stroke="white"/>
<path d="M237.965 232.758H195.645C186.241 232.758 177.231 236.53 170.632 243.23L143.65 270.622H237.965V232.758Z" fill="#202124"/>
<path d="M299.924 232.758H237.965V270.622H299.924V232.758Z" fill="#202124"/>
<path d="M237.965 232.758H195.645C186.241 232.758 177.231 236.53 170.632 243.23L143.65 270.622H237.965M237.965 232.758V270.622M237.965 232.758H299.924V270.622H237.965" stroke="white"/>
<path d="M318.511 307.797H160.86C160.86 307.797 127.388 356.636 97.5248 380.427C70.6406 401.844 34.8768 399.343 11.815 424.831C-13.1582 452.431 10.74 507.2 27.1526 537.319C34.4997 550.802 48.9051 558.387 64.26 558.387H318.512L318.511 307.797Z" stroke="white"/>
<path d="M956 476.463H318.511V558.387H916.759C938.431 558.387 956 540.818 956 519.146V476.463Z" stroke="white"/>
<path d="M92.0163 558.387C92.0163 586.903 115.133 610.019 143.649 610.019C172.165 610.019 195.281 586.903 195.281 558.387C195.281 529.871 172.165 506.754 143.649 506.754C115.133 506.754 92.0163 529.871 92.0163 558.387Z" fill="#202124" stroke="white"/>
<path d="M637.257 558.387C637.257 586.903 660.373 610.019 688.889 610.019C717.405 610.019 740.521 586.903 740.521 558.387C740.521 529.871 717.405 506.754 688.889 506.754C660.373 506.754 637.257 529.871 637.257 558.387Z" fill="#202124" stroke="white"/>
<path d="M124.374 558.386C124.374 569.032 133.004 577.663 143.65 577.663C154.296 577.663 162.926 569.032 162.926 558.386C162.926 547.741 154.296 539.11 143.65 539.11C133.004 539.11 124.374 547.741 124.374 558.386Z" fill="#202124" stroke="white"/>
<path d="M669.612 558.386C669.612 569.032 678.242 577.663 688.888 577.663C699.534 577.663 708.164 569.032 708.164 558.386C708.164 547.741 699.534 539.11 688.888 539.11C678.242 539.11 669.612 547.741 669.612 558.386Z" fill="#202124" stroke="white"/>
<path d="M300.613 325.697C300.613 325.697 211.117 316.058 168.778 335.335C114.041 360.257 58.9734 454.09 129.882 476.119C143.382 480.314 160.122 480.437 176.351 490.256C193.02 500.34 211.117 526.031 211.117 526.031L300.613 526.031V325.697Z" stroke="white"/>
<path d="M283.4 350.524C283.4 343.843 278.37 338.26 271.702 337.829C249.721 336.407 202.116 335.101 176.005 347.726C153.611 358.555 134.395 385.615 123.352 403.924C118.382 412.163 124.484 422.078 134.106 422.078H270.32C277.544 422.078 283.4 416.222 283.4 408.998V350.524Z" stroke="white"/>
<path d="M435.268 600.417C434.887 600.475 434.575 600.217 434.572 599.837L432.282 336.56C432.279 336.202 432.575 335.912 432.945 335.909C433.316 335.909 433.615 336.196 433.618 336.553L435.947 599.621C435.954 600.001 435.648 600.359 435.268 600.417Z" fill="#FE9300"/>
<path d="M358.938 594.559C358.526 594.621 358.188 594.347 358.188 593.951V330.151C358.188 329.778 358.513 329.478 358.916 329.478C359.315 329.478 359.64 329.781 359.64 330.151L359.686 593.735C359.689 594.131 359.354 594.501 358.938 594.559Z" fill="#FE9300"/>
<path d="M199.41 611.371C199.336 611.374 199.258 611.361 199.184 611.336C198.84 611.22 198.646 610.843 198.756 610.498L287.012 333.083C287.138 332.69 287.531 332.49 287.895 332.632C288.259 332.774 288.449 333.209 288.326 333.599L200.012 610.92C199.922 611.194 199.677 611.365 199.41 611.371Z" fill="#FE9300"/>
<path d="M267.916 629.984C267.851 629.984 267.787 629.977 267.726 629.958C267.381 629.861 267.185 629.501 267.281 629.156L348.97 340.381C349.083 339.984 349.466 339.765 349.827 339.884C350.187 340.007 350.39 340.426 350.281 340.819L268.524 629.51C268.444 629.791 268.193 629.977 267.916 629.984Z" fill="#FE9300"/>
<path d="M359.702 329.9L433.908 335.393V337.065L349.098 340.867L285.711 333.096V331.427L359.702 329.9Z" fill="#FE9300"/>
<path d="M359.702 328.231L433.908 335.393L349.098 339.198L285.711 331.427L359.702 328.231Z" fill="#FE9300"/>
<path d="M284.682 571.565C284.627 571.565 284.573 571.558 284.515 571.546L217.181 554.824C216.824 554.734 216.598 554.366 216.679 554.002C216.759 553.638 217.117 553.416 217.475 553.503L284.827 570.244C285.178 570.331 285.394 570.695 285.307 571.053C285.233 571.355 284.972 571.558 284.682 571.565Z" fill="#FE9300"/>
<path d="M302.675 507.761C302.637 507.761 302.598 507.758 302.559 507.752L235.838 496.398C235.471 496.337 235.217 495.976 235.268 495.595C235.323 495.215 235.664 494.958 236.032 495.019L302.772 506.389C303.133 506.45 303.378 506.804 303.32 507.181C303.265 507.516 302.991 507.758 302.675 507.761Z" fill="#FE9300"/>
<path d="M321.969 439.853C321.94 439.853 321.911 439.853 321.882 439.847L256.536 431.47C256.162 431.422 255.889 431.064 255.927 430.668C255.966 430.272 256.304 429.991 256.674 430.04L322.04 438.429C322.41 438.478 322.671 438.832 322.626 439.225C322.587 439.586 322.3 439.85 321.969 439.853Z" fill="#FE9300"/>
<path d="M334.892 389.882C334.856 389.885 334.821 389.882 334.785 389.879L272.303 382.884C271.923 382.842 271.639 382.478 271.672 382.072C271.701 381.666 272.036 381.373 272.412 381.415L334.914 388.422C335.288 388.464 335.562 388.825 335.526 389.225C335.494 389.589 335.22 389.863 334.892 389.882Z" fill="#FE9300"/>
<mask id="mask0_408_4594" style="mask-type:luminance" maskUnits="userSpaceOnUse" x="234" y="0" width="323" height="343">
<path d="M554.293 219.179L538.785 219.05L477.8 207.7L433.909 199.078L416.503 333.711C416.503 333.711 303.359 341.65 301.465 342.472C299.571 343.293 287.856 270.775 287.856 270.775L315.36 161.807C315.36 161.807 232.096 115.524 234.154 113.562C236.212 111.597 324.668 0.0678711 324.668 0.0678711L453.959 6.65342L527.16 176.141L556.709 206.131L554.293 219.179Z" fill="white"/>
</mask>
<g mask="url(#mask0_408_4594)">
<path d="M394.77 322.914C394.77 322.914 413.728 331.533 414.037 332.909C414.347 334.284 401.846 332.448 396.741 332.644C391.636 332.844 387.439 331.333 387.9 329.171C388.363 327.009 390.148 321.571 390.148 321.571L394.77 322.914Z" fill="#202124" stroke="white"/>
<path d="M395.463 315.92L394.31 324.458C394.31 324.458 391.308 325.527 389.292 324.261L388.432 314.895L395.463 315.92Z" fill="#202124" stroke="white"/>
<path d="M306.181 316.126L303.975 319.667C303.36 320.656 303.173 321.848 303.469 322.979C304.239 325.924 305.782 331.662 306.452 333.16C307.367 335.2 319.635 336.408 319.635 336.408C319.635 336.408 320.73 334.868 318.182 333.009C315.635 331.15 313.999 330.856 313.1 328.111C312.201 325.366 311.602 317.602 311.602 317.602L306.181 316.126Z" fill="#202124" stroke="white"/>
<path d="M315.359 307.124C314.554 307.765 310.615 319.731 310.615 319.731C310.615 319.731 309.339 321.362 306.917 318.955C304.495 316.548 305.822 317.875 305.822 317.875L306.276 306.109L315.359 307.124Z" fill="#202124" stroke="white"/>
<path d="M405.897 144.373C406.899 169.842 406.937 197.515 405.472 227.079C403.823 260.368 400.508 291.137 396.331 319.029C394.778 319.077 393.145 319.087 391.441 319.039C390.292 319.007 389.174 318.952 388.098 318.878C385.93 313.094 383.367 305.487 381.073 296.405C378.661 286.852 377.205 278.285 376.168 270.092C372.515 241.243 376.796 238.727 373.833 217.346C371.208 198.411 367.478 197.673 363.097 170.79C358.343 141.622 361.883 137.243 363.603 135.665C370.927 128.931 388.134 133.512 405.897 144.373Z" fill="#202124" stroke="white"/>
<path d="M393.873 143.948C377.157 168.415 359.126 198.865 343.002 235.311C330.817 262.855 321.979 288.714 315.492 311.764C314.613 312.169 312.542 312.981 309.897 312.63C306.287 312.153 304.126 309.847 303.559 309.205C300.918 292.683 301.207 278.691 302.106 268.593C302.679 262.127 303.697 251.359 307.817 238.066C312.432 223.178 315.605 222.34 321.625 206.585C327.873 190.234 326.36 186.155 332.344 165.692C334.802 157.287 338.918 144.779 345.708 129.813C361.761 134.524 377.817 139.234 393.873 143.948Z" fill="#202124" stroke="white"/>
<path d="M468.047 182.485C464.832 187.485 456.799 181.022 449.24 178.322C431.57 172.004 420.232 147.914 419.237 130.026C419.025 126.185 419.16 122.432 418.38 122.316C416.422 122.029 411.397 145.249 407.452 164.935C404.279 166.095 399.47 167.329 393.976 166.43C384.983 164.958 383.91 159.368 373.851 155.724C367.983 153.597 362.233 153.594 350.732 153.581C337.748 153.568 337.391 155.173 334.891 154.01C334.891 154.01 334.273 153.671 333.741 153.288C324.494 146.648 350.947 96.1799 343.33 49.6139C342.483 44.4395 341.185 39.1234 344.074 33.9426C351.543 20.5588 381.056 18.6708 399.342 27.4827C404.353 29.8991 412.747 35.1798 420.242 40.7472C423.238 42.9735 426.355 45.4641 429.605 48.3026C437.487 55.191 442.975 59.9851 447.497 66.6384C465.731 93.4735 444.66 115.837 461.199 150.156C466.887 161.955 471.416 177.249 468.047 182.485Z" fill="#202124" stroke="white"/>
<path d="M422.022 22.6467C422.022 22.6467 417.274 28.037 412.173 30.8336C407.56 33.3595 397.398 29.1066 395.047 28.6072C392.696 28.1078 395.517 34.4421 399.956 38.8078C404.391 43.1734 419.059 53.1581 423.014 53.3256C426.969 53.4931 422.376 50.0264 419.948 45.9926C417.519 41.9588 420.943 33.6173 424.006 31.0462C427.072 28.4719 422.022 22.6467 422.022 22.6467Z" fill="#202124" stroke="white"/>
<path d="M432.934 26.8642C438.319 26.455 443.762 19.8179 442.664 16.9246C442.349 16.0966 441.65 15.9645 431.108 14.2279C425.87 13.3644 423.255 13.01 421.445 14.4566C420.34 15.3394 419.477 16.9149 419.206 18.4035C419.068 19.1703 419.058 20.2238 419.19 22.3245C419.306 24.19 419.274 24.1062 419.322 24.6572C419.438 25.9814 419.799 28.3076 421.087 31.5327C421.625 30.9431 422.334 30.2407 423.232 29.548C423.577 29.2806 424.943 28.2496 426.498 27.6213C429.165 26.542 431.185 26.9963 432.934 26.8642Z" fill="#202124" stroke="white"/>
<path d="M419.113 27.9339C419.113 27.9339 419.351 33.089 424.208 35.354C428.557 37.3805 434.328 28.298 432.741 24.8313C432.212 23.6746 430.57 22.4148 428.892 22.025C427.9 21.7962 427.413 21.9928 425.796 21.5868C424.308 21.2098 424.018 20.8651 423.442 20.9811C422.724 21.1261 421.806 21.9444 421.12 25.147C420.762 23.8969 419.973 23.0592 419.113 23.0077C418.978 22.998 418.581 23.0367 418.256 23.2461C417.084 24 417.312 25.9138 419.113 27.9339Z" fill="#202124" stroke="white"/>
<path d="M248.633 114.603C248.108 116.227 249 117.963 250.62 118.488L523.125 206.472C524.749 206.997 526.485 206.105 527.01 204.484C527.535 202.86 526.642 201.124 525.022 200.598L252.517 112.615C250.894 112.09 249.154 112.982 248.633 114.603Z" fill="white" stroke="white"/>
<path d="M445.395 176.898C445.395 176.898 452.371 179.804 457.228 180.239C462.085 180.674 463.329 184.473 462.063 185.958C460.797 187.44 453.048 186.283 450.406 184.969C447.765 183.657 445.395 176.898 445.395 176.898Z" fill="#202124" stroke="white"/>
<path d="M302.928 131.972C295.648 128.402 279.93 119.262 275.099 102.421C267.053 74.3839 295.668 47.6422 310.439 37.6382C327.371 26.165 344.39 24.3125 354.733 23.188C367.565 21.7897 375.395 20.9391 381.28 25.7591C396.492 38.2214 387.348 79.3456 372.287 83.5792C367.356 84.9646 365.491 81.3561 355.161 78.8688C351.795 78.0569 326.688 72.0062 313.631 85.2933C304.493 94.5916 303.324 111.258 309.779 126.836C307.492 128.547 305.208 130.258 302.928 131.972Z" fill="#202124" stroke="white"/>
<path d="M304.399 130.87L308.254 127.977C308.254 127.977 310.673 129.652 313.627 129.424C315.237 129.298 317.376 130.268 317.856 130.78C318.339 131.292 320.584 132.52 317.369 132.201C314.155 131.879 313.64 132.774 314.087 134.382C314.535 135.987 317.218 140.484 318.577 141.448C319.94 142.411 316.033 143.052 314.425 142.466C312.821 141.876 310.251 140.807 308.377 137.327C307.697 136.058 304.399 130.87 304.399 130.87Z" fill="#202124" stroke="white"/>
<path d="M515.694 205.244L518.106 197.65C518.428 196.636 519.514 196.075 520.525 196.397L542.714 203.447C545.7 204.394 548.08 206.604 549.253 209.51L552.767 218.232C553.417 219.846 552.638 221.679 551.024 222.33L546.563 224.128C544.949 224.779 543.117 223.996 542.466 222.385L539.068 213.947L516.489 206.772C515.842 206.569 515.491 205.886 515.694 205.244Z" fill="#FE9300" stroke="white"/>
</g>
</svg>
