<svg width="24" height="25" viewBox="0 0 24 25" fill="none" xmlns="http://www.w3.org/2000/svg">
<path d="M18.25 9.5C20.3077 9.5736 22.0549 11.1169 21.9987 13.1843C21.9856 13.6653 21.7993 14.2598 21.4266 15.4488C20.5298 18.3104 19.0226 20.7944 15.6462 21.3904C15.0255 21.5 14.3271 21.5 12.9303 21.5H11.0697C9.6729 21.5 8.9745 21.5 8.35384 21.3904C4.97739 20.7944 3.47018 18.3104 2.57336 15.4488C2.20072 14.2598 2.01439 13.6653 2.00132 13.1843C1.94512 11.1169 3.6923 9.5736 5.75001 9.5" fill="#FE9300"/>
<path d="M18.25 9.5C20.3077 9.5736 22.0549 11.1169 21.9987 13.1843C21.9856 13.6653 21.7993 14.2598 21.4266 15.4488C20.5298 18.3104 19.0226 20.7944 15.6462 21.3904C15.0255 21.5 14.3271 21.5 12.9303 21.5H11.0697C9.6729 21.5 8.9745 21.5 8.35384 21.3904C4.97739 20.7944 3.47018 18.3104 2.57336 15.4488C2.20072 14.2598 2.01439 13.6653 2.00132 13.1843C1.94512 11.1169 3.6923 9.5736 5.75001 9.5" stroke="#202124" stroke-linecap="round"/>
<path d="M12 14.5V3.5M12 14.5C11.2998 14.5 9.99153 12.5057 9.5 12M12 14.5C12.7002 14.5 14.0085 12.5057 14.5 12" stroke="#202124" stroke-linecap="round"/>
</svg>
