<svg width="44" height="52" viewBox="0 0 44 52" fill="none" xmlns="http://www.w3.org/2000/svg">
<path d="M1.10645 15.555C1.10645 11.7088 4.22441 8.59086 8.07062 8.59086H19.677C20.9594 8.59086 21.999 7.55129 21.999 6.26891C21.999 3.70415 24.0781 1.625 26.6429 1.625L35.9273 1.625C39.7735 1.625 42.8915 4.74297 42.8915 8.58917V43.4117C42.8915 47.2579 39.7735 50.3759 35.9273 50.3759H8.07063C4.22442 50.3759 1.10645 47.2579 1.10645 43.4117V15.555Z" stroke="#202124" stroke-width="1.5"/>
<path d="M5 5.10709C5 3.18398 6.55898 1.625 8.48209 1.625H11.9642C13.8873 1.625 15.4463 3.18398 15.4463 5.10709V8.58917H5V5.10709Z" fill="#FE9300" stroke="#202124" stroke-width="1.5"/>
<path d="M11.5532 33.267C11.5532 28.1677 15.9539 23.1285 19.0427 20.2195C20.7202 18.6397 23.2787 18.6397 24.9563 20.2195C28.045 23.1285 32.4457 28.1677 32.4457 33.267C32.4457 38.2667 28.4899 43.4093 21.9995 43.4093C15.509 43.4093 11.5532 38.2667 11.5532 33.267Z" fill="#FE9300" stroke="#202124" stroke-width="1.5"/>
</svg>
