<svg width="657" height="403" viewBox="0 0 657 403" fill="none" xmlns="http://www.w3.org/2000/svg">
<path d="M-300.392 35.151C-298.296 15.449 -281.675 0.502136 -261.861 0.502136H475.826C491.295 0.502136 506.318 5.68547 518.495 15.2244L582.732 65.5431H-303.625L-300.392 35.151Z" fill="#00B9FE"/>
<path d="M-303.625 89.0686H528.755C541.383 89.0686 553.719 85.2717 564.161 78.171L582.732 65.5431H-303.625V89.0686Z" fill="#00B9FE"/>
<path d="M582.732 65.5431L518.495 15.2244C506.318 5.68547 491.295 0.502136 475.826 0.502136H-261.861C-281.675 0.502136 -298.296 15.449 -300.392 35.151L-303.625 65.5431M582.732 65.5431H-303.625M582.732 65.5431L564.161 78.171C553.719 85.2717 541.383 89.0686 528.755 89.0686H-303.625V65.5431" stroke="#202124"/>
<rect x="-303.625" y="89.0686" width="640.723" height="169.522" fill="white" stroke="#202124"/>
<path d="M65.1719 138.195C65.1719 130.935 71.0578 125.049 78.3185 125.049H259.603C266.864 125.049 272.75 130.935 272.75 138.195V209.464C272.75 216.724 266.864 222.61 259.603 222.61H78.3185C71.0578 222.61 65.1719 216.724 65.1719 209.464V138.195Z" stroke="#202124"/>
<path d="M418.053 13.6486H460.587C470.039 13.6486 479.095 17.4399 485.727 24.1732L512.846 51.7045H418.053V13.6486Z" fill="white"/>
<path d="M355.779 13.6486H418.053V51.7045H355.779V13.6486Z" fill="white"/>
<path d="M418.053 13.6486H460.587C470.039 13.6486 479.095 17.4399 485.727 24.1732L512.846 51.7045H418.053M418.053 13.6486V51.7045M418.053 13.6486H355.779V51.7045H418.053" stroke="#202124"/>
<path d="M337.096 89.0686H495.547C495.547 89.0686 529.189 138.155 559.204 162.067C586.224 183.593 622.17 181.079 645.348 206.696C670.448 234.436 646.429 289.483 629.933 319.755C622.549 333.306 608.07 340.929 592.637 340.929H337.096L337.096 89.0686Z" stroke="#202124"/>
<path d="M-303.625 258.59H337.098V340.929H-264.185C-285.967 340.929 -303.625 323.271 -303.625 301.489V258.59Z" stroke="#202124"/>
<path d="M564.742 340.929C564.742 369.59 541.508 392.824 512.848 392.824C484.187 392.824 460.953 369.59 460.953 340.929C460.953 312.269 484.187 289.035 512.848 289.035C541.508 289.035 564.742 312.269 564.742 340.929Z" fill="white" stroke="#202124"/>
<path d="M16.7341 340.929C16.7341 369.59 -6.49979 392.824 -35.1603 392.824C-63.8208 392.824 -87.0547 369.59 -87.0547 340.929C-87.0547 312.269 -63.8208 289.035 -35.1603 289.035C-6.49979 289.035 16.7341 312.269 16.7341 340.929Z" fill="white" stroke="#202124"/>
<path d="M532.22 340.929C532.22 351.629 523.546 360.303 512.847 360.303C502.147 360.303 493.473 351.629 493.473 340.929C493.473 330.229 502.147 321.555 512.847 321.555C523.546 321.555 532.22 330.229 532.22 340.929Z" fill="white" stroke="#202124"/>
<path d="M355.086 107.059C355.086 107.059 445.036 97.3712 487.59 116.746C542.605 141.795 597.952 236.103 526.683 258.245C513.115 262.46 496.29 262.585 479.978 272.453C463.226 282.588 445.036 308.409 445.036 308.409L355.086 308.41V107.059Z" stroke="#202124"/>
<path d="M372.385 132.012C372.385 125.297 377.441 119.686 384.142 119.253C406.235 117.824 454.081 116.511 480.325 129.201C502.832 140.084 522.146 167.281 533.246 185.683C538.24 193.964 532.108 203.929 522.437 203.929H385.531C378.271 203.929 372.385 198.044 372.385 190.783V132.012Z" stroke="#202124"/>
<path d="M105.265 297.402H62.8896C59.3781 297.402 56.5318 294.557 56.5318 291.049V62.0798C56.5318 58.17 59.7033 55.0009 63.6159 55.0009H170.994L105.265 297.402Z" fill="white"/>
<path d="M62.8895 297.87H105.265C105.525 297.87 105.734 297.659 105.734 297.402C105.734 297.144 105.525 296.933 105.265 296.933H62.8895C59.6442 296.933 57.0027 294.294 57.0027 291.051V62.0797C57.0027 58.4358 59.9693 55.4692 63.618 55.4692H170.994C171.254 55.4692 171.463 55.2582 171.463 55.0008C171.463 54.7433 171.254 54.5323 170.994 54.5323H63.6159C59.4499 54.5323 56.061 57.9189 56.061 62.0819V291.051C56.061 294.811 59.1247 297.87 62.8895 297.87Z" fill="#202124"/>
<path d="M309.812 55.4351H62.2129C59.5294 55.4352 57.4963 57.8068 57.8594 60.4224L57.9023 60.6763L71.3506 128.413L110.89 313.294L165.671 311.226H359.042C361.812 311.226 363.888 308.699 363.353 305.986L314.123 58.9741C313.716 56.917 311.911 55.4351 309.812 55.4351Z" fill="white" stroke="#202124"/>
<path d="M166.928 312.197H237.445C237.705 312.197 237.914 311.986 237.914 311.728C237.914 311.471 237.705 311.26 237.445 311.26H166.93C166.67 311.26 166.461 311.471 166.461 311.728C166.461 311.986 166.668 312.197 166.928 312.197Z" fill="#202124"/>
<path d="M296.511 212.935H325.216C325.356 212.935 325.489 212.872 325.578 212.764C325.666 212.656 325.704 212.515 325.677 212.378L320.493 185.176C320.451 184.954 320.257 184.794 320.031 184.794H291.329C291.19 184.794 291.057 184.857 290.968 184.965C290.879 185.073 290.841 185.214 290.869 185.351L296.052 212.553C296.093 212.777 296.285 212.935 296.511 212.935ZM324.648 211.998H296.899L291.895 185.735H319.644L324.648 211.998Z" fill="#202124"/>
<path d="M264.218 212.935H292.923C293.063 212.935 293.196 212.872 293.285 212.764C293.373 212.656 293.411 212.515 293.384 212.378L288.2 185.176C288.158 184.954 287.964 184.794 287.738 184.794H259.034C258.895 184.794 258.762 184.857 258.673 184.965C258.584 185.073 258.546 185.214 258.574 185.351L263.757 212.553C263.8 212.777 263.994 212.935 264.218 212.935ZM292.356 211.998H264.606L259.602 185.735H287.351L292.356 211.998Z" fill="#202124"/>
<path d="M231.925 212.935H260.631C260.77 212.935 260.903 212.872 260.992 212.764C261.08 212.656 261.118 212.515 261.091 212.378L255.907 185.176C255.865 184.954 255.671 184.794 255.445 184.794H226.739C226.599 184.794 226.466 184.857 226.378 184.965C226.289 185.073 226.251 185.214 226.279 185.351L231.462 212.553C231.507 212.777 231.701 212.935 231.925 212.935ZM260.063 211.998H232.313L227.309 185.735H255.058L260.063 211.998Z" fill="#202124"/>
<path d="M199.632 212.935H228.338C228.477 212.935 228.61 212.872 228.699 212.764C228.787 212.656 228.825 212.515 228.798 212.378L223.614 185.176C223.572 184.954 223.378 184.794 223.152 184.794H194.448C194.309 184.794 194.176 184.857 194.087 184.965C193.998 185.073 193.96 185.214 193.988 185.351L199.171 212.553C199.212 212.777 199.406 212.935 199.632 212.935ZM227.767 211.998H200.018L195.014 185.735H222.763L227.767 211.998Z" fill="#202124"/>
<path d="M167.341 212.935H196.045C196.305 212.935 196.514 212.724 196.514 212.466C196.514 212.207 196.305 211.998 196.045 211.998H167.73L165.8 201.87C165.751 201.615 165.511 201.448 165.251 201.497C164.995 201.545 164.828 201.79 164.877 202.045L166.879 212.553C166.921 212.777 167.115 212.935 167.341 212.935Z" fill="#202124"/>
<path d="M196.043 212.935C196.072 212.935 196.102 212.933 196.132 212.926C196.387 212.878 196.554 212.633 196.505 212.378L191.322 185.176C191.279 184.954 191.085 184.794 190.859 184.794H182.964C182.705 184.794 182.495 185.005 182.495 185.262C182.495 185.52 182.705 185.731 182.964 185.731H190.468L195.578 212.551C195.625 212.779 195.821 212.935 196.043 212.935Z" fill="#202124"/>
<path d="M135.048 212.935H163.752C163.891 212.935 164.024 212.872 164.113 212.764C164.201 212.656 164.239 212.515 164.212 212.378L159.028 185.176C158.986 184.954 158.792 184.794 158.566 184.794H129.86C129.721 184.794 129.588 184.857 129.499 184.965C129.41 185.073 129.372 185.214 129.4 185.351L134.583 212.553C134.628 212.777 134.822 212.935 135.048 212.935ZM163.186 211.998H135.436L130.432 185.735H158.181L163.186 211.998Z" fill="#202124"/>
<path d="M102.755 212.935H131.461C131.6 212.935 131.733 212.872 131.822 212.764C131.91 212.656 131.948 212.515 131.921 212.378L126.737 185.176C126.695 184.954 126.501 184.794 126.275 184.794H97.571C97.4317 184.794 97.2986 184.857 97.21 184.965C97.1213 185.073 97.0833 185.214 97.1107 185.351L102.294 212.553C102.335 212.777 102.529 212.935 102.755 212.935ZM130.893 211.998H103.143L98.139 185.735H125.888L130.893 211.998Z" fill="#202124"/>
<path d="M302.253 243.342H330.959C331.098 243.342 331.231 243.279 331.32 243.171C331.408 243.063 331.446 242.922 331.419 242.785L326.235 215.583C326.193 215.361 325.999 215.201 325.773 215.201H297.067C296.928 215.201 296.795 215.264 296.706 215.372C296.617 215.48 296.579 215.621 296.607 215.758L301.79 242.96C301.835 243.182 302.027 243.342 302.253 243.342ZM330.391 242.403H302.641L297.637 216.14H325.386L330.391 242.403Z" fill="#202124"/>
<path d="M269.958 243.342H298.664C298.803 243.342 298.936 243.279 299.025 243.171C299.113 243.063 299.151 242.922 299.124 242.785L293.94 215.583C293.898 215.361 293.704 215.201 293.478 215.201H264.774C264.635 215.201 264.502 215.264 264.413 215.372C264.324 215.48 264.286 215.621 264.314 215.758L269.498 242.96C269.54 243.182 269.732 243.342 269.958 243.342ZM298.096 242.403H270.346L265.342 216.14H293.091L298.096 242.403Z" fill="#202124"/>
<path d="M237.667 243.342H266.373C266.512 243.342 266.645 243.279 266.734 243.171C266.822 243.063 266.86 242.922 266.833 242.785L261.649 215.583C261.607 215.361 261.413 215.201 261.187 215.201H232.483C232.344 215.201 232.211 215.264 232.122 215.372C232.033 215.48 231.995 215.621 232.023 215.758L237.207 242.96C237.249 243.182 237.443 243.342 237.667 243.342ZM265.805 242.403H238.055L233.051 216.14H260.8L265.805 242.403Z" fill="#202124"/>
<path d="M205.374 243.342H234.078C234.217 243.342 234.35 243.279 234.439 243.171C234.528 243.063 234.566 242.922 234.538 242.785L229.354 215.583C229.312 215.361 229.118 215.201 228.892 215.201H200.186C200.047 215.201 199.914 215.264 199.825 215.372C199.736 215.48 199.698 215.621 199.726 215.758L204.91 242.96C204.954 243.182 205.148 243.342 205.374 243.342ZM233.51 242.403H205.76L200.756 216.14H228.506L233.51 242.403Z" fill="#202124"/>
<path d="M173.081 243.342H201.787C201.926 243.342 202.059 243.279 202.148 243.171C202.237 243.063 202.275 242.922 202.247 242.785L197.063 215.583C197.021 215.361 196.827 215.201 196.601 215.201H167.897C167.758 215.201 167.625 215.264 167.536 215.372C167.447 215.48 167.409 215.621 167.437 215.758L172.621 242.96C172.661 243.182 172.855 243.342 173.081 243.342ZM201.219 242.403H173.469L168.465 216.14H196.215L201.219 242.403Z" fill="#202124"/>
<path d="M140.79 243.342H169.494C169.633 243.342 169.766 243.279 169.855 243.171C169.944 243.063 169.982 242.922 169.954 242.785L164.77 215.583C164.728 215.361 164.534 215.201 164.308 215.201H135.604C135.465 215.201 135.332 215.264 135.243 215.372C135.154 215.48 135.116 215.621 135.144 215.758L140.328 242.96C140.37 243.182 140.564 243.342 140.79 243.342ZM168.928 242.403H141.179L136.174 216.14H163.924L168.928 242.403Z" fill="#202124"/>
<path d="M108.497 243.342H137.201C137.34 243.342 137.473 243.279 137.562 243.171C137.651 243.063 137.689 242.922 137.661 242.785L132.477 215.583C132.435 215.361 132.241 215.201 132.015 215.201H103.309C103.17 215.201 103.037 215.264 102.948 215.372C102.859 215.48 102.821 215.621 102.849 215.758L108.033 242.96C108.077 243.182 108.271 243.342 108.497 243.342ZM136.635 242.403H108.886L103.881 216.14H131.631L136.635 242.403Z" fill="#202124"/>
<path d="M285.028 152.125H313.734C313.873 152.125 314.006 152.062 314.095 151.954C314.184 151.847 314.222 151.705 314.194 151.568L309.011 124.366C308.968 124.145 308.774 123.984 308.548 123.984H279.842C279.703 123.984 279.57 124.048 279.481 124.155C279.393 124.263 279.355 124.404 279.382 124.542L284.566 151.743C284.61 151.965 284.804 152.125 285.028 152.125ZM313.166 151.186H285.417L280.412 124.923H308.162L313.166 151.186Z" fill="#202124"/>
<path d="M252.722 152.098H281.425C281.565 152.098 281.698 152.034 281.787 151.927C281.875 151.819 281.913 151.678 281.886 151.541L276.702 124.339C276.66 124.117 276.466 123.957 276.24 123.957H247.536C247.397 123.957 247.263 124.02 247.175 124.128C247.086 124.235 247.048 124.377 247.076 124.514L252.259 151.716C252.302 151.937 252.496 152.098 252.722 152.098ZM280.86 151.159H253.11L248.106 124.896H275.855L280.86 151.159Z" fill="#202124"/>
<path d="M249.148 151.657L243.965 124.453H215.261L220.445 151.657H249.148Z" fill="#202124"/>
<path d="M188.152 152.125H202.548C202.808 152.125 203.017 151.914 203.017 151.657C203.017 151.4 202.808 151.189 202.548 151.189H188.54L183.536 124.926H211.286L214.36 141.065C214.408 141.32 214.653 141.487 214.909 141.438C215.164 141.39 215.331 141.145 215.283 140.89L212.134 124.371C212.092 124.149 211.898 123.989 211.672 123.989H182.966C182.827 123.989 182.694 124.052 182.605 124.16C182.516 124.267 182.478 124.409 182.506 124.546L187.69 151.748C187.732 151.965 187.926 152.125 188.152 152.125Z" fill="#202124"/>
<path d="M175.204 152.125H184.562C184.822 152.125 185.031 151.914 185.031 151.657C185.031 151.399 184.822 151.188 184.562 151.188H175.204C174.945 151.188 174.736 151.399 174.736 151.657C174.736 151.914 174.945 152.125 175.204 152.125Z" fill="#202124"/>
<path d="M184.564 152.125C184.594 152.125 184.623 152.123 184.653 152.117C184.909 152.068 185.075 151.824 185.027 151.568L179.843 124.366C179.801 124.145 179.607 123.984 179.381 123.984H160.335C160.075 123.984 159.866 124.195 159.866 124.453C159.866 124.712 160.075 124.921 160.335 124.921H178.992L184.102 151.741C184.146 151.969 184.345 152.125 184.564 152.125Z" fill="#202124"/>
<path d="M91.2725 152.125H119.976C120.116 152.125 120.249 152.062 120.337 151.954C120.426 151.847 120.464 151.705 120.437 151.568L115.253 124.366C115.211 124.145 115.016 123.984 114.79 123.984H86.0846C85.9452 123.984 85.8121 124.048 85.7235 124.155C85.6348 124.263 85.5968 124.404 85.6242 124.542L90.808 151.743C90.8544 151.965 91.0466 152.125 91.2725 152.125ZM119.41 151.186H91.661L86.6568 124.923H114.406L119.41 151.186Z" fill="#202124"/>
<path d="M290.768 182.53H319.474C319.614 182.53 319.747 182.467 319.835 182.359C319.924 182.252 319.962 182.11 319.935 181.973L314.751 154.771C314.709 154.55 314.514 154.389 314.288 154.389H285.585C285.445 154.389 285.312 154.453 285.224 154.56C285.135 154.668 285.097 154.809 285.124 154.946L290.308 182.148C290.35 182.37 290.545 182.53 290.768 182.53ZM318.906 181.591H291.157L286.153 155.328H313.902L318.906 181.591Z" fill="#202124"/>
<path d="M258.475 182.53H287.181C287.321 182.53 287.454 182.467 287.542 182.359C287.631 182.252 287.669 182.11 287.642 181.973L282.458 154.771C282.416 154.55 282.221 154.389 281.995 154.389H253.29C253.15 154.389 253.017 154.453 252.929 154.56C252.84 154.668 252.802 154.809 252.829 154.946L258.013 182.148C258.057 182.37 258.252 182.53 258.475 182.53ZM286.613 181.591H258.864L253.86 155.328H281.609L286.613 181.591Z" fill="#202124"/>
<path d="M226.181 182.53H254.886C255.026 182.53 255.159 182.467 255.247 182.359C255.336 182.252 255.374 182.11 255.347 181.973L250.163 154.771C250.121 154.55 249.926 154.389 249.701 154.389H220.997C220.857 154.389 220.724 154.453 220.636 154.56C220.547 154.668 220.509 154.809 220.536 154.946L225.72 182.148C225.762 182.37 225.957 182.53 226.181 182.53ZM254.318 181.591H226.569L221.565 155.328H249.314L254.318 181.591Z" fill="#202124"/>
<path d="M205.651 182.53H222.596C222.855 182.53 223.064 182.319 223.064 182.062C223.064 181.802 222.855 181.593 222.596 181.593H205.651C205.391 181.593 205.182 181.804 205.182 182.062C205.18 182.321 205.391 182.53 205.651 182.53Z" fill="#202124"/>
<path d="M222.594 182.53C222.623 182.53 222.653 182.528 222.682 182.522C222.938 182.473 223.105 182.228 223.056 181.973L219.572 163.686C219.524 163.431 219.281 163.262 219.023 163.312C218.768 163.361 218.601 163.606 218.649 163.861L222.133 182.148C222.176 182.374 222.372 182.53 222.594 182.53Z" fill="#202124"/>
<path d="M97.3954 182.53H126.101C126.241 182.53 126.374 182.467 126.462 182.359C126.551 182.252 126.589 182.11 126.562 181.973L121.378 154.771C121.336 154.55 121.141 154.389 120.915 154.389H92.2116C92.0723 154.389 91.9393 154.453 91.8506 154.56C91.7619 154.668 91.7239 154.809 91.7513 154.946L96.9351 182.148C96.9752 182.37 97.1695 182.53 97.3954 182.53ZM125.533 181.591H97.7839L92.7796 155.328H120.529L125.533 181.591Z" fill="#202124"/>
<path d="M158.01 182.062L152.828 154.86H124.122L129.306 182.062H158.01Z" fill="white"/>
<path d="M262.36 54.9227C262.62 54.9227 262.829 54.7117 262.829 54.4543C262.829 49.8397 264.326 45.4826 267.157 41.8535C267.316 41.6488 267.28 41.3534 267.075 41.1951C266.87 41.0348 266.574 41.0728 266.416 41.2774C263.454 45.0733 261.889 49.6308 261.889 54.4564C261.891 54.7117 262.1 54.9227 262.36 54.9227Z" fill="#202124"/>
<path d="M283.359 75.9043C295.196 75.9043 304.826 66.2807 304.826 54.4522C304.826 42.6236 295.196 33 283.359 33C278.874 33 274.577 34.3673 270.934 36.9562C270.723 37.106 270.673 37.3993 270.823 37.6103C270.972 37.8213 271.266 37.8719 271.477 37.72C274.961 35.245 279.068 33.9389 283.356 33.9389C294.676 33.9389 303.884 43.1406 303.884 54.4522C303.884 65.7638 294.676 74.9654 283.356 74.9654C283.097 74.9654 282.888 75.1764 282.888 75.4338C282.888 75.6954 283.099 75.9043 283.359 75.9043Z" fill="#202124"/>
<path d="M234.231 54.9225C234.491 54.9225 234.7 54.7115 234.7 54.4541C234.7 49.7277 236.262 45.2862 239.218 41.6106C239.381 41.4081 239.349 41.1127 239.147 40.9502C238.944 40.7877 238.648 40.8194 238.486 41.0219C235.437 44.8115 233.758 49.58 233.758 54.452C233.76 54.7115 233.971 54.9225 234.231 54.9225Z" fill="#202124"/>
<path d="M255.228 75.9043C267.065 75.9043 276.695 66.2807 276.695 54.4522C276.695 42.6236 267.065 33 255.228 33C250.992 33 246.896 34.2322 243.38 36.5616C243.165 36.7051 243.106 36.9963 243.249 37.2115C243.393 37.4267 243.684 37.4858 243.899 37.3423C247.261 35.1142 251.178 33.9389 255.228 33.9389C266.547 33.9389 275.756 43.1406 275.756 54.4522C275.756 65.7638 266.547 74.9654 255.228 74.9654C254.968 74.9654 254.759 75.1764 254.759 75.4338C254.759 75.6954 254.968 75.9043 255.228 75.9043Z" fill="#202124"/>
<path d="M206.099 54.9227C206.358 54.9227 206.568 54.7118 206.568 54.4543C206.568 49.7174 208.223 45.0945 211.225 41.4421C211.39 41.2416 211.361 40.9462 211.16 40.7817C210.959 40.6171 210.664 40.6466 210.499 40.8471C207.357 44.6682 205.628 49.5022 205.628 54.4564C205.63 54.7117 205.839 54.9227 206.099 54.9227Z" fill="#202124"/>
<path d="M227.097 75.9043C238.934 75.9043 248.564 66.2807 248.564 54.4522C248.564 42.6236 238.934 33 227.097 33C222.684 33 218.442 34.3293 214.833 36.8423C214.62 36.99 214.569 37.2833 214.717 37.4964C214.865 37.7095 215.158 37.7622 215.372 37.6124C218.822 35.2091 222.876 33.9389 227.097 33.9389C238.417 33.9389 247.625 43.1406 247.625 54.4522C247.625 65.7638 238.417 74.9654 227.097 74.9654C226.837 74.9654 226.628 75.1764 226.628 75.4338C226.626 75.6954 226.837 75.9043 227.097 75.9043Z" fill="#202124"/>
<path d="M177.97 54.9227C178.23 54.9227 178.439 54.7117 178.439 54.4543C178.439 49.6499 180.134 44.9784 183.215 41.3007C183.382 41.1024 183.354 40.8048 183.156 40.6403C182.955 40.4736 182.66 40.501 182.495 40.6993C179.275 44.5458 177.499 49.4326 177.499 54.4564C177.501 54.7117 177.71 54.9227 177.97 54.9227Z" fill="#202124"/>
<path d="M198.966 75.9043C210.803 75.9043 220.434 66.2807 220.434 54.4522C220.434 42.6236 210.803 33 198.966 33C194.665 33 190.514 34.266 186.964 36.6629C186.749 36.8085 186.692 37.0997 186.838 37.3149C186.983 37.5301 187.275 37.5871 187.49 37.4415C190.885 35.1501 194.853 33.9389 198.966 33.9389C210.286 33.9389 219.494 43.1406 219.494 54.4522C219.494 65.7638 210.286 74.9654 198.966 74.9654C198.706 74.9654 198.497 75.1764 198.497 75.4338C198.497 75.6954 198.706 75.9043 198.966 75.9043Z" fill="#202124"/>
<path d="M149.839 54.9226C150.099 54.9226 150.308 54.7117 150.308 54.4542C150.308 49.7722 151.845 45.3644 154.75 41.7078C154.911 41.5053 154.877 41.2099 154.674 41.0474C154.472 40.8849 154.176 40.9208 154.013 41.1234C150.973 44.9488 149.366 49.5591 149.366 54.4542C149.368 54.7117 149.579 54.9226 149.839 54.9226Z" fill="#202124"/>
<path d="M170.837 75.9043C182.674 75.9043 192.305 66.2807 192.305 54.4522C192.305 42.6236 182.674 33 170.837 33C166.553 33 162.416 34.2575 158.875 36.6376C158.66 36.7832 158.603 37.0744 158.747 37.2896C158.89 37.5048 159.184 37.5618 159.399 37.4183C162.786 35.1437 166.741 33.9411 170.837 33.9411C182.157 33.9411 191.365 43.1427 191.365 54.4543C191.365 65.7659 182.157 74.9675 170.837 74.9675C170.577 74.9675 170.368 75.1785 170.368 75.4359C170.368 75.6955 170.577 75.9043 170.837 75.9043Z" fill="#202124"/>
<path d="M121.708 54.9225C121.967 54.9225 122.176 54.7115 122.176 54.4541C122.176 49.7973 123.699 45.4086 126.577 41.7625C126.737 41.56 126.703 41.2646 126.498 41.1042C126.294 40.9439 125.998 40.9776 125.84 41.1823C122.829 44.9971 121.237 49.5863 121.237 54.4562C121.239 54.7115 121.448 54.9225 121.708 54.9225Z" fill="#202124"/>
<path d="M142.706 75.9043C154.543 75.9043 164.174 66.2807 164.174 54.4522C164.174 42.6236 154.543 33 142.706 33C138.519 33 134.463 34.2048 130.977 36.4836C130.759 36.6249 130.698 36.9161 130.84 37.1335C130.981 37.3508 131.272 37.412 131.49 37.2685C134.824 35.0889 138.703 33.9389 142.706 33.9389C154.026 33.9389 163.234 43.1406 163.234 54.4522C163.234 65.7638 154.026 74.9654 142.706 74.9654C142.446 74.9654 142.237 75.1764 142.237 75.4338C142.235 75.6954 142.446 75.9043 142.706 75.9043Z" fill="#202124"/>
<path d="M93.5757 54.9228C93.8355 54.9228 94.0445 54.7118 94.0445 54.4544C94.0445 49.7428 95.683 45.143 98.656 41.4991C98.8207 41.2987 98.789 41.0033 98.5884 40.8387C98.3857 40.6741 98.0922 40.7057 97.9275 40.9062C94.8173 44.7168 93.1049 49.5297 93.1049 54.4565C93.1049 54.7118 93.316 54.9228 93.5757 54.9228Z" fill="#202124"/>
<path d="M114.571 75.9043C126.409 75.9043 136.039 66.2807 136.039 54.4522C136.039 42.6236 126.409 33 114.571 33C110.403 33 106.362 34.1942 102.882 36.4561C102.665 36.5975 102.603 36.8887 102.745 37.106C102.886 37.3234 103.178 37.3845 103.395 37.2432C106.721 35.0825 110.587 33.9389 114.571 33.9389C125.891 33.9389 135.099 43.1406 135.099 54.4522C135.099 65.7638 125.891 74.9654 114.571 74.9654C114.312 74.9654 114.103 75.1764 114.103 75.4338C114.103 75.6954 114.312 75.9043 114.571 75.9043Z" fill="#202124"/>
<path d="M86.4445 75.9043C98.2816 75.9043 107.912 66.2807 107.912 54.4522C107.912 42.6236 98.2816 33 86.4445 33C74.6074 33 64.9769 42.6236 64.9769 54.4522C64.9769 54.7117 65.1859 54.9206 65.4456 54.9206C65.7053 54.9206 65.9144 54.7096 65.9144 54.4522C65.9144 43.1406 75.1226 33.9389 86.4424 33.9389C97.7621 33.9389 106.97 43.1406 106.97 54.4522C106.97 65.7638 97.7621 74.9654 86.4424 74.9654C86.1827 74.9654 85.9736 75.1764 85.9736 75.4338C85.9736 75.6954 86.1848 75.9043 86.4445 75.9043Z" fill="#202124"/>
<path d="M282.951 79.7382C284.169 79.7382 285.343 79.2234 286.167 78.3245C286.342 78.1346 286.329 77.8371 286.139 77.662C285.947 77.4868 285.652 77.4995 285.476 77.6894C284.828 78.3941 283.908 78.7993 282.951 78.7993C281.061 78.7993 279.524 77.2632 279.524 75.3748C279.524 73.4863 281.061 71.9524 282.951 71.9524C284.041 71.9524 285.075 72.4778 285.719 73.3576C285.873 73.5665 286.167 73.6129 286.376 73.4589C286.585 73.307 286.631 73.0116 286.477 72.8027C285.658 71.6823 284.338 71.0134 282.951 71.0134C280.544 71.0134 278.587 72.9694 278.587 75.3748C278.587 77.7822 280.544 79.7382 282.951 79.7382Z" fill="#202124"/>
<path d="M255.31 79.7383C256.529 79.7383 257.701 79.2235 258.526 78.3246C258.701 78.1347 258.689 77.8372 258.499 77.6621C258.307 77.487 258.011 77.4996 257.836 77.6895C257.188 78.3943 256.267 78.7994 255.31 78.7994C253.421 78.7994 251.883 77.2633 251.883 75.3749C251.883 73.4864 253.421 71.9525 255.31 71.9525C256.4 71.9525 257.435 72.4779 258.079 73.3577C258.233 73.5666 258.526 73.613 258.735 73.459C258.944 73.3071 258.991 73.0117 258.837 72.8028C258.017 71.6824 256.698 71.0135 255.31 71.0135C252.903 71.0135 250.946 72.9695 250.946 75.3749C250.944 77.7824 252.901 79.7383 255.31 79.7383Z" fill="#202124"/>
<path d="M227.666 79.7382C228.886 79.7382 230.058 79.2234 230.882 78.3245C231.057 78.1325 231.044 77.8371 230.852 77.662C230.662 77.4868 230.364 77.4995 230.189 77.6894C229.541 78.3941 228.622 78.7993 227.666 78.7993C225.776 78.7993 224.239 77.2632 224.239 75.3748C224.239 73.4863 225.776 71.9524 227.666 71.9524C228.755 71.9524 229.79 72.4778 230.434 73.3576C230.588 73.5665 230.882 73.6129 231.091 73.4589C231.3 73.307 231.346 73.0116 231.192 72.8027C230.373 71.6823 229.053 71.0134 227.666 71.0134C225.259 71.0134 223.301 72.9694 223.301 75.3748C223.299 77.7822 225.259 79.7382 227.666 79.7382Z" fill="#202124"/>
<path d="M199.224 79.7383C200.443 79.7383 201.615 79.2235 202.44 78.3246C202.616 78.1347 202.603 77.8372 202.413 77.6621C202.223 77.487 201.925 77.4996 201.75 77.6895C201.102 78.3943 200.181 78.7994 199.224 78.7994C197.335 78.7994 195.798 77.2633 195.798 75.3749C195.798 73.4864 197.335 71.9525 199.224 71.9525C200.314 71.9525 201.349 72.4779 201.993 73.3577C202.147 73.5666 202.44 73.613 202.649 73.459C202.858 73.3071 202.905 73.0117 202.751 72.8028C201.931 71.6824 200.612 71.0135 199.224 71.0135C196.817 71.0135 194.86 72.9695 194.86 75.3749C194.86 77.7824 196.817 79.7383 199.224 79.7383Z" fill="#202124"/>
<path d="M171.289 79.7382C172.509 79.7382 173.681 79.2234 174.507 78.3245C174.682 78.1325 174.669 77.8371 174.477 77.662C174.287 77.4868 173.989 77.4995 173.814 77.6894C173.166 78.3941 172.247 78.7993 171.291 78.7993C169.401 78.7993 167.864 77.2632 167.864 75.3748C167.864 73.4863 169.401 71.9524 171.291 71.9524C172.38 71.9524 173.415 72.4778 174.059 73.3576C174.213 73.5665 174.507 73.6129 174.716 73.4589C174.925 73.307 174.971 73.0116 174.817 72.8027C173.998 71.6823 172.678 71.0134 171.291 71.0134C168.884 71.0134 166.926 72.9694 166.926 75.3748C166.924 77.7822 168.882 79.7382 171.289 79.7382Z" fill="#202124"/>
<path d="M142.017 79.7383C143.238 79.7383 144.41 79.2235 145.233 78.3246C145.408 78.1326 145.396 77.8372 145.204 77.6621C145.014 77.487 144.716 77.4996 144.541 77.6895C143.892 78.3943 142.974 78.7994 142.017 78.7994C140.128 78.7994 138.59 77.2633 138.59 75.3749C138.59 73.4864 140.128 71.9525 142.017 71.9525C143.107 71.9525 144.142 72.4779 144.786 73.3577C144.94 73.5666 145.233 73.613 145.442 73.459C145.651 73.3071 145.698 73.0117 145.544 72.8028C144.724 71.6824 143.405 71.0135 142.017 71.0135C139.61 71.0135 137.653 72.9695 137.653 75.3749C137.653 77.7824 139.61 79.7383 142.017 79.7383Z" fill="#202124"/>
<path d="M114.371 79.7382C115.589 79.7382 116.763 79.2234 117.589 78.3245C117.764 78.1346 117.751 77.8371 117.561 77.662C117.371 77.4868 117.074 77.4995 116.898 77.6894C116.25 78.3941 115.329 78.7993 114.373 78.7993C112.483 78.7993 110.948 77.2632 110.948 75.3748C110.948 73.4863 112.485 71.9524 114.373 71.9524C115.462 71.9524 116.497 72.4778 117.141 73.3576C117.295 73.5665 117.589 73.6129 117.798 73.4589C118.007 73.307 118.053 73.0116 117.899 72.8027C117.08 71.6823 115.76 71.0134 114.373 71.0134C111.966 71.0134 110.008 72.9694 110.008 75.3748C110.006 77.7822 111.964 79.7382 114.371 79.7382Z" fill="#202124"/>
<path d="M86.7282 79.7383C87.9487 79.7383 89.1206 79.2235 89.9462 78.3246C90.1214 78.1326 90.1087 77.8372 89.9166 77.6621C89.7266 77.487 89.4288 77.4996 89.2536 77.6895C88.6053 78.3943 87.6869 78.7994 86.7303 78.7994C84.8406 78.7994 83.3034 77.2633 83.3034 75.3749C83.3034 73.4864 84.8406 71.9525 86.7303 71.9525C87.8199 71.9525 88.8545 72.4779 89.4985 73.3577C89.6527 73.5666 89.9462 73.613 90.1552 73.459C90.3642 73.3071 90.4107 73.0117 90.2565 72.8028C89.4373 71.6824 88.1176 71.0135 86.7303 71.0135C84.3232 71.0135 82.3659 72.9695 82.3659 75.3749C82.3616 77.7824 84.3211 79.7383 86.7282 79.7383Z" fill="#202124"/>
<path d="M150.066 151.553C150.066 151.553 147.283 150.247 147.944 145.726C147.946 145.713 147.936 145.696 147.921 145.677L149.714 135.281L138.677 132.431L136.555 143.856C136.01 146.787 134.048 149.296 131.28 150.374C130.554 150.657 129.754 150.899 128.873 151.096C127.929 151.307 127.465 152.193 128.563 153.026C134.424 157.474 144.519 155.744 149.716 154.144C151.228 153.68 151.447 152.298 150.066 151.553Z" fill="white"/>
<path d="M138.768 156.326C143.814 156.326 148.485 155.016 149.86 154.592C150.784 154.307 151.378 153.695 151.452 152.954C151.521 152.248 151.089 151.57 150.292 151.142C150.286 151.138 150.278 151.136 150.271 151.131C150.164 151.079 147.816 149.878 148.413 145.795C148.42 145.751 148.422 145.696 148.411 145.635L150.183 135.361C150.225 135.121 150.075 134.889 149.836 134.828L138.8 131.977C138.673 131.945 138.54 131.964 138.43 132.036C138.32 132.106 138.244 132.217 138.221 132.346L136.099 143.772C135.577 146.582 133.669 148.943 131.116 149.937C130.4 150.216 129.612 150.452 128.776 150.638C128.101 150.787 127.609 151.22 127.488 151.766C127.416 152.098 127.423 152.75 128.284 153.402C131.228 155.632 135.096 156.326 138.768 156.326ZM149.855 151.971C150.307 152.218 150.548 152.541 150.516 152.862C150.483 153.208 150.126 153.528 149.583 153.695C147.284 154.402 135.476 157.677 128.852 152.651C128.531 152.408 128.365 152.15 128.407 151.963C128.445 151.783 128.677 151.619 128.981 151.551C129.864 151.355 130.696 151.106 131.456 150.809C134.308 149.699 136.441 147.068 137.022 143.941L139.051 133.011L149.182 135.629L147.463 145.599C147.453 145.658 147.455 145.719 147.467 145.778C146.844 150.374 149.598 151.845 149.855 151.971ZM147.482 145.658C147.482 145.66 147.482 145.66 147.482 145.662C147.482 145.66 147.482 145.658 147.482 145.658Z" fill="#202124"/>
<path d="M152.112 114.221C148.985 114.306 153.164 117.178 141.373 114.795C136.677 113.846 139.441 119.003 138.223 118.76C133.721 117.863 133.875 117.889 131.776 118.636C130.387 119.129 129.68 121.83 130.108 123.765C130.676 126.318 132.862 126.805 135.203 132.106C136.846 135.828 136.715 138.185 138.299 138.615C139.899 139.048 140.873 136.866 142.657 137.205C144.965 137.646 144.844 141.592 147.173 143.027C148.643 143.93 151.903 144.13 156.859 141.179C157.661 140.7 158.014 139.712 157.691 138.832C157.277 137.703 156.749 136.281 156.13 134.967C153.181 128.694 150.754 127.426 151.449 125.677C152.515 122.997 157.499 124.058 158.128 121.876C158.78 119.608 156.394 114.103 152.112 114.221Z" fill="#202124"/>
<path d="M141.669 124.385L142.697 125.974C143.182 126.723 143.613 127.502 143.991 128.31C144.699 129.825 145.936 132.422 146.738 133.823C147.919 135.882 154.534 132.682 154.534 132.682L154.836 131.323L155.604 130.93C155.752 130.854 155.887 130.747 155.978 130.608C156.206 130.257 156.17 129.823 155.927 129.519C154.595 127.865 151.791 124.136 150.606 120.674C150.606 120.674 145.425 119.796 141.669 124.385Z" fill="white"/>
<path d="M148.426 134.982C150.698 134.982 153.907 133.505 154.737 133.104C154.866 133.041 154.961 132.922 154.99 132.783L155.244 131.639L155.814 131.348C156.048 131.228 156.24 131.061 156.369 130.863C156.701 130.355 156.669 129.696 156.289 129.226C155.105 127.757 152.224 123.97 151.046 120.522C150.991 120.36 150.85 120.239 150.681 120.212C150.459 120.174 145.187 119.343 141.302 124.088C141.173 124.246 141.16 124.47 141.27 124.641L142.298 126.229C142.769 126.957 143.194 127.723 143.561 128.508C144.241 129.964 145.504 132.621 146.325 134.055C146.716 134.731 147.493 134.982 148.426 134.982ZM154.125 132.355C151.542 133.568 147.79 134.716 147.144 133.589C146.34 132.184 145.09 129.553 144.416 128.109C144.032 127.287 143.586 126.481 143.09 125.717L142.25 124.421C145.29 120.938 149.209 121.014 150.259 121.104C151.487 124.478 154.091 127.991 155.558 129.812C155.681 129.966 155.691 130.181 155.582 130.35C155.544 130.411 155.476 130.466 155.387 130.511L154.621 130.903C154.496 130.966 154.408 131.082 154.376 131.22L154.125 132.355Z" fill="#202124"/>
<path d="M138.776 127.844C140.699 126.371 142.916 129.414 143.778 130.783C144.002 131.14 143.881 131.608 143.516 131.817C142.682 132.294 141.162 132.933 139.848 132.262C135.931 130.258 138.776 127.844 138.776 127.844Z" fill="white"/>
<path d="M161.04 119.237C161.04 119.237 146.678 132.838 128.698 137.047C113.039 140.715 125.807 124.442 138.759 116.975C157.93 105.925 171.331 107.691 161.04 119.237Z" fill="white"/>
<path d="M124.859 138.048C125.948 138.048 127.268 137.868 128.809 137.505C146.704 133.315 161.221 119.714 161.367 119.579C161.377 119.57 161.386 119.56 161.394 119.549C165.811 114.593 165.467 111.994 164.403 110.685C161.502 107.124 150.619 109.599 138.531 116.568C129.318 121.881 119.508 132.019 121.193 136.279C121.658 137.457 122.887 138.048 124.859 138.048ZM160.706 118.91C160.182 119.4 145.995 132.517 128.594 136.592C124.895 137.459 122.576 137.225 122.065 135.935C120.741 132.591 129.762 122.708 138.997 117.382C151.624 110.103 161.46 108.563 163.672 111.278C164.836 112.705 163.755 115.486 160.706 118.91Z" fill="#202124"/>
<path d="M152.326 121.358C154.104 119.592 154.436 117.064 153.112 115.329C150.236 111.561 145.133 107.105 141.296 107.217C137.029 107.341 131.653 110.647 129.391 113.591C126.923 116.804 128.283 122.963 131.264 127.673C133.908 131.846 144.573 129.059 152.326 121.358Z" fill="white"/>
<path d="M135.8 130.08C140.737 130.08 147.612 126.7 152.656 121.693C154.601 119.762 154.949 116.967 153.484 115.049C150.372 110.972 145.226 106.63 141.282 106.752C136.86 106.881 131.37 110.246 129.018 113.31C126.229 116.941 128.021 123.434 130.866 127.928C131.607 129.099 132.939 129.825 134.717 130.025C135.065 130.059 135.428 130.08 135.8 130.08ZM141.438 107.685C144.884 107.685 149.711 111.647 152.739 115.614C153.915 117.154 153.6 119.429 151.995 121.024C146.06 126.919 138.86 129.544 134.825 129.086C133.319 128.918 132.255 128.356 131.662 127.422C128.9 123.058 127.363 117.005 129.765 113.878C131.94 111.046 137.217 107.807 141.311 107.687C141.351 107.685 141.393 107.685 141.438 107.685Z" fill="#202124"/>
<path d="M131.207 116.96C131.219 116.96 131.234 116.96 131.247 116.958C138.567 116.344 141.819 110.63 141.952 110.388C142.079 110.162 141.997 109.877 141.769 109.751C141.543 109.624 141.258 109.706 141.131 109.932C141.099 109.987 137.974 115.452 131.167 116.024C130.909 116.045 130.717 116.272 130.738 116.53C130.759 116.777 130.964 116.96 131.207 116.96Z" fill="#202124"/>
<path d="M232.119 133.863C233.262 132.77 233.572 131.743 233.532 130.903C233.477 129.768 232.128 129.204 231.256 129.93L220.5 138.879C219.393 139.801 218.623 141.067 218.314 142.476C218.314 142.476 217.685 146.196 215.742 147.95C215.742 147.95 203.663 157.59 191.359 158.457C185.459 158.873 178.293 156.98 177.421 157.065L174.448 179.72C174.919 179.65 185.041 180.815 190.193 180.568C210.89 179.582 221.779 150.264 221.919 150.226C223.302 149.851 228.836 148.066 229.949 143.322C230.434 141.25 229.657 139.415 229.003 138.324C228.614 137.678 228.741 136.849 229.307 136.349L232.119 133.863Z" fill="white"/>
<path d="M188.604 181.07C189.181 181.07 189.723 181.059 190.22 181.036C207.815 180.199 218.417 159.649 222.158 150.855C222.198 150.762 222.232 150.684 222.257 150.621C224.139 150.079 229.297 148.173 230.41 143.43C230.923 141.24 230.148 139.314 229.409 138.083C229.137 137.632 229.228 137.052 229.62 136.701L232.435 134.214C232.439 134.209 232.443 134.205 232.45 134.201C233.537 133.161 234.061 132.043 234.006 130.878C233.972 130.184 233.554 129.576 232.912 129.293C232.258 129.006 231.51 129.11 230.961 129.565L220.205 138.514C219.023 139.497 218.191 140.866 217.861 142.373C217.851 142.43 217.23 145.977 215.433 147.597C215.336 147.675 203.343 157.139 191.33 157.987C187.183 158.28 182.464 157.426 179.643 156.917C178.292 156.672 177.682 156.569 177.38 156.594C177.162 156.615 176.987 156.784 176.959 157.001L173.986 179.656C173.967 179.802 174.018 179.95 174.124 180.053C174.229 180.156 174.377 180.205 174.523 180.182C174.666 180.177 175.72 180.268 176.837 180.365C179.761 180.623 184.873 181.07 188.604 181.07ZM231.804 133.517L228.995 135.999C228.263 136.646 228.096 137.727 228.6 138.567C229.251 139.649 229.935 141.333 229.494 143.217C228.429 147.758 222.897 149.475 221.799 149.775C221.569 149.838 221.544 149.899 221.293 150.488C217.621 159.12 207.238 179.285 190.173 180.099C186.527 180.272 180.272 179.726 176.915 179.433C175.944 179.348 175.353 179.298 174.983 179.27L177.831 157.563C178.226 157.618 178.858 157.732 179.474 157.843C182.337 158.36 187.133 159.225 191.394 158.926C203.702 158.056 215.917 148.414 216.037 148.315C218.1 146.456 218.752 142.713 218.78 142.554C219.061 141.274 219.781 140.088 220.803 139.24L231.559 130.291C231.835 130.061 232.198 130.011 232.53 130.158C232.849 130.298 233.047 130.585 233.064 130.928C233.106 131.802 232.682 132.676 231.804 133.517Z" fill="#202124"/>
<path d="M91.0372 243.513C91.0372 243.513 87.8467 222.464 96.0668 205.679L104.264 191.261L90.0786 182.691C87.3273 187.864 80.4628 202.332 79.9561 208.171C78.4654 225.354 84.1242 245.034 84.1242 245.034L83.0558 247.279C81.9177 249.668 81.7931 252.413 82.7074 254.894L86.318 264.682C87.3886 265.879 89.0566 264.876 88.949 263.275C88.7188 259.861 88.9131 256.426 89.0778 254.447C89.1685 253.35 89.462 252.282 89.9392 251.29C90.2433 250.661 91.109 250.579 91.5419 251.128L93.0284 252.457C93.723 253.337 94.9857 253.613 95.9275 253.004C97.0065 252.305 97.2302 250.858 96.4596 249.877L91.0372 243.513Z" fill="white"/>
<path d="M87.4083 265.674C87.6427 265.674 87.8792 265.627 88.1094 265.53C88.9603 265.172 89.486 264.252 89.4185 263.241C89.1862 259.781 89.3995 256.268 89.5473 254.483C89.6317 253.444 89.9083 252.438 90.3644 251.493C90.4658 251.284 90.6579 251.244 90.7361 251.233C90.9071 251.214 91.0718 251.284 91.1753 251.417C91.1922 251.438 91.2112 251.457 91.2302 251.476L92.6892 252.78C93.5528 253.839 95.0794 254.113 96.1858 253.398C96.8151 252.991 97.231 252.364 97.3535 251.63C97.4739 250.908 97.2838 250.163 96.832 249.587L91.4878 243.312C91.2428 241.515 88.7681 221.66 96.4941 205.885L104.678 191.493C104.805 191.272 104.731 190.991 104.514 190.86L90.3285 182.29C90.2188 182.222 90.0836 182.203 89.9612 182.239C89.8366 182.273 89.731 182.357 89.6719 182.471C86.6968 188.067 80.0012 202.298 79.4965 208.13C78.0903 224.352 83.0819 243.004 83.633 244.992L82.6385 247.076C81.4539 249.564 81.3209 252.472 82.2732 255.054L85.8838 264.842C85.9049 264.897 85.9345 264.95 85.9746 264.992C86.3674 265.44 86.8826 265.674 87.4083 265.674ZM90.7888 250.29C90.7361 250.29 90.6833 250.292 90.6284 250.298C90.1406 250.351 89.7247 250.644 89.5135 251.083C89.0068 252.134 88.7027 253.25 88.6077 254.404C88.4261 256.618 88.2551 259.96 88.4789 263.302C88.5274 264.009 88.1431 264.496 87.7441 264.665C87.3872 264.815 87.0304 264.731 86.7263 264.427L83.1494 254.729C82.2837 252.383 82.4041 249.739 83.4809 247.479L84.5494 245.234C84.5979 245.131 84.6085 245.013 84.5768 244.903C84.5198 244.707 78.9602 225.105 80.4256 208.209C80.9134 202.575 87.5773 188.489 90.2631 183.349L103.631 191.426L95.6601 205.447C87.4569 222.196 90.5418 243.371 90.5756 243.582C90.5882 243.669 90.6263 243.749 90.6812 243.817L96.1014 250.18C96.378 250.535 96.5005 251.012 96.4223 251.474C96.3442 251.944 96.076 252.347 95.6706 252.609C94.9569 253.071 93.9582 252.877 93.3965 252.166C93.3796 252.145 93.3607 252.126 93.3417 252.107L91.8826 250.801C91.6081 250.474 91.2111 250.29 90.7888 250.29Z" fill="#202124"/>
<path d="M102.359 198.435C103.414 196.762 104.567 195.156 105.826 193.645C107.147 192.059 109.7 192.521 110.315 194.496C111.269 197.557 111.514 204.071 108.997 217.788C108.921 218.203 105.75 234.389 105.75 234.389C105.75 234.389 139.094 240.13 150.716 238.035C159.903 236.379 162.676 234.106 163.434 233.229C163.607 233.028 163.683 232.764 163.653 232.501L162.304 220.704C161.823 216.429 160.644 208.436 162.04 198.249C163.959 184.245 172.319 184.516 172.319 184.516C174.943 184.347 178.003 184.406 181.291 184.066L181.322 155.01C181.322 155.01 172.775 153.98 168.265 152.84C168.265 152.84 156.69 150.125 153.478 149.821C151.058 149.593 144.627 147.954 129.563 149.648C123.708 150.306 118.032 152.1 112.855 154.921L112.078 155.345C112.078 155.345 96.3534 164.211 86.3449 184.161L102.359 198.435Z" fill="white"/>
<path d="M143.923 238.968C146.599 238.968 148.959 238.829 150.798 238.495C160.106 236.816 162.984 234.465 163.788 233.533C164.044 233.237 164.164 232.84 164.118 232.444L162.771 220.649C162.731 220.288 162.684 219.902 162.635 219.489C162.112 215.034 161.233 207.58 162.505 198.313C164.337 184.94 171.987 184.976 172.304 184.984C173.339 184.919 174.39 184.889 175.505 184.855C177.363 184.8 179.285 184.743 181.339 184.53C181.578 184.505 181.759 184.305 181.759 184.064L181.791 155.008C181.791 154.769 181.614 154.569 181.377 154.541C181.293 154.531 172.807 153.501 168.377 152.385C167.895 152.271 156.725 149.657 153.518 149.355C153.161 149.321 152.711 149.256 152.141 149.171C148.959 148.707 142.338 147.739 129.506 149.182C123.566 149.851 117.886 151.642 112.625 154.51L111.848 154.934C111.683 155.027 95.8762 164.104 85.9205 183.952C85.8255 184.142 85.8698 184.372 86.0282 184.514L102.042 198.781C102.145 198.874 102.282 198.914 102.42 198.895C102.557 198.876 102.677 198.798 102.751 198.68C103.824 196.977 104.979 195.384 106.182 193.941C106.702 193.318 107.483 193.042 108.273 193.196C109.037 193.348 109.63 193.884 109.863 194.629C110.697 197.3 111.142 203.472 108.533 217.697C108.459 218.107 105.319 234.132 105.287 234.294C105.262 234.419 105.289 234.547 105.361 234.651C105.433 234.754 105.543 234.826 105.667 234.847C106.818 235.05 129.772 238.968 143.923 238.968ZM172.27 184.047C171.812 184.047 163.48 184.288 161.576 198.186C160.288 207.571 161.174 215.102 161.704 219.598C161.753 220.01 161.797 220.396 161.837 220.755L163.187 232.551C163.201 232.689 163.163 232.822 163.079 232.919C162.502 233.587 159.897 235.9 150.634 237.571C139.977 239.493 110.414 234.691 106.305 234.005C106.837 231.285 109.392 218.25 109.459 217.87C111.582 206.299 112.021 198.387 110.764 194.352C110.429 193.274 109.567 192.498 108.459 192.278C107.348 192.057 106.197 192.464 105.465 193.342C104.345 194.684 103.269 196.152 102.259 197.716L86.9277 184.054C96.7651 164.682 112.154 155.843 112.31 155.757L113.081 155.337C118.235 152.528 123.799 150.773 129.618 150.117C142.327 148.688 148.869 149.642 152.01 150.102C152.593 150.186 153.056 150.254 153.436 150.29C156.58 150.585 168.043 153.271 168.159 153.298C172.072 154.286 179.084 155.202 180.856 155.423L180.826 183.64C178.962 183.815 177.196 183.868 175.482 183.918C174.359 183.952 173.299 183.982 172.293 184.047C172.289 184.049 172.283 184.047 172.27 184.047Z" fill="#202124"/>
<path d="M137.236 373.137L135.737 389.114C135.686 389.563 135.986 389.977 136.383 390L144.282 390.492C144.622 390.513 144.916 390.236 144.964 389.852L146.432 375.332L137.236 373.137Z" fill="white"/>
<path d="M144.322 390.962C144.883 390.962 145.356 390.521 145.432 389.91L146.902 375.378C146.925 375.144 146.773 374.929 146.543 374.874L137.345 372.679C137.212 372.648 137.073 372.675 136.963 372.755C136.853 372.834 136.782 372.958 136.769 373.093L135.27 389.07C135.23 389.424 135.337 389.789 135.567 390.061C135.772 390.306 136.053 390.452 136.355 390.469L144.254 390.96C144.277 390.962 144.301 390.962 144.322 390.962ZM145.924 375.693L144.497 389.804C144.482 389.926 144.393 390.028 144.311 390.024L136.412 389.532C136.353 389.528 136.306 389.483 136.285 389.458C136.222 389.382 136.19 389.274 136.203 389.167L137.651 373.72L145.924 375.693Z" fill="#202124"/>
<path d="M134.489 384.979C133.965 386.865 132.859 392.184 132.397 395.383C132.105 397.39 133.37 399.291 135.302 399.816C140.769 401.301 153.835 401.236 164.713 401.719C165.458 401.753 166.831 401.388 167.441 399.573C169.51 393.425 158.079 391.522 146.776 385.27C146.554 385.147 146.284 385.158 146.077 385.306C145.946 385.399 145.781 385.512 145.587 385.637C143.621 386.892 140.353 386.895 138.357 385.69L136.102 384.329C135.484 383.955 134.685 384.276 134.489 384.979Z" fill="white"/>
<path d="M164.812 402.19C165.874 402.19 167.274 401.55 167.891 399.723C169.47 395.031 164.2 392.739 156.907 389.568C153.864 388.245 150.416 386.745 147.008 384.86C146.628 384.649 146.157 384.675 145.807 384.926C145.682 385.014 145.524 385.124 145.338 385.242C143.543 386.388 140.458 386.409 138.604 385.289L136.349 383.928C135.929 383.675 135.427 383.632 134.97 383.814C134.512 383.995 134.172 384.375 134.039 384.854C133.495 386.816 132.394 392.136 131.934 395.318C131.611 397.55 133.007 399.679 135.182 400.27C139.301 401.388 147.449 401.633 156.075 401.89C158.944 401.977 161.911 402.065 164.694 402.188C164.734 402.19 164.772 402.19 164.812 402.19ZM146.459 385.656C146.491 385.656 146.525 385.664 146.554 385.681C150.002 387.589 153.471 389.097 156.533 390.429C163.368 393.402 168.307 395.55 167.002 399.424C166.394 401.23 165.013 401.259 164.74 401.249C161.951 401.124 158.98 401.036 156.107 400.949C147.538 400.694 139.443 400.451 135.431 399.36C133.714 398.894 132.612 397.212 132.865 395.448C133.309 392.383 134.413 387.019 134.947 385.101C135 384.907 135.137 384.755 135.319 384.683C135.498 384.611 135.697 384.628 135.864 384.73L138.119 386.091C140.283 387.397 143.748 387.371 145.845 386.032C146.047 385.903 146.218 385.783 146.356 385.688C146.385 385.669 146.421 385.656 146.459 385.656Z" fill="#202124"/>
<path d="M132.072 396.833C132.061 396.887 132.053 396.927 132.051 396.944C131.759 398.951 133.66 400.185 135.474 401.042C140.858 403.58 162.606 402.126 163.447 402.069C163.464 402.067 163.476 402.067 163.493 402.067C163.763 402.072 166.525 402.072 167.321 400.348C167.421 400.133 167.482 399.833 167.518 399.55C167.579 399.088 167.547 398.62 167.446 398.166C167.364 397.797 167 397.565 166.637 397.658C162.6 398.694 153.174 399.037 143.755 397.997C137.494 397.305 134.773 395.934 133.322 395.062C132.927 394.824 132.42 395.056 132.33 395.512C132.256 395.894 132.165 396.36 132.072 396.833Z" fill="white"/>
<path d="M149.811 403C156.542 403 162.982 402.57 163.476 402.536C163.819 402.54 166.827 402.53 167.744 400.544C167.849 400.314 167.928 400.008 167.98 399.611C168.046 399.116 168.02 398.594 167.902 398.065C167.835 397.761 167.645 397.495 167.383 397.335C167.123 397.174 166.815 397.128 166.519 397.206C162.773 398.168 153.54 398.609 143.806 397.533C137.803 396.868 135.085 395.577 133.563 394.661C133.248 394.474 132.86 394.448 132.524 394.596C132.184 394.746 131.939 395.056 131.867 395.423L131.608 396.746C131.593 396.816 131.584 396.864 131.582 396.885C131.236 399.272 133.521 400.643 135.271 401.468C137.828 402.671 143.93 403 149.811 403ZM163.493 401.597C163.477 401.597 163.424 401.599 163.411 401.599C162.495 401.662 140.938 403.099 135.67 400.616C133.288 399.493 132.313 398.381 132.511 397.012L132.528 396.923V396.921L132.788 395.6C132.807 395.508 132.868 395.465 132.904 395.451C132.936 395.436 133.001 395.417 133.077 395.461C134.676 396.421 137.516 397.776 143.7 398.462C153.544 399.55 162.923 399.094 166.751 398.111C166.813 398.094 166.861 398.113 166.891 398.132C166.918 398.149 166.967 398.189 166.984 398.267C167.077 398.689 167.1 399.101 167.047 399.487C166.998 399.858 166.935 400.052 166.889 400.149C166.209 401.62 163.603 401.601 163.495 401.597C163.495 401.597 163.496 401.597 163.493 401.597Z" fill="#202124"/>
<path d="M147.554 390.709C147.654 390.709 147.755 390.678 147.839 390.612L151.138 388.089C151.345 387.931 151.383 387.637 151.226 387.431C151.068 387.226 150.772 387.186 150.567 387.344L147.269 389.868C147.062 390.026 147.024 390.319 147.183 390.526C147.271 390.646 147.413 390.709 147.554 390.709Z" fill="#202124"/>
<path d="M151.934 392.513C152.034 392.513 152.133 392.482 152.217 392.418L155.104 390.243C155.311 390.087 155.353 389.793 155.197 389.585C155.04 389.378 154.747 389.336 154.538 389.492L151.651 391.667C151.444 391.823 151.402 392.117 151.558 392.325C151.651 392.448 151.793 392.513 151.934 392.513Z" fill="#202124"/>
<path d="M110.601 232.693C110.601 232.693 106.481 244.306 105.379 251.235C103.415 263.593 96.196 314.471 78.605 355.281C76.6097 359.908 78.9133 364.723 83.8183 365.795C85.7799 366.223 86.6034 365.522 88.3032 364.691C89.1794 364.263 90.63 363.001 90.63 363.001C90.63 363.001 121.773 336.86 134.471 268.276C142.638 224.16 141.281 227.661 141.281 227.661L110.601 232.693Z" fill="#202124"/>
<path d="M122.499 231.129C122.499 231.129 118.842 255.071 125.757 272.785C132.406 289.816 136.652 356.587 134.173 375.876C134.017 377.089 134.855 378.199 136.063 378.37C139.087 378.796 144.541 379.377 148.272 378.676C148.958 378.547 149.509 378.041 149.68 377.362C152.142 367.573 172.569 279.102 158.166 233.767L122.499 231.129Z" fill="#202124"/>
<path d="M129.489 293.249C129.498 293.249 129.508 293.249 129.517 293.249C129.777 293.235 129.973 293.011 129.958 292.754C129.954 292.667 129.399 284.018 125.307 274.401C124.092 271.548 123.216 268.143 122.699 264.282C122.665 264.024 122.431 263.847 122.171 263.879C121.913 263.912 121.734 264.149 121.768 264.406C122.296 268.352 123.195 271.839 124.443 274.77C128.474 284.24 129.016 292.726 129.021 292.811C129.035 293.057 129.242 293.249 129.489 293.249Z" fill="white"/>
<path d="M139.066 268.347C139.953 268.347 140.841 268.164 141.673 267.79L148.215 264.849C150.371 263.88 151.714 261.724 151.638 259.354L151.228 246.427C151.211 245.865 150.958 245.334 150.535 244.966C150.113 244.599 149.549 244.424 148.998 244.483C141.226 245.31 133.928 244.542 130.271 244.009C129.67 243.922 129.07 244.106 128.624 244.513C128.175 244.922 127.936 245.507 127.968 246.116L128.692 259.654C128.787 261.416 129.657 263.019 131.082 264.055L135.318 267.132C136.422 267.934 137.74 268.347 139.066 268.347ZM149.216 245.407C149.475 245.407 149.72 245.5 149.919 245.671C150.149 245.87 150.28 246.148 150.29 246.452L150.7 259.38C150.763 261.367 149.636 263.176 147.831 263.988L141.289 266.929C139.518 267.727 137.442 267.512 135.869 266.368L131.633 263.292C130.44 262.424 129.71 261.078 129.629 259.601L128.905 246.064C128.888 245.737 129.015 245.424 129.256 245.203C129.494 244.985 129.817 244.886 130.134 244.933C133.836 245.471 141.219 246.249 149.097 245.412C149.138 245.41 149.176 245.407 149.216 245.407Z" fill="white"/>
<path d="M107.481 265.292C107.8 265.292 108.121 265.218 108.416 265.066L115.621 261.391C116.241 261.074 116.657 260.469 116.731 259.774L118.355 244.713C118.473 243.616 117.715 242.622 116.626 242.454L109.82 241.375C109.565 241.335 109.324 241.51 109.284 241.766C109.244 242.021 109.417 242.262 109.675 242.304L116.482 243.382C117.073 243.475 117.487 244.015 117.422 244.614L115.798 259.675C115.758 260.055 115.532 260.384 115.192 260.555L107.988 264.231C107.618 264.421 107.177 264.387 106.839 264.146L105.126 262.984C104.911 262.838 104.62 262.893 104.474 263.108C104.328 263.323 104.383 263.615 104.599 263.76L106.303 264.917C106.653 265.163 107.065 265.292 107.481 265.292Z" fill="white"/>
<path d="M83.7793 373.543C84.7401 368.721 85.156 367.73 87.4618 364.012C89.1742 361.25 85.0124 357.083 82.8925 356.764C79.3578 356.034 79.9216 357.159 75.8781 362.362L72.713 366.274C72.713 366.274 82.9411 377.758 83.7793 373.543Z" fill="white"/>
<path d="M82.8215 374.937C82.9587 374.937 83.0875 374.922 83.2079 374.889C83.5858 374.785 84.0715 374.486 84.2404 373.635C85.0935 369.35 85.3616 368.227 87.0783 365.349C87.2113 365.128 87.1374 364.839 86.9157 364.706C86.6919 364.573 86.4047 364.647 86.2717 364.868C84.4811 367.871 84.1813 369.126 83.3198 373.452C83.229 373.91 83.0348 373.962 82.9609 373.983C81.4786 374.386 76.5356 369.806 73.3303 366.261L76.0816 362.889C77.2366 361.404 77.9545 360.239 78.59 359.174C78.7231 358.952 78.6492 358.663 78.4275 358.53C78.2037 358.397 77.9165 358.471 77.7835 358.692C77.1627 359.733 76.4616 360.87 75.3468 362.305L72.3485 365.978C72.2028 366.158 72.2091 366.415 72.3611 366.588C73.647 368.029 79.9499 374.937 82.8215 374.937Z" fill="#202124"/>
<path d="M84.3399 371.734L80.2457 365.531C78.3348 362.636 74.2744 362.206 71.804 364.634L67.1185 368.582C67.1185 368.582 66.2232 371.297 66.5083 373.049C66.8799 375.33 67.6084 378.583 69.0231 381.805C71.1979 386.764 77.2178 396.725 79.361 400.225C79.8107 400.96 80.9341 401.685 81.7153 401.333C82.6444 400.915 83.6072 400.164 84.5363 399.288C85.9763 397.932 85.4928 391.593 84.9776 387.181C84.6461 384.352 84.8931 377.132 85.0135 374.154C85.0494 373.296 84.8129 372.45 84.3399 371.734Z" fill="white"/>
<path d="M81.2606 401.896C81.4781 401.896 81.6956 401.854 81.9025 401.761C82.7872 401.363 83.7522 400.666 84.8544 399.63C85.3105 399.2 86.6998 397.894 85.4393 387.127C85.112 384.325 85.3569 377.136 85.4794 374.173C85.5174 373.211 85.2598 372.279 84.7277 371.475L80.6335 365.271C79.6453 363.773 78.0575 362.807 76.2754 362.619C74.4996 362.433 72.7449 363.043 71.4696 364.301L66.8095 368.225C66.7441 368.282 66.6934 368.354 66.6659 368.436C66.6279 368.552 65.739 371.283 66.0367 373.125C66.3978 375.344 67.1326 378.685 68.5853 381.993C70.739 386.901 76.552 396.548 78.9528 400.47C79.3708 401.15 80.3316 401.896 81.2606 401.896ZM75.6504 363.524C75.8256 363.524 76.003 363.533 76.1804 363.552C77.6795 363.71 79.0182 364.524 79.8523 365.788L83.9464 371.992C84.3687 372.629 84.5736 373.372 84.544 374.133C84.4215 377.117 84.1745 384.365 84.5102 387.232C85.5976 396.527 84.6644 398.518 84.2146 398.945C83.1905 399.909 82.31 400.55 81.5224 400.903C81.0262 401.126 80.1246 400.571 79.7615 399.978C77.3712 396.075 71.5836 386.47 69.4531 381.615C68.0405 378.396 67.3247 375.138 66.9721 372.973C66.742 371.555 67.3627 369.39 67.5274 368.852L72.1094 364.991C73.0764 364.039 74.3391 363.524 75.6504 363.524Z" fill="#202124"/>
<path d="M84.8297 379.275C85.0366 379.275 85.2246 379.138 85.2816 378.931C85.3513 378.682 85.2034 378.423 84.9543 378.353L80.5476 377.138C80.2963 377.07 80.0387 377.216 79.969 377.465C79.8994 377.714 80.0472 377.973 80.2963 378.043L84.703 379.258C84.7453 379.271 84.7875 379.275 84.8297 379.275Z" fill="#202124"/>
<path d="M84.4996 383.225C84.7066 383.225 84.8945 383.088 84.9515 382.881C85.0212 382.632 84.8734 382.373 84.6242 382.303L80.2175 381.088C79.9663 381.02 79.7087 381.166 79.639 381.415C79.5693 381.664 79.7171 381.923 79.9662 381.993L84.3729 383.208C84.4173 383.221 84.4574 383.225 84.4996 383.225Z" fill="#202124"/>
<path d="M80.006 401.658C80.4557 401.658 80.8822 401.586 81.2708 401.451C82.5862 400.995 85.878 400.012 85.5106 395.273C85.1306 390.361 81.4101 387.861 78.6947 384.637C76.6233 382.176 76.8303 371.892 76.1778 369.877C75.0102 366.267 69.7588 365.723 67.1174 368.584C65.4493 370.39 65.2529 374.313 65.4155 377.197C65.7196 382.598 68.8805 393.351 72.8775 398.541C74.8265 401.076 77.8332 401.658 80.006 401.658Z" fill="white"/>
<path d="M80.0043 402.126C80.5005 402.126 80.9777 402.048 81.4211 401.894L81.5373 401.854C82.9794 401.36 86.3599 400.202 85.9756 395.235C85.6695 391.289 83.3046 388.838 81.0178 386.466C80.3548 385.778 79.6665 385.065 79.0499 384.333C77.7809 382.826 77.4072 377.802 77.1327 374.133C76.9806 372.086 76.8603 370.47 76.6217 369.732C76.0769 368.048 74.6854 366.845 72.8041 366.432C70.6124 365.948 68.2432 366.668 66.7694 368.263C64.8585 370.333 64.8057 374.764 64.943 377.222C65.2343 382.406 68.3235 393.399 72.5021 398.828C74.7129 401.698 78.1504 402.126 80.0043 402.126ZM71.4274 367.223C71.8201 367.223 72.215 367.265 72.6035 367.35C74.1512 367.689 75.2893 368.664 75.7285 370.021C75.9333 370.654 76.0558 372.297 76.1973 374.205C76.495 378.212 76.8666 383.2 78.332 384.938C78.9697 385.694 79.6665 386.417 80.3421 387.118C82.6141 389.475 84.7594 391.699 85.0402 395.309C85.3696 399.55 82.5761 400.508 81.2353 400.966L81.1171 401.006C80.7708 401.126 80.397 401.185 80.0064 401.185C78.3257 401.185 75.2133 400.803 73.2496 398.252C69.1808 392.965 66.1676 382.233 65.8826 377.167C65.6609 373.238 66.2373 370.225 67.462 368.898C68.4523 367.829 69.924 367.223 71.4274 367.223Z" fill="#202124"/>
<path d="M80.0036 402.126C81.1924 402.126 82.2714 401.671 82.9661 400.873C83.5847 400.164 83.8508 399.231 83.7156 398.25C83.0146 393.161 80.2528 390.502 77.3304 387.686C75.0627 385.502 74.4651 377.788 74.178 374.08C74.0745 372.745 74.0175 372.034 73.9309 371.719C73.5213 370.219 71.5914 368.822 69.6277 368.607C67.8118 368.405 66.2704 369.236 65.4068 370.877C65.2865 371.107 65.3751 371.39 65.6032 371.51C65.8333 371.631 66.1163 371.542 66.2366 371.314C67.115 369.647 68.5128 369.43 69.5242 369.54C71.2747 369.732 72.7464 370.949 73.023 371.966C73.0884 372.209 73.1602 373.11 73.2405 374.152C73.5593 378.267 74.1526 385.928 76.678 388.359C79.6024 391.175 82.1278 393.608 82.7844 398.375C82.8837 399.094 82.7 399.744 82.2566 400.253C81.7414 400.843 80.92 401.183 80.0015 401.183C79.5095 401.183 79.0197 401.151 78.5467 401.09C78.2912 401.054 78.0547 401.238 78.0209 401.495C77.9871 401.753 78.1687 401.989 78.4263 402.021C78.9415 402.093 79.4715 402.126 80.0036 402.126Z" fill="#202124"/>
<path d="M158.164 233.765C151.504 233.524 149.091 225.654 148.861 218.999L147.471 178.926C147.503 177.599 146.46 176.493 145.132 176.445L116.53 175.409C115.199 175.36 114.08 176.39 114.017 177.719C114.017 177.719 114.606 220.917 110.596 232.691L131.268 239.018L158.164 233.765Z" fill="#202124"/>
<path d="M141.281 180.813C141.325 180.815 143.878 180.813 143.861 178.574C143.766 166.323 147.605 155.59 150.39 153.271C152.096 151.853 154.874 150.735 156.464 150.169C156.885 150.019 156.897 149.433 156.486 149.264C155.62 148.908 154.482 148.454 153.772 148.226C153.215 148.047 150.603 146.922 146.958 150.024C141.889 154.337 138.627 167.488 138.867 178.622C138.89 179.806 139.961 180.764 141.281 180.813Z" fill="#202124"/>
<path d="M121.525 178.543C121.563 178.536 121.601 178.528 121.641 178.519C122.765 178.256 124.367 176.952 124.103 175.806C120.161 158.66 123.014 152.069 124.908 149.724C125.186 149.38 124.863 148.88 124.433 148.988C123.656 149.182 121.897 149.562 121.398 149.712C119.707 150.22 114.724 153.17 119.122 176.92C119.331 178.038 120.442 178.732 121.525 178.543Z" fill="#202124"/>
<path d="M228.346 341.2C227.598 342.679 228.191 344.484 229.669 345.231L251.833 356.438C253.312 357.186 255.116 356.593 255.864 355.114L256.306 354.241L228.788 340.327L228.346 341.2Z" fill="white" stroke="#202124"/>
<path d="M236.317 349.688C235.569 351.167 236.162 352.972 237.64 353.719L240.275 355.051C241.753 355.799 243.558 355.206 244.306 353.728L244.747 352.854L236.758 348.815L236.317 349.688Z" fill="white" stroke="#202124"/>
<path d="M224.833 379.011C224.462 379.746 224.756 380.644 225.492 381.016C226.227 381.388 227.125 381.093 227.496 380.358L240.289 355.059L237.626 353.712L224.833 379.011Z" fill="white" stroke="#202124"/>
<path d="M228.789 340.327L256.307 354.241L259 348.915L231.482 335.001L228.789 340.327Z" fill="white" stroke="#202124"/>
<rect x="176" y="367.482" width="59.2792" height="7.30839" fill="white" stroke="#202124"/>
<path d="M176 374.79H235.279L227.159 402.4H184.12L176 374.79Z" fill="white" stroke="#202124"/>
<path d="M188.992 352.459L190.007 349.617L192.443 349.82L196.555 355.801C196.78 356.128 196.849 356.537 196.745 356.92L196.667 357.204C196.48 357.893 195.7 358.229 195.07 357.893C193.868 357.252 192.776 356.423 191.835 355.438L188.992 352.459Z" fill="white" stroke="#202124"/>
<path d="M177.625 352.459C177.625 348.647 180.715 345.557 184.527 345.557H194.272H198.738V349.82L194.272 349.777C192.467 349.749 190.739 350.506 189.536 351.853L188.994 352.459H177.625Z" fill="white"/>
<path d="M194.272 349.777L198.738 349.82V345.557H194.272M194.272 349.777V349.777C192.467 349.749 190.739 350.506 189.536 351.853L188.994 352.459H177.625V352.459C177.625 348.647 180.715 345.557 184.527 345.557H194.272M194.272 349.777V345.557" stroke="#202124"/>
<rect x="182.904" y="352.459" width="6.09033" height="6.09033" fill="white" stroke="#202124"/>
<path d="M182.903 358.549H188.466C189.466 358.549 190.313 359.288 190.448 360.279L191.43 367.482H177.828L182.903 358.549Z" fill="white" stroke="#202124"/>
<path d="M223.91 359.158C223.91 357.028 225.637 355.301 227.767 355.301C229.898 355.301 231.625 357.028 231.625 359.158V367.482H223.91V359.158Z" fill="white" stroke="#202124"/>
<rect x="223.91" y="358.143" width="7.71442" height="0.812044" fill="white" stroke="#202124"/>
<path d="M207.264 353.835C207.264 352.178 208.607 350.835 210.264 350.835L215.528 350.835C216.344 350.835 217.125 351.167 217.69 351.756L221.88 356.113V367.482H207.264V353.835Z" fill="white" stroke="#202124"/>
<path d="M209.293 350.429C209.293 348.859 210.565 347.587 212.135 347.587C213.705 347.587 214.977 348.859 214.977 350.429V350.835H209.293V350.429Z" fill="white" stroke="#202124"/>
<path d="M217.008 357.737C217.008 357.289 217.371 356.925 217.82 356.925C218.268 356.925 218.632 357.289 218.632 357.737V367.482H217.008V357.737Z" fill="white" stroke="#202124"/>
<path d="M192.646 362.768C192.646 361.111 193.99 359.768 195.646 359.768H202.639C204.296 359.768 205.639 361.111 205.639 362.768V367.482H192.646V362.768Z" fill="white" stroke="#202124"/>
<path d="M197.926 358.346C197.926 356.889 199.107 355.707 200.565 355.707C202.022 355.707 203.204 356.889 203.204 358.346V359.767H197.926V358.346Z" fill="white" stroke="#202124"/>
</svg>
