<svg width="16" height="10" viewBox="0 0 16 10" fill="none" xmlns="http://www.w3.org/2000/svg">
<path d="M11 5H1H11Z" fill="#FE9300"/>
<path d="M1 4.5C0.723858 4.5 0.5 4.72386 0.5 5C0.5 5.27614 0.723858 5.5 1 5.5V5V4.5ZM11 5V4.5H1V5V5.5H11V5Z" fill="#202124"/>
<path d="M13.5859 6.6026L12.6194 7.3639C11.0536 8.5974 10.2707 9.2141 9.6354 8.9328C9 8.6515 9 7.6881 9 5.7613V4.2387C9 2.31191 9 1.34853 9.6354 1.06721C10.2707 0.785902 11.0536 1.40264 12.6194 2.63612L13.5858 3.3974C14.5286 4.1401 15 4.5115 15 5C15 5.4885 14.5286 5.8599 13.5859 6.6026Z" fill="#FE9300" stroke="#202124"/>
</svg>
