<svg width="33" height="32" viewBox="0 0 33 32" fill="none" xmlns="http://www.w3.org/2000/svg">
<path d="M15.6826 2.77575C19.833 3.33203 21.4623 6.3274 21.833 6.66536L18.2467 9.87924C17.619 8.77741 16.7282 8.71551 16.3714 8.77741C13.6318 9.27788 13.1904 8.99611 12.5899 8.84331C8.71378 7.37963 11.7687 5.20308 12.4412 4.31685C13.8597 2.44755 15.0457 2.57839 15.6826 2.77575Z" fill="#FE9300"/>
<path d="M3.1913 27.0722C4.69615 29.2248 11.2466 30.9148 14.3403 26.8847C17.6866 28.4852 23.2059 27.9891 27.6995 25.4832C28.3245 25.1348 28.9157 24.695 29.2777 24.0778C30.095 22.6844 30.1143 20.7512 28.6233 17.8988C26.1373 11.693 21.6661 6.24553 19.8609 4.05485C19.4902 3.71689 17.1257 3.23693 15.6837 2.77575C15.0467 2.57839 13.8607 2.44755 12.4422 4.31685C11.7697 5.20308 8.71486 7.37963 12.591 8.84331C13.1915 8.99611 13.6329 9.27788 16.3725 8.77742C16.7293 8.71551 17.6201 8.77741 18.2478 9.87924L19.5589 11.7542C19.6809 11.9287 19.7601 12.1295 19.7843 12.3411C20.0141 14.3396 20.0066 16.8418 21.1209 18.1088C19.3998 16.8643 14.9022 15.3862 11.5134 19.5922M3.16992 17.252C4.78086 15.72 9.45003 13.2999 14.3913 16.6942" stroke="#202124" stroke-linecap="round" stroke-linejoin="round"/>
</svg>
