<svg width="44" height="44" viewBox="0 0 44 44" fill="none" xmlns="http://www.w3.org/2000/svg">
<path d="M10.3572 16.4294C10.3572 14.378 12.0201 12.7151 14.0714 12.7151H20.2615C20.9454 12.7151 21.4999 12.1607 21.4999 11.4768V11.4768C21.4999 10.1089 22.6087 9 23.9766 9L28.9283 9C30.9796 9 32.6425 10.6629 32.6425 12.7142V31.2863C32.6425 33.3376 30.9796 35.0005 28.9283 35.0005H14.0714C12.0201 35.0005 10.3572 33.3376 10.3572 31.2863V16.4294Z" stroke="#202124"/>
<path d="M12.2144 10.8571C12.2144 9.83146 13.0458 9 14.0715 9H15.9286C16.9542 9 17.7857 9.83146 17.7857 10.8571V12.7142H12.2144V10.8571Z" fill="#FE9300" stroke="#202124"/>
<path d="M15.9287 25.8757C15.9287 23.1561 18.2757 20.4685 19.9231 18.9171C20.8178 18.0745 22.1823 18.0745 23.077 18.9171C24.7243 20.4685 27.0714 23.1561 27.0714 25.8757C27.0714 28.5423 24.9616 31.2849 21.5001 31.2849C18.0385 31.2849 15.9287 28.5423 15.9287 25.8757Z" fill="#FE9300" stroke="#202124"/>
<path d="M43 1L1 43" stroke="#202124"/>
</svg>
