<svg width="33" height="32" viewBox="0 0 33 32" fill="none" xmlns="http://www.w3.org/2000/svg">
<path d="M5.16675 19.1235C5.16675 14.6605 9.0986 10.25 11.8583 7.70402C13.3571 6.32131 15.643 6.32131 17.1419 7.70402C19.9016 10.25 23.8334 14.6605 23.8334 19.1235C23.8334 23.4994 20.299 28.0003 14.5001 28.0003C8.70109 28.0003 5.16675 23.4994 5.16675 19.1235Z" stroke="#202124"/>
<path d="M6.57991 7.36035V14.0804M6.57991 7.36035L4.65991 9.28035M6.57991 7.36035L8.49991 9.28035" stroke="#202124" stroke-linecap="round" stroke-linejoin="round"/>
<path d="M11.7 0.959961V7.67996M11.7 0.959961L9.78003 2.87996M11.7 0.959961L13.62 2.87996" stroke="#202124" stroke-linecap="round" stroke-linejoin="round"/>
<path d="M19.8333 20C19.8333 22.2091 17.4455 24 14.5 24" stroke="#202124" stroke-linecap="round" stroke-linejoin="round"/>
<path d="M23.1667 16.0003C26.8486 16.0003 29.8333 13.0156 29.8333 9.33366C29.8333 5.65176 26.8486 2.66699 23.1667 2.66699C19.4848 2.66699 16.5 5.65176 16.5 9.33366C16.5 13.0156 19.4848 16.0003 23.1667 16.0003Z" fill="#FE9300" stroke="#202124"/>
<path d="M23.1667 6.66699V9.33366L24.5001 10.667" stroke="#202124" stroke-linecap="round" stroke-linejoin="round"/>
</svg>
