<svg width="33" height="32" viewBox="0 0 33 32" fill="none" xmlns="http://www.w3.org/2000/svg">
<path d="M6.5 12.668C6.5 18.1908 10.9771 22.668 16.5 22.668C22.0228 22.668 26.5 18.1908 26.5 12.668C26.5 7.14512 22.0228 2.66797 16.5 2.66797C10.9771 2.66797 6.5 7.14512 6.5 12.668Z" fill="#FE9300" stroke="#202124" stroke-linecap="round" stroke-linejoin="round"/>
<path d="M12.5 13.5556C12.5 13.5556 13.5 13.5556 14.5 15.3333C14.5 15.3333 17.6765 10.8889 20.5 10" stroke="#202124" stroke-linecap="round" stroke-linejoin="round"/>
<path d="M23.01 20L23.9036 24.2799C24.4777 27.0297 24.7648 28.4047 24.1751 29.0564C23.5855 29.708 22.5613 29.1475 20.5132 28.0264L17.4819 26.3671C16.9979 26.1021 16.7559 25.9697 16.5 25.9697C16.2441 25.9697 16.0021 26.1021 15.5181 26.3671L12.4868 28.0264C10.4386 29.1475 9.41456 29.708 8.82487 29.0564C8.23519 28.4047 8.52225 27.0297 9.09641 24.2799L9.99003 20" stroke="#202124" stroke-linejoin="round"/>
</svg>
