<svg width="1920" height="58" viewBox="0 0 1920 58" fill="none" xmlns="http://www.w3.org/2000/svg">
<path d="M0 51.0831V0H960H1920V51.0831L1917.6 49.6383L1915.2 48.1711L1912.8 46.7113L1910.4 45.3041L1908 43.9791L1905.6 42.7664L1903.2 41.7034L1900.8 40.8126L1898.4 40.1089L1896 39.6223L1893.6 39.3528L1891.2 39.3155L1888.8 39.5026L1886.4 39.9218L1884 40.5505L1881.6 41.389L1879.2 42.3996L1876.8 43.5599L1874.4 44.8549L1872 46.2323L1869.6 47.677L1867.2 49.1442L1864.8 50.604L1862.4 52.0114L1860 53.3364L1857.6 54.5491L1855.2 55.6121L1852.8 56.5028L1850.4 57.2065L1848 57.6931L1845.6 57.9625L1843.2 58L1840.8 57.8129L1838.4 57.3936L1836 56.7648L1833.6 55.9264L1831.2 54.9159L1828.8 53.7555L1826.4 52.4605L1824 51.0831L1821.6 49.6383L1819.2 48.1711L1816.8 46.7113L1814.4 45.3041L1812 43.9791L1809.6 42.7664L1807.2 41.7034L1804.8 40.8126L1802.4 40.1089L1800 39.6223L1797.6 39.3528L1795.2 39.3155L1792.8 39.5026L1790.4 39.9218L1788 40.5505L1785.6 41.389L1783.2 42.3996L1780.8 43.5599L1778.4 44.8549L1776 46.2323L1773.6 47.677L1771.2 49.1442L1768.8 50.604L1766.4 52.0114L1764 53.3364L1761.6 54.5491L1759.2 55.6121L1756.8 56.5028L1754.4 57.2065L1752 57.6931L1749.6 57.9625L1747.2 58L1744.8 57.8129L1742.4 57.3936L1740 56.7648L1737.6 55.9264L1735.2 54.9159L1732.8 53.7555L1730.4 52.4605L1728 51.0831L1725.6 49.6383L1723.2 48.1711L1720.8 46.7113L1718.4 45.3041L1716 43.9791L1713.6 42.7664L1711.2 41.7034L1708.8 40.8126L1706.4 40.1089L1704 39.6223L1701.6 39.3528L1699.2 39.3155L1696.8 39.5026L1694.4 39.9218L1692 40.5505L1689.6 41.389L1687.2 42.3996L1684.8 43.5599L1682.4 44.8549L1680 46.2323L1677.6 47.677L1675.2 49.1442L1672.8 50.604L1670.4 52.0114L1668 53.3364L1665.6 54.5491L1663.2 55.6121L1660.8 56.5028L1658.4 57.2065L1656 57.6931L1653.6 57.9625L1651.2 58L1648.8 57.8129L1646.4 57.3936L1644 56.7648L1641.6 55.9264L1639.2 54.9159L1636.8 53.7555L1634.4 52.4605L1632 51.0831L1629.6 49.6383L1627.2 48.1711L1624.8 46.7113L1622.4 45.3041L1620 43.9791L1617.6 42.7664L1615.2 41.7034L1612.8 40.8126L1610.4 40.1089L1608 39.6223L1605.6 39.3528L1603.2 39.3155L1600.8 39.5026L1598.4 39.9218L1596 40.5505L1593.6 41.389L1591.2 42.3996L1588.8 43.5599L1586.4 44.8549L1584 46.2323L1581.6 47.677L1579.2 49.1442L1576.8 50.604L1574.4 52.0114L1572 53.3364L1569.6 54.5491L1567.2 55.6121L1564.8 56.5028L1562.4 57.2065L1560 57.6931L1557.6 57.9625L1555.2 58L1552.8 57.8129L1550.4 57.3936L1548 56.7648L1545.6 55.9264L1543.2 54.9159L1540.8 53.7555L1538.4 52.4605L1536 51.0831L1533.6 49.6383L1531.2 48.1711L1528.8 46.7113L1526.4 45.3041L1524 43.9791L1521.6 42.7664L1519.2 41.7034L1516.8 40.8126L1514.4 40.1089L1512 39.6223L1509.6 39.3528L1507.2 39.3155L1504.8 39.5026L1502.4 39.9218L1500 40.5505L1497.6 41.389L1495.2 42.3996L1492.8 43.5599L1490.4 44.8549L1488 46.2323L1485.6 47.677L1483.2 49.1442L1480.8 50.604L1478.4 52.0114L1476 53.3364L1473.6 54.5491L1471.2 55.6121L1468.8 56.5028L1466.4 57.2065L1464 57.6931L1461.6 57.9625L1459.2 58L1456.8 57.8129L1454.4 57.3936L1452 56.7648L1449.6 55.9264L1447.2 54.9159L1444.8 53.7555L1442.4 52.4605L1440 51.0831L1437.6 49.6383L1435.2 48.1711L1432.8 46.7113L1430.4 45.3041L1428 43.9791L1425.6 42.7664L1423.2 41.7034L1420.8 40.8126L1418.4 40.1089L1416 39.6223L1413.6 39.3528L1411.2 39.3155L1408.8 39.5026L1406.4 39.9218L1404 40.5505L1401.6 41.389L1399.2 42.3996L1396.8 43.5599L1394.4 44.8549L1392 46.2323L1389.6 47.677L1387.2 49.1442L1384.8 50.604L1382.4 52.0114L1380 53.3364L1377.6 54.5491L1375.2 55.6121L1372.8 56.5028L1370.4 57.2065L1368 57.6931L1365.6 57.9625L1363.2 58L1360.8 57.8129L1358.4 57.3936L1356 56.7648L1353.6 55.9264L1351.2 54.9159L1348.8 53.7555L1346.4 52.4605L1344 51.0831L1341.6 49.6383L1339.2 48.1711L1336.8 46.7113L1334.4 45.3041L1332 43.9791L1329.6 42.7664L1327.2 41.7034L1324.8 40.8126L1322.4 40.1089L1320 39.6223L1317.6 39.3528L1315.2 39.3155L1312.8 39.5026L1310.4 39.9218L1308 40.5505L1305.6 41.389L1303.2 42.3996L1300.8 43.5599L1298.4 44.8549L1296 46.2323L1293.6 47.677L1291.2 49.1442L1288.8 50.604L1286.4 52.0114L1284 53.3364L1281.6 54.5491L1279.2 55.6121L1276.8 56.5028L1274.4 57.2065L1272 57.6931L1269.6 57.9625L1267.2 58L1264.8 57.8129L1262.4 57.3936L1260 56.7648L1257.6 55.9264L1255.2 54.9159L1252.8 53.7555L1250.4 52.4605L1248 51.0831L1245.6 49.6383L1243.2 48.1711L1240.8 46.7113L1238.4 45.3041L1236 43.9791L1233.6 42.7664L1231.2 41.7034L1228.8 40.8126L1226.4 40.1089L1224 39.6223L1221.6 39.3528L1219.2 39.3155L1216.8 39.5026L1214.4 39.9218L1212 40.5505L1209.6 41.389L1207.2 42.3996L1204.8 43.5599L1202.4 44.8549L1200 46.2323L1197.6 47.677L1195.2 49.1442L1192.8 50.604L1190.4 52.0114L1188 53.3364L1185.6 54.5491L1183.2 55.6121L1180.8 56.5028L1178.4 57.2065L1176 57.6931L1173.6 57.9625L1171.2 58L1168.8 57.8129L1166.4 57.3936L1164 56.7648L1161.6 55.9264L1159.2 54.9159L1156.8 53.7555L1154.4 52.4605L1152 51.0831L1149.6 49.6383L1147.2 48.1711L1144.8 46.7113L1142.4 45.3041L1140 43.9791L1137.6 42.7664L1135.2 41.7034L1132.8 40.8126L1130.4 40.1089L1128 39.6223L1125.6 39.3528L1123.2 39.3155L1120.8 39.5026L1118.4 39.9218L1116 40.5505L1113.6 41.389L1111.2 42.3996L1108.8 43.5599L1106.4 44.8549L1104 46.2323L1101.6 47.677L1099.2 49.1442L1096.8 50.604L1094.4 52.0114L1092 53.3364L1089.6 54.5491L1087.2 55.6121L1084.8 56.5028L1082.4 57.2065L1080 57.6931L1077.6 57.9625L1075.2 58L1072.8 57.8129L1070.4 57.3936L1068 56.7648L1065.6 55.9264L1063.2 54.9159L1060.8 53.7555L1058.4 52.4605L1056 51.0831L1053.6 49.6383L1051.2 48.1711L1048.8 46.7113L1046.4 45.3041L1044 43.9791L1041.6 42.7664L1039.2 41.7034L1036.8 40.8126L1034.4 40.1089L1032 39.6223L1029.6 39.3528L1027.2 39.3155L1024.8 39.5026L1022.4 39.9218L1020 40.5505L1017.6 41.389L1015.2 42.3996L1012.8 43.5599L1010.4 44.8549L1008 46.2323L1005.6 47.677L1003.2 49.1442L1000.8 50.604L998.4 52.0114L996 53.3364L993.6 54.5491L991.2 55.6121L988.8 56.5028L986.4 57.2065L984 57.6931L981.6 57.9625L979.2 58L976.8 57.8129L974.4 57.3936L972 56.7648L969.6 55.9264L967.2 54.9159L964.8 53.7555L962.4 52.4605L960 51.0831L957.6 49.6383L955.2 48.1711L952.8 46.7113L950.4 45.3041L948 43.9791L945.6 42.7664L943.2 41.7034L940.8 40.8126L938.4 40.1089L936 39.6223L933.6 39.3528L931.2 39.3155L928.8 39.5026L926.4 39.9218L924 40.5505L921.6 41.389L919.2 42.3996L916.8 43.5599L914.4 44.8549L912 46.2323L909.6 47.677L907.2 49.1442L904.8 50.604L902.4 52.0114L900 53.3364L897.6 54.5491L895.2 55.6121L892.8 56.5028L890.4 57.2065L888 57.6931L885.6 57.9625L883.2 58L880.8 57.8129L878.4 57.3936L876 56.7648L873.6 55.9264L871.2 54.9159L868.8 53.7555L866.4 52.4605L864 51.0831L861.6 49.6383L859.2 48.1711L856.8 46.7113L854.4 45.3041L852 43.9791L849.6 42.7664L847.2 41.7034L844.8 40.8126L842.4 40.1089L840 39.6223L837.6 39.3528L835.2 39.3155L832.8 39.5026L830.4 39.9218L828 40.5505L825.6 41.389L823.2 42.3996L820.8 43.5599L818.4 44.8549L816 46.2323L813.6 47.677L811.2 49.1442L808.8 50.604L806.4 52.0114L804 53.3364L801.6 54.5491L799.2 55.6121L796.8 56.5028L794.4 57.2065L792 57.6931L789.6 57.9625L787.2 58L784.8 57.8129L782.4 57.3936L780 56.7648L777.6 55.9264L775.2 54.9159L772.8 53.7555L770.4 52.4605L768 51.0831L765.6 49.6383L763.2 48.1711L760.8 46.7113L758.4 45.3041L756 43.9791L753.6 42.7664L751.2 41.7034L748.8 40.8126L746.4 40.1089L744 39.6223L741.6 39.3528L739.2 39.3155L736.8 39.5026L734.4 39.9218L732 40.5505L729.6 41.389L727.2 42.3996L724.8 43.5599L722.4 44.8549L720 46.2323L717.6 47.677L715.2 49.1442L712.8 50.604L710.4 52.0114L708 53.3364L705.6 54.5491L703.2 55.6121L700.8 56.5028L698.4 57.2065L696 57.6931L693.6 57.9625L691.2 58L688.8 57.8129L686.4 57.3936L684 56.7648L681.6 55.9264L679.2 54.9159L676.8 53.7555L674.4 52.4605L672 51.0831L669.6 49.6383L667.2 48.1711L664.8 46.7113L662.4 45.3041L660 43.9791L657.6 42.7664L655.2 41.7034L652.8 40.8126L650.4 40.1089L648 39.6223L645.6 39.3528L643.2 39.3155L640.8 39.5026L638.4 39.9218L636 40.5505L633.6 41.389L631.2 42.3996L628.8 43.5599L626.4 44.8549L624 46.2323L621.6 47.677L619.2 49.1442L616.8 50.604L614.4 52.0114L612 53.3364L609.6 54.5491L607.2 55.6121L604.8 56.5028L602.4 57.2065L600 57.6931L597.6 57.9625L595.2 58L592.8 57.8129L590.4 57.3936L588 56.7648L585.6 55.9264L583.2 54.9159L580.8 53.7555L578.4 52.4605L576 51.0831L573.6 49.6383L571.2 48.1711L568.8 46.7113L566.4 45.3041L564 43.9791L561.6 42.7664L559.2 41.7034L556.8 40.8126L554.4 40.1089L552 39.6223L549.6 39.3528L547.2 39.3155L544.8 39.5026L542.4 39.9218L540 40.5505L537.6 41.389L535.2 42.3996L532.8 43.5599L530.4 44.8549L528 46.2323L525.6 47.677L523.2 49.1442L520.8 50.604L518.4 52.0114L516 53.3364L513.6 54.5491L511.2 55.6121L508.8 56.5028L506.4 57.2065L504 57.6931L501.6 57.9625L499.2 58L496.8 57.8129L494.4 57.3936L492 56.7648L489.6 55.9264L487.2 54.9159L484.8 53.7555L482.4 52.4605L480 51.0831L477.6 49.6383L475.2 48.1711L472.8 46.7113L470.4 45.3041L468 43.9791L465.6 42.7664L463.2 41.7034L460.8 40.8126L458.4 40.1089L456 39.6223L453.6 39.3528L451.2 39.3155L448.8 39.5026L446.4 39.9218L444 40.5505L441.6 41.389L439.2 42.3996L436.8 43.5599L434.4 44.8549L432 46.2323L429.6 47.677L427.2 49.1442L424.8 50.604L422.4 52.0114L420 53.3364L417.6 54.5491L415.2 55.6121L412.8 56.5028L410.4 57.2065L408 57.6931L405.6 57.9625L403.2 58L400.8 57.8129L398.4 57.3936L396 56.7648L393.6 55.9264L391.2 54.9159L388.8 53.7555L386.4 52.4605L384 51.0831L381.6 49.6383L379.2 48.1711L376.8 46.7113L374.4 45.3041L372 43.9791L369.6 42.7664L367.2 41.7034L364.8 40.8126L362.4 40.1089L360 39.6223L357.6 39.3528L355.2 39.3155L352.8 39.5026L350.4 39.9218L348 40.5505L345.6 41.389L343.2 42.3996L340.8 43.5599L338.4 44.8549L336 46.2323L333.6 47.677L331.2 49.1442L328.8 50.604L326.4 52.0114L324 53.3364L321.6 54.5491L319.2 55.6121L316.8 56.5028L314.4 57.2065L312 57.6931L309.6 57.9625L307.2 58L304.8 57.8129L302.4 57.3936L300 56.7648L297.6 55.9264L295.2 54.9159L292.8 53.7555L290.4 52.4605L288 51.0831L285.6 49.6383L283.2 48.1711L280.8 46.7113L278.4 45.3041L276 43.9791L273.6 42.7664L271.2 41.7034L268.8 40.8126L266.4 40.1089L264 39.6223L261.6 39.3528L259.2 39.3155L256.8 39.5026L254.4 39.9218L252 40.5505L249.6 41.389L247.2 42.3996L244.8 43.5599L242.4 44.8549L240 46.2323L237.6 47.677L235.2 49.1442L232.8 50.604L230.4 52.0114L228 53.3364L225.6 54.5491L223.2 55.6121L220.8 56.5028L218.4 57.2065L216 57.6931L213.6 57.9625L211.2 58L208.8 57.8129L206.4 57.3936L204 56.7648L201.6 55.9264L199.2 54.9159L196.8 53.7555L194.4 52.4605L192 51.0831L189.6 49.6383L187.2 48.1711L184.8 46.7113L182.4 45.3041L180 43.9791L177.6 42.7664L175.2 41.7034L172.8 40.8126L170.4 40.1089L168 39.6223L165.6 39.3528L163.2 39.3155L160.8 39.5026L158.4 39.9218L156 40.5505L153.6 41.389L151.2 42.3996L148.8 43.5599L146.4 44.8549L144 46.2323L141.6 47.677L139.2 49.1442L136.8 50.604L134.4 52.0114L132 53.3364L129.6 54.5491L127.2 55.6121L124.8 56.5028L122.4 57.2065L120 57.6931L117.6 57.9625L115.2 58L112.8 57.8129L110.4 57.3936L108 56.7648L105.6 55.9264L103.2 54.9159L100.8 53.7555L98.4 52.4605L96 51.0831L93.6 49.6383L91.2001 48.1711L88.7999 46.7113L86.4 45.3041L84 43.9791L81.6 42.7664L79.2001 41.7034L76.7999 40.8126L74.4 40.1089L72 39.6223L69.6 39.3528L67.2001 39.3155L64.7999 39.5026L62.4 39.9218L60 40.5505L57.6 41.389L55.2001 42.3996L52.7999 43.5599L50.4 44.8549L48 46.2323L45.6 47.677L43.2 49.1442L40.8 50.604L38.4 52.0114L36 53.3364L33.6 54.5491L31.2 55.6121L28.8 56.5028L26.4 57.2065L24 57.6931L21.6 57.9625L19.2 58L16.8 57.8129L14.4 57.3936L12 56.7648L9.60004 55.9264L7.19998 54.9159L4.80002 53.7555L2.39996 52.4605L0 51.0831Z" fill="#FE9300"/>
</svg>
