<svg width="1920" height="58" viewBox="0 0 1920 58" fill="none" xmlns="http://www.w3.org/2000/svg">
<path d="M1920 51.0831V0L960 0L0 0V51.0831L2.40015 49.6383L4.79993 48.1711L7.20007 46.7113L9.59985 45.3041L12 43.9791L14.4001 42.7664L16.7999 41.7034L19.2001 40.8126L21.5999 40.1089L24 39.6223L26.4001 39.3528L28.7999 39.3155L31.2001 39.5026L33.5999 39.9218L36 40.5505L38.4001 41.389L40.7999 42.3996L43.2001 43.5599L45.5999 44.8549L48 46.2323L50.4001 47.677L52.7999 49.1442L55.2001 50.604L57.5999 52.0114L60 53.3364L62.4001 54.5491L64.7999 55.6121L67.2001 56.5028L69.5999 57.2065L72 57.6931L74.4001 57.9625L76.7999 58L79.2001 57.8129L81.5999 57.3936L84 56.7648L86.4001 55.9264L88.7999 54.9159L91.2001 53.7555L93.5999 52.4605L96 51.0831L98.4001 49.6383L100.8 48.1711L103.2 46.7113L105.6 45.3041L108 43.9791L110.4 42.7664L112.8 41.7034L115.2 40.8126L117.6 40.1089L120 39.6223L122.4 39.3528L124.8 39.3155L127.2 39.5026L129.6 39.9218L132 40.5505L134.4 41.389L136.8 42.3996L139.2 43.5599L141.6 44.8549L144 46.2323L146.4 47.677L148.8 49.1442L151.2 50.604L153.6 52.0114L156 53.3364L158.4 54.5491L160.8 55.6121L163.2 56.5028L165.6 57.2065L168 57.6931L170.4 57.9625L172.8 58L175.2 57.8129L177.6 57.3936L180 56.7648L182.4 55.9264L184.8 54.9159L187.2 53.7555L189.6 52.4605L192 51.0831L194.4 49.6383L196.8 48.1711L199.2 46.7113L201.6 45.3041L204 43.9791L206.4 42.7664L208.8 41.7034L211.2 40.8126L213.6 40.1089L216 39.6223L218.4 39.3528L220.8 39.3155L223.2 39.5026L225.6 39.9218L228 40.5505L230.4 41.389L232.8 42.3996L235.2 43.5599L237.6 44.8549L240 46.2323L242.4 47.677L244.8 49.1442L247.2 50.604L249.6 52.0114L252 53.3364L254.4 54.5491L256.8 55.6121L259.2 56.5028L261.6 57.2065L264 57.6931L266.4 57.9625L268.8 58L271.2 57.8129L273.6 57.3936L276 56.7648L278.4 55.9264L280.8 54.9159L283.2 53.7555L285.6 52.4605L288 51.0831L290.4 49.6383L292.8 48.1711L295.2 46.7113L297.6 45.3041L300 43.9791L302.4 42.7664L304.8 41.7034L307.2 40.8126L309.6 40.1089L312 39.6223L314.4 39.3528L316.8 39.3155L319.2 39.5026L321.6 39.9218L324 40.5505L326.4 41.389L328.8 42.3996L331.2 43.5599L333.6 44.8549L336 46.2323L338.4 47.677L340.8 49.1442L343.2 50.604L345.6 52.0114L348 53.3364L350.4 54.5491L352.8 55.6121L355.2 56.5028L357.6 57.2065L360 57.6931L362.4 57.9625L364.8 58L367.2 57.8129L369.6 57.3936L372 56.7648L374.4 55.9264L376.8 54.9159L379.2 53.7555L381.6 52.4605L384 51.0831L386.4 49.6383L388.8 48.1711L391.2 46.7113L393.6 45.3041L396 43.9791L398.4 42.7664L400.8 41.7034L403.2 40.8126L405.6 40.1089L408 39.6223L410.4 39.3528L412.8 39.3155L415.2 39.5026L417.6 39.9218L420 40.5505L422.4 41.389L424.8 42.3996L427.2 43.5599L429.6 44.8549L432 46.2323L434.4 47.677L436.8 49.1442L439.2 50.604L441.6 52.0114L444 53.3364L446.4 54.5491L448.8 55.6121L451.2 56.5028L453.6 57.2065L456 57.6931L458.4 57.9625L460.8 58L463.2 57.8129L465.6 57.3936L468 56.7648L470.4 55.9264L472.8 54.9159L475.2 53.7555L477.6 52.4605L480 51.0831L482.4 49.6383L484.8 48.1711L487.2 46.7113L489.6 45.3041L492 43.9791L494.4 42.7664L496.8 41.7034L499.2 40.8126L501.6 40.1089L504 39.6223L506.4 39.3528L508.8 39.3155L511.2 39.5026L513.6 39.9218L516 40.5505L518.4 41.389L520.8 42.3996L523.2 43.5599L525.6 44.8549L528 46.2323L530.4 47.677L532.8 49.1442L535.2 50.604L537.6 52.0114L540 53.3364L542.4 54.5491L544.8 55.6121L547.2 56.5028L549.6 57.2065L552 57.6931L554.4 57.9625L556.8 58L559.2 57.8129L561.6 57.3936L564 56.7648L566.4 55.9264L568.8 54.9159L571.2 53.7555L573.6 52.4605L576 51.0831L578.4 49.6383L580.8 48.1711L583.2 46.7113L585.6 45.3041L588 43.9791L590.4 42.7664L592.8 41.7034L595.2 40.8126L597.6 40.1089L600 39.6223L602.4 39.3528L604.8 39.3155L607.2 39.5026L609.6 39.9218L612 40.5505L614.4 41.389L616.8 42.3996L619.2 43.5599L621.6 44.8549L624 46.2323L626.4 47.677L628.8 49.1442L631.2 50.604L633.6 52.0114L636 53.3364L638.4 54.5491L640.8 55.6121L643.2 56.5028L645.6 57.2065L648 57.6931L650.4 57.9625L652.8 58L655.2 57.8129L657.6 57.3936L660 56.7648L662.4 55.9264L664.8 54.9159L667.2 53.7555L669.6 52.4605L672 51.0831L674.4 49.6383L676.8 48.1711L679.2 46.7113L681.6 45.3041L684 43.9791L686.4 42.7664L688.8 41.7034L691.2 40.8126L693.6 40.1089L696 39.6223L698.4 39.3528L700.8 39.3155L703.2 39.5026L705.6 39.9218L708 40.5505L710.4 41.389L712.8 42.3996L715.2 43.5599L717.6 44.8549L720 46.2323L722.4 47.677L724.8 49.1442L727.2 50.604L729.6 52.0114L732 53.3364L734.4 54.5491L736.8 55.6121L739.2 56.5028L741.6 57.2065L744 57.6931L746.4 57.9625L748.8 58L751.2 57.8129L753.6 57.3936L756 56.7648L758.4 55.9264L760.8 54.9159L763.2 53.7555L765.6 52.4605L768 51.0831L770.4 49.6383L772.8 48.1711L775.2 46.7113L777.6 45.3041L780 43.9791L782.4 42.7664L784.8 41.7034L787.2 40.8126L789.6 40.1089L792 39.6223L794.4 39.3528L796.8 39.3155L799.2 39.5026L801.6 39.9218L804 40.5505L806.4 41.389L808.8 42.3996L811.2 43.5599L813.6 44.8549L816 46.2323L818.4 47.677L820.8 49.1442L823.2 50.604L825.6 52.0114L828 53.3364L830.4 54.5491L832.8 55.6121L835.2 56.5028L837.6 57.2065L840 57.6931L842.4 57.9625L844.8 58L847.2 57.8129L849.6 57.3936L852 56.7648L854.4 55.9264L856.8 54.9159L859.2 53.7555L861.6 52.4605L864 51.0831L866.4 49.6383L868.8 48.1711L871.2 46.7113L873.6 45.3041L876 43.9791L878.4 42.7664L880.8 41.7034L883.2 40.8126L885.6 40.1089L888 39.6223L890.4 39.3528L892.8 39.3155L895.2 39.5026L897.6 39.9218L900 40.5505L902.4 41.389L904.8 42.3996L907.2 43.5599L909.6 44.8549L912 46.2323L914.4 47.677L916.8 49.1442L919.2 50.604L921.6 52.0114L924 53.3364L926.4 54.5491L928.8 55.6121L931.2 56.5028L933.6 57.2065L936 57.6931L938.4 57.9625L940.8 58L943.2 57.8129L945.6 57.3936L948 56.7648L950.4 55.9264L952.8 54.9159L955.2 53.7555L957.6 52.4605L960 51.0831L962.4 49.6383L964.8 48.1711L967.2 46.7113L969.6 45.3041L972 43.9791L974.4 42.7664L976.8 41.7034L979.2 40.8126L981.6 40.1089L984 39.6223L986.4 39.3528L988.8 39.3155L991.2 39.5026L993.6 39.9218L996 40.5505L998.4 41.389L1000.8 42.3996L1003.2 43.5599L1005.6 44.8549L1008 46.2323L1010.4 47.677L1012.8 49.1442L1015.2 50.604L1017.6 52.0114L1020 53.3364L1022.4 54.5491L1024.8 55.6121L1027.2 56.5028L1029.6 57.2065L1032 57.6931L1034.4 57.9625L1036.8 58L1039.2 57.8129L1041.6 57.3936L1044 56.7648L1046.4 55.9264L1048.8 54.9159L1051.2 53.7555L1053.6 52.4605L1056 51.0831L1058.4 49.6383L1060.8 48.1711L1063.2 46.7113L1065.6 45.3041L1068 43.9791L1070.4 42.7664L1072.8 41.7034L1075.2 40.8126L1077.6 40.1089L1080 39.6223L1082.4 39.3528L1084.8 39.3155L1087.2 39.5026L1089.6 39.9218L1092 40.5505L1094.4 41.389L1096.8 42.3996L1099.2 43.5599L1101.6 44.8549L1104 46.2323L1106.4 47.677L1108.8 49.1442L1111.2 50.604L1113.6 52.0114L1116 53.3364L1118.4 54.5491L1120.8 55.6121L1123.2 56.5028L1125.6 57.2065L1128 57.6931L1130.4 57.9625L1132.8 58L1135.2 57.8129L1137.6 57.3936L1140 56.7648L1142.4 55.9264L1144.8 54.9159L1147.2 53.7555L1149.6 52.4605L1152 51.0831L1154.4 49.6383L1156.8 48.1711L1159.2 46.7113L1161.6 45.3041L1164 43.9791L1166.4 42.7664L1168.8 41.7034L1171.2 40.8126L1173.6 40.1089L1176 39.6223L1178.4 39.3528L1180.8 39.3155L1183.2 39.5026L1185.6 39.9218L1188 40.5505L1190.4 41.389L1192.8 42.3996L1195.2 43.5599L1197.6 44.8549L1200 46.2323L1202.4 47.677L1204.8 49.1442L1207.2 50.604L1209.6 52.0114L1212 53.3364L1214.4 54.5491L1216.8 55.6121L1219.2 56.5028L1221.6 57.2065L1224 57.6931L1226.4 57.9625L1228.8 58L1231.2 57.8129L1233.6 57.3936L1236 56.7648L1238.4 55.9264L1240.8 54.9159L1243.2 53.7555L1245.6 52.4605L1248 51.0831L1250.4 49.6383L1252.8 48.1711L1255.2 46.7113L1257.6 45.3041L1260 43.9791L1262.4 42.7664L1264.8 41.7034L1267.2 40.8126L1269.6 40.1089L1272 39.6223L1274.4 39.3528L1276.8 39.3155L1279.2 39.5026L1281.6 39.9218L1284 40.5505L1286.4 41.389L1288.8 42.3996L1291.2 43.5599L1293.6 44.8549L1296 46.2323L1298.4 47.677L1300.8 49.1442L1303.2 50.604L1305.6 52.0114L1308 53.3364L1310.4 54.5491L1312.8 55.6121L1315.2 56.5028L1317.6 57.2065L1320 57.6931L1322.4 57.9625L1324.8 58L1327.2 57.8129L1329.6 57.3936L1332 56.7648L1334.4 55.9264L1336.8 54.9159L1339.2 53.7555L1341.6 52.4605L1344 51.0831L1346.4 49.6383L1348.8 48.1711L1351.2 46.7113L1353.6 45.3041L1356 43.9791L1358.4 42.7664L1360.8 41.7034L1363.2 40.8126L1365.6 40.1089L1368 39.6223L1370.4 39.3528L1372.8 39.3155L1375.2 39.5026L1377.6 39.9218L1380 40.5505L1382.4 41.389L1384.8 42.3996L1387.2 43.5599L1389.6 44.8549L1392 46.2323L1394.4 47.677L1396.8 49.1442L1399.2 50.604L1401.6 52.0114L1404 53.3364L1406.4 54.5491L1408.8 55.6121L1411.2 56.5028L1413.6 57.2065L1416 57.6931L1418.4 57.9625L1420.8 58L1423.2 57.8129L1425.6 57.3936L1428 56.7648L1430.4 55.9264L1432.8 54.9159L1435.2 53.7555L1437.6 52.4605L1440 51.0831L1442.4 49.6383L1444.8 48.1711L1447.2 46.7113L1449.6 45.3041L1452 43.9791L1454.4 42.7664L1456.8 41.7034L1459.2 40.8126L1461.6 40.1089L1464 39.6223L1466.4 39.3528L1468.8 39.3155L1471.2 39.5026L1473.6 39.9218L1476 40.5505L1478.4 41.389L1480.8 42.3996L1483.2 43.5599L1485.6 44.8549L1488 46.2323L1490.4 47.677L1492.8 49.1442L1495.2 50.604L1497.6 52.0114L1500 53.3364L1502.4 54.5491L1504.8 55.6121L1507.2 56.5028L1509.6 57.2065L1512 57.6931L1514.4 57.9625L1516.8 58L1519.2 57.8129L1521.6 57.3936L1524 56.7648L1526.4 55.9264L1528.8 54.9159L1531.2 53.7555L1533.6 52.4605L1536 51.0831L1538.4 49.6383L1540.8 48.1711L1543.2 46.7113L1545.6 45.3041L1548 43.9791L1550.4 42.7664L1552.8 41.7034L1555.2 40.8126L1557.6 40.1089L1560 39.6223L1562.4 39.3528L1564.8 39.3155L1567.2 39.5026L1569.6 39.9218L1572 40.5505L1574.4 41.389L1576.8 42.3996L1579.2 43.5599L1581.6 44.8549L1584 46.2323L1586.4 47.677L1588.8 49.1442L1591.2 50.604L1593.6 52.0114L1596 53.3364L1598.4 54.5491L1600.8 55.6121L1603.2 56.5028L1605.6 57.2065L1608 57.6931L1610.4 57.9625L1612.8 58L1615.2 57.8129L1617.6 57.3936L1620 56.7648L1622.4 55.9264L1624.8 54.9159L1627.2 53.7555L1629.6 52.4605L1632 51.0831L1634.4 49.6383L1636.8 48.1711L1639.2 46.7113L1641.6 45.3041L1644 43.9791L1646.4 42.7664L1648.8 41.7034L1651.2 40.8126L1653.6 40.1089L1656 39.6223L1658.4 39.3528L1660.8 39.3155L1663.2 39.5026L1665.6 39.9218L1668 40.5505L1670.4 41.389L1672.8 42.3996L1675.2 43.5599L1677.6 44.8549L1680 46.2323L1682.4 47.677L1684.8 49.1442L1687.2 50.604L1689.6 52.0114L1692 53.3364L1694.4 54.5491L1696.8 55.6121L1699.2 56.5028L1701.6 57.2065L1704 57.6931L1706.4 57.9625L1708.8 58L1711.2 57.8129L1713.6 57.3936L1716 56.7648L1718.4 55.9264L1720.8 54.9159L1723.2 53.7555L1725.6 52.4605L1728 51.0831L1730.4 49.6383L1732.8 48.1711L1735.2 46.7113L1737.6 45.3041L1740 43.9791L1742.4 42.7664L1744.8 41.7034L1747.2 40.8126L1749.6 40.1089L1752 39.6223L1754.4 39.3528L1756.8 39.3155L1759.2 39.5026L1761.6 39.9218L1764 40.5505L1766.4 41.389L1768.8 42.3996L1771.2 43.5599L1773.6 44.8549L1776 46.2323L1778.4 47.677L1780.8 49.1442L1783.2 50.604L1785.6 52.0114L1788 53.3364L1790.4 54.5491L1792.8 55.6121L1795.2 56.5028L1797.6 57.2065L1800 57.6931L1802.4 57.9625L1804.8 58L1807.2 57.8129L1809.6 57.3936L1812 56.7648L1814.4 55.9264L1816.8 54.9159L1819.2 53.7555L1821.6 52.4605L1824 51.0831L1826.4 49.6383L1828.8 48.1711L1831.2 46.7113L1833.6 45.3041L1836 43.9791L1838.4 42.7664L1840.8 41.7034L1843.2 40.8126L1845.6 40.1089L1848 39.6223L1850.4 39.3528L1852.8 39.3155L1855.2 39.5026L1857.6 39.9218L1860 40.5505L1862.4 41.389L1864.8 42.3996L1867.2 43.5599L1869.6 44.8549L1872 46.2323L1874.4 47.677L1876.8 49.1442L1879.2 50.604L1881.6 52.0114L1884 53.3364L1886.4 54.5491L1888.8 55.6121L1891.2 56.5028L1893.6 57.2065L1896 57.6931L1898.4 57.9625L1900.8 58L1903.2 57.8129L1905.6 57.3936L1908 56.7648L1910.4 55.9264L1912.8 54.9159L1915.2 53.7555L1917.6 52.4605L1920 51.0831Z" fill="#00B9FE"/>
</svg>
