<svg width="721" height="479" viewBox="0 0 721 479" fill="none" xmlns="http://www.w3.org/2000/svg">
<path d="M-363.34 62.0958C-360.967 39.7922 -342.151 22.8716 -319.721 22.8716H515.379C532.89 22.8716 549.896 28.7394 563.682 39.5379L636.401 96.5013H-367L-363.34 62.0958Z" fill="#00B9FE"/>
<path d="M-367 123.133H575.297C589.592 123.133 603.557 118.835 615.378 110.797L636.401 96.5013H-367V123.133Z" fill="#00B9FE"/>
<path d="M636.401 96.5013L563.682 39.5379C549.896 28.7394 532.89 22.8716 515.379 22.8716H-319.721C-342.151 22.8716 -360.967 39.7922 -363.34 62.0958L-367 96.5013M636.401 96.5013H-367M636.401 96.5013L615.378 110.797C603.557 118.835 589.592 123.133 575.297 123.133H-367V96.5013" stroke="#202124"/>
<rect x="-367" y="123.133" width="725.331" height="191.907" fill="white" stroke="#202124"/>
<path d="M50.498 178.747C50.498 170.528 57.1612 163.865 65.3807 163.865H270.604C278.823 163.865 285.487 170.528 285.487 178.747V259.427C285.487 267.646 278.823 274.309 270.604 274.309H65.3807C57.1612 274.309 50.498 267.646 50.498 259.427V178.747Z" stroke="#202124"/>
<path d="M449.977 37.7539H498.128C508.828 37.7539 519.08 42.0459 526.588 49.6683L557.288 80.8351H449.977V37.7539Z" fill="white"/>
<path d="M379.48 37.7539H449.977V80.8351H379.48V37.7539Z" fill="white"/>
<path d="M449.977 37.7539H498.128C508.828 37.7539 519.08 42.0459 526.588 49.6683L557.288 80.8351H449.977M449.977 37.7539V80.8351M449.977 37.7539H379.48V80.8351H449.977" stroke="#202124"/>
<path d="M358.33 123.133H537.705C537.705 123.133 575.789 178.702 609.768 205.771C640.356 230.139 681.048 227.294 707.288 256.293C735.702 287.697 708.511 350.012 689.837 384.282C681.477 399.623 665.087 408.253 647.616 408.253H358.33L358.33 123.133Z" stroke="#202124"/>
<path d="M-367 315.04H358.331V408.252H-322.352C-347.01 408.252 -367 388.263 -367 363.605V315.04Z" stroke="#202124"/>
<path d="M616.037 408.253C616.037 440.698 589.735 467 557.29 467C524.845 467 498.543 440.698 498.543 408.253C498.543 375.808 524.845 349.506 557.29 349.506C589.735 349.506 616.037 375.808 616.037 408.253Z" fill="white" stroke="#202124"/>
<path d="M579.22 408.252C579.22 420.365 569.401 430.185 557.288 430.185C545.175 430.185 535.355 420.365 535.355 408.252C535.355 396.139 545.175 386.32 557.288 386.32C569.401 386.32 579.22 396.139 579.22 408.252Z" fill="white" stroke="#202124"/>
<path d="M378.695 143.5C378.695 143.5 480.524 132.532 528.696 154.466C590.977 182.822 653.632 289.584 572.952 314.649C557.592 319.422 538.546 319.562 520.08 330.734C501.115 342.207 480.524 371.438 480.524 371.438L378.695 371.439V143.5Z" stroke="#202124"/>
<path d="M398.279 171.748C398.279 164.146 404.003 157.794 411.589 157.303C436.6 155.686 490.764 154.199 520.473 168.565C545.953 180.885 567.817 211.674 580.382 232.506C586.036 241.88 579.094 253.162 568.146 253.162H413.162C404.942 253.162 398.279 246.499 398.279 238.279V171.748Z" stroke="#202124"/>
<path d="M122.663 342.224L199.352 347.901V349.629L111.705 353.558L46.1975 345.527V343.802L122.663 342.224Z" fill="#202124"/>
<path d="M122.663 340.499L199.352 347.901L111.705 351.833L46.1975 343.802L122.663 340.499Z" fill="#202124"/>
<path d="M48.5413 345.247L7.84766 473.432" stroke="#202124"/>
<path d="M112.293 353.385L77.0254 478.858" stroke="#202124"/>
<path d="M121.449 349.316V475.466" stroke="#202124"/>
<path d="M197.412 347.96L200.125 478.179" stroke="#202124"/>
<path d="M32.2637 396.114L98.73 402.896" stroke="#202124"/>
<path d="M17.3418 444.946L83.8081 454.441" stroke="#202124"/>
<path d="M234.777 48.9052C234.777 75.916 256.459 97.8104 283.205 97.8104C309.95 97.8104 331.632 75.9135 331.632 48.9052C331.632 21.897 309.95 0 283.205 0C256.459 0 234.777 21.897 234.777 48.9052ZM241.161 48.9052C241.161 25.4557 259.986 6.44458 283.207 6.44458C306.428 6.44458 325.253 25.4557 325.253 48.9052C325.253 72.3547 306.428 91.3659 283.207 91.3659C259.984 91.3659 241.161 72.3547 241.161 48.9052Z" fill="#202124"/>
<path d="M238.625 110.281C239.98 111.284 241.883 110.986 242.873 109.618L257.014 90.1279L252.109 86.4985L237.967 105.989C236.977 107.357 237.27 109.278 238.625 110.281Z" fill="#202124"/>
<path d="M83.0824 306.597L71.7226 315.607L63.2676 305.36L74.897 296.677L83.0824 306.597Z" fill="white"/>
<path d="M71.7219 316.18C71.5556 316.18 71.3918 316.11 71.281 315.971L62.826 305.726C62.7252 305.605 62.6798 305.448 62.7 305.292C62.7176 305.136 62.8008 304.995 62.9267 304.902L74.5536 296.219C74.798 296.037 75.1432 296.078 75.3371 296.315L83.5251 306.235C83.6233 306.353 83.6687 306.507 83.6536 306.661C83.6385 306.814 83.5604 306.953 83.4394 307.049L72.0796 316.057C71.9738 316.14 71.8478 316.18 71.7219 316.18ZM64.0932 305.461L71.8075 314.809L82.2704 306.512L74.803 297.464L64.0932 305.461Z" fill="#202124"/>
<path d="M147.356 319.051L146.938 326.954H133.729L134.567 319.051H147.356Z" fill="white"/>
<path d="M146.939 327.529H133.733C133.569 327.529 133.415 327.461 133.307 327.34C133.199 327.219 133.146 327.058 133.163 326.897L134.002 318.993C134.033 318.7 134.28 318.481 134.572 318.481H147.36C147.516 318.481 147.667 318.547 147.776 318.66C147.884 318.774 147.94 318.927 147.932 319.086L147.514 326.99C147.494 327.29 147.242 327.529 146.939 327.529ZM134.368 326.383H146.395L146.753 319.625H135.086L134.368 326.383Z" fill="#202124"/>
<path d="M146.418 326.672H134.157C133.288 326.672 132.504 327.199 132.171 328.011C131.083 330.68 128.869 336.923 129.166 342.843C129.246 344.461 130.579 345.726 132.182 345.726H168.163C169.818 345.726 171.076 344.199 170.743 342.563C170.345 340.602 168.977 338.024 165.032 335.705C158.645 331.953 150.616 328.2 148.084 327.038C147.562 326.798 146.995 326.672 146.418 326.672Z" fill="white"/>
<path d="M168.165 346.301H132.184C130.269 346.301 128.692 344.796 128.596 342.873C128.289 336.769 130.624 330.297 131.642 327.797C132.063 326.766 133.048 326.1 134.156 326.1H146.418C147.081 326.1 147.723 326.241 148.325 326.519C150.683 327.6 158.874 331.423 165.323 335.214C169.561 337.704 170.914 340.524 171.304 342.452C171.496 343.4 171.254 344.373 170.642 345.124C170.032 345.87 169.128 346.301 168.165 346.301ZM134.156 327.245C133.516 327.245 132.947 327.63 132.703 328.228C131.712 330.655 129.445 336.94 129.74 342.813C129.805 344.124 130.879 345.152 132.184 345.152H168.165C168.782 345.152 169.364 344.875 169.757 344.393C170.15 343.912 170.307 343.284 170.183 342.674C169.838 340.976 168.616 338.473 164.744 336.197C158.34 332.434 150.192 328.631 147.849 327.557C147.396 327.348 146.914 327.245 146.418 327.245H134.156Z" fill="#202124"/>
<path d="M149.24 337.974C149.132 337.974 149.021 337.944 148.925 337.878C148.661 337.704 148.588 337.349 148.764 337.084L153.657 329.674C153.831 329.41 154.186 329.337 154.45 329.513C154.715 329.687 154.788 330.042 154.612 330.307L149.719 337.717C149.608 337.883 149.424 337.974 149.24 337.974Z" fill="#202124"/>
<path d="M153.979 340.797C153.87 340.797 153.762 340.766 153.664 340.701C153.399 340.527 153.326 340.171 153.503 339.907L158.395 332.497C158.569 332.232 158.924 332.162 159.189 332.336C159.453 332.51 159.526 332.865 159.35 333.13L154.457 340.539C154.346 340.706 154.165 340.797 153.979 340.797Z" fill="#202124"/>
<path d="M71.5285 315.84L63.9351 306.116C63.396 305.426 62.5016 305.131 61.6652 305.373C58.9165 306.164 52.6912 308.274 48.2747 312.175C47.0679 313.241 46.9067 315.081 47.8993 316.354L70.1831 344.885C71.2085 346.198 73.1736 346.248 74.2418 344.97C75.5217 343.44 76.6781 340.759 76.0356 336.194C74.9977 328.805 72.9444 320.114 72.2793 317.39C72.1407 316.825 71.8862 316.296 71.5285 315.84Z" fill="white"/>
<path d="M72.2574 346.473C72.2397 346.473 72.2221 346.473 72.2045 346.473C71.2345 346.458 70.3326 346.006 69.733 345.238L47.4492 316.707C46.2651 315.192 46.4616 313.012 47.8951 311.747C52.4526 307.725 58.9324 305.565 61.5072 304.824C62.5704 304.519 63.7016 304.887 64.3869 305.766L71.9803 315.49C72.3884 316.014 72.6781 316.609 72.8343 317.257C73.4541 319.795 75.5527 328.656 76.6008 336.119C77.2886 341.019 75.9357 343.839 74.6785 345.341C74.0764 346.059 73.1946 346.473 72.2574 346.473ZM62.253 305.862C62.1094 305.862 61.9658 305.882 61.8247 305.923C59.3255 306.643 53.0371 308.735 48.6534 312.604C47.6734 313.471 47.5399 314.961 48.3511 315.999L70.6349 344.53C71.0204 345.024 71.5998 345.313 72.2221 345.323C72.8419 345.316 73.4087 345.071 73.8018 344.6C74.9103 343.274 76.0994 340.754 75.4696 336.273C74.4291 328.863 72.338 320.049 71.7233 317.524C71.6049 317.035 71.3882 316.586 71.0783 316.191L63.4849 306.467C63.1801 306.079 62.7241 305.862 62.253 305.862Z" fill="#202124"/>
<path d="M64.9384 325.294C64.6437 325.294 64.3917 325.067 64.369 324.767C64.3438 324.452 64.5781 324.175 64.8931 324.149L73.6831 323.439C73.9955 323.411 74.2752 323.648 74.3004 323.965C74.3256 324.281 74.0913 324.558 73.7764 324.583L64.9863 325.294C64.9687 325.294 64.9535 325.294 64.9384 325.294Z" fill="#202124"/>
<path d="M65.6787 330.798C65.3839 330.798 65.132 330.571 65.1093 330.271C65.0841 329.956 65.3184 329.679 65.6333 329.654L74.4234 328.943C74.7408 328.913 75.0154 329.152 75.0406 329.467C75.0658 329.782 74.8315 330.06 74.5166 330.085L65.7265 330.795C65.7089 330.795 65.6938 330.798 65.6787 330.798Z" fill="#202124"/>
<path d="M118.243 189.731C118.243 189.731 114.026 203.455 112.627 223.497C111.229 243.539 81.3947 266.189 71.0527 296.678L82.0372 309.98C82.0372 309.98 115.207 284.341 121.571 273.743C128.293 262.55 136.385 239.304 136.385 239.304L130.6 196.37L129.588 196.13C126.955 195.508 124.478 194.517 122.062 193.343C120.452 192.559 119.12 191.296 118.243 189.731Z" fill="white"/>
<path d="M121.55 193.355C121.55 193.355 118.637 211.502 127.861 226.321C137.084 241.141 136.245 256.384 134.57 264.006C132.892 271.628 128.7 294.492 134.57 319.051C134.57 319.051 140.44 321.591 147.358 319.051C147.358 319.051 165.178 278.402 166.016 253.42C166.855 228.439 156.372 194.565 156.372 194.565C156.372 194.565 135.376 200.851 121.55 193.355Z" fill="white"/>
<path d="M233.836 113.596C233.254 113.213 232.866 112.598 232.758 111.905C232.4 109.568 231.914 104.104 234.481 100.921C237.809 96.7924 243.513 95.1592 244.178 96.3135C244.843 97.4653 236.383 104.858 239.235 109.177C239.235 109.177 241.848 110.002 245.561 106.914C246.08 106.481 246.891 106.771 247.012 107.441C247.179 108.363 247.095 109.772 246.083 111.675C244.788 114.105 242.424 115.781 240.923 116.658C240.124 117.124 239.137 117.096 238.366 116.587L233.836 113.596Z" fill="white"/>
<path d="M239.696 117.563C239.122 117.563 238.55 117.396 238.046 117.064L233.518 114.075C232.806 113.603 232.322 112.845 232.191 111.993C231.838 109.682 231.309 103.94 234.032 100.563C236.915 96.9864 241.422 95.2474 243.43 95.391C244.185 95.449 244.523 95.7691 244.672 96.0287C245.082 96.7369 244.39 97.677 243.014 99.5471C241.079 102.178 238.177 106.12 239.595 108.673C240.22 108.774 242.316 108.867 245.191 106.476C245.596 106.14 246.135 106.047 246.634 106.229C247.131 106.41 247.481 106.826 247.574 107.34C247.743 108.28 247.708 109.84 246.584 111.945C245.261 114.425 242.931 116.146 241.208 117.152C240.739 117.427 240.217 117.563 239.696 117.563ZM234.151 113.119L238.678 116.108C239.27 116.499 240.018 116.519 240.633 116.164C241.938 115.4 244.316 113.767 245.576 111.408C246.544 109.593 246.584 108.305 246.448 107.544C246.42 107.385 246.297 107.325 246.244 107.307C246.191 107.287 246.052 107.254 245.926 107.358C242.019 110.609 239.182 109.765 239.064 109.729C238.938 109.689 238.829 109.608 238.759 109.498C236.637 106.287 239.923 101.823 242.094 98.8691C242.712 98.0324 243.465 97.0091 243.616 96.5807C243.518 96.5504 243.296 96.505 242.87 96.5428C241.029 96.7041 237.345 98.2819 234.927 101.284C232.491 104.308 232.994 109.661 233.324 111.821C233.408 112.351 233.707 112.824 234.151 113.119Z" fill="#202124"/>
<path d="M101.171 178.538C101.171 178.538 86.7074 177.2 83.0896 179.269C79.4743 181.338 79.8345 183.894 81.4016 184.99C82.6184 185.84 90.2294 185.298 93.5726 185.013C93.8372 184.99 93.9329 185.358 93.6885 185.464C91.7663 186.306 88.6624 187.896 88.9975 189.252C89.4787 191.2 101.655 187.304 101.655 187.304L101.171 178.538Z" fill="white"/>
<path d="M90.5109 190.354C89.8584 190.354 89.3344 190.273 88.9993 190.089C88.629 189.882 88.4904 189.595 88.44 189.391C88.3292 188.947 88.0193 187.697 91.7933 185.731C85.5982 186.197 81.998 186.107 81.0734 185.462C80.1664 184.826 79.6525 183.818 79.7003 182.762C79.7658 181.298 80.8693 179.881 82.8067 178.772C86.5379 176.638 100.626 177.913 101.226 177.968C101.508 177.994 101.73 178.223 101.745 178.508L102.226 187.274C102.241 187.533 102.077 187.77 101.828 187.851C100.336 188.325 93.8038 190.354 90.5109 190.354ZM93.5946 184.438C93.9625 184.438 94.285 184.685 94.3756 185.048C94.4739 185.434 94.2824 185.83 93.9171 185.988C90.2514 187.596 89.4578 188.736 89.5511 189.114C90.1507 189.668 95.3758 188.675 101.054 186.891L100.624 179.065C96.308 178.699 86.0995 178.205 83.3711 179.766C81.7864 180.673 80.8895 181.754 80.8416 182.813C80.8114 183.483 81.1339 184.106 81.7284 184.521C82.2726 184.902 85.6889 185.109 93.5216 184.441C93.5468 184.438 93.572 184.438 93.5946 184.438Z" fill="#202124"/>
<path d="M241.378 118.115C240.436 120.274 235.36 131.273 225.696 140.865C214.961 151.521 198.604 160.418 175.938 153.579L175.696 153.506L175.493 153.658L175.492 153.659C175.491 153.66 175.49 153.661 175.489 153.661C175.487 153.663 175.484 153.666 175.479 153.669C175.471 153.675 175.46 153.684 175.445 153.696C175.416 153.718 175.374 153.751 175.32 153.795C175.212 153.883 175.057 154.015 174.861 154.19C174.47 154.54 173.917 155.066 173.262 155.779C171.952 157.204 170.233 159.375 168.578 162.373C165.288 168.334 162.263 177.546 163.187 190.628C162.775 190.94 161.737 191.688 160.151 192.58C158.053 193.762 154.997 195.195 151.163 196.212C143.505 198.243 132.721 198.616 120.209 191.951L120.057 191.87L119.888 191.901C114.136 192.902 109.213 192.185 105.729 191.219C103.987 190.736 102.606 190.191 101.664 189.769C101.193 189.558 100.832 189.377 100.59 189.25C100.539 189.223 100.493 189.198 100.453 189.176L99.4619 176.96C126.189 170.969 136.47 153.009 139.314 146.7L139.318 146.692L139.322 146.682C139.58 146.04 139.841 145.402 140.108 144.772L140.114 144.759L140.119 144.745L140.118 144.744L140.217 144.517C142.435 139.326 144.99 134.548 147.951 130.824C150.914 127.099 154.253 124.466 158.031 123.491L158.414 123.393L158.406 122.997L158.21 113.357C159.852 113.71 164.6 114.841 169.485 117.056C172.5 118.422 175.545 120.19 177.943 122.422C180.339 124.652 182.069 127.323 182.512 130.505L182.558 130.835L182.879 130.92C193.299 133.671 204.528 132.788 214.563 127.915C220.493 125.036 226.555 118.618 232.341 112.225L241.378 118.115Z" fill="white" stroke="#202124"/>
<path d="M120.059 193.627C119.799 193.627 119.565 193.45 119.502 193.186C119.429 192.878 119.62 192.568 119.928 192.495C140.644 187.57 148.8 176.526 155.352 167.652C155.539 167.397 155.899 167.342 156.154 167.531C156.408 167.72 156.461 168.078 156.275 168.332C149.611 177.358 141.317 188.591 120.195 193.612C120.147 193.622 120.101 193.627 120.059 193.627Z" fill="#202124"/>
<path d="M167.848 138.835C167.84 138.835 167.833 138.835 167.825 138.835C167.51 138.822 167.263 138.555 167.276 138.24C167.752 126.429 162.247 118.117 162.192 118.034C162.015 117.772 162.083 117.417 162.345 117.238C162.607 117.061 162.965 117.129 163.142 117.391C163.378 117.742 168.913 126.082 168.422 138.285C168.407 138.593 168.153 138.835 167.848 138.835Z" fill="#202124"/>
<path d="M176.492 153.783C176.336 153.783 176.177 153.718 176.066 153.592C175.855 153.357 175.875 152.994 176.112 152.783C182.035 147.475 181.863 141.718 181.861 141.66C181.848 141.345 182.093 141.078 182.408 141.063C182.712 141.058 182.99 141.292 183.005 141.607C183.017 141.864 183.224 147.943 176.875 153.634C176.767 153.735 176.628 153.783 176.492 153.783Z" fill="#202124"/>
<path d="M186.71 101.707C186.71 101.707 193.094 100.394 192.465 104.482C191.835 108.57 191.608 118.203 188.34 119.385C185.073 120.567 181.485 115.927 179.238 117.986C176.988 120.045 175.429 123.135 174.32 126.951C173.642 127.193 172.221 127.589 170.551 127.18C167.18 126.359 165.87 123.019 165.744 122.679C166.576 121.804 167.442 120.738 168.309 119.498C169.659 117.568 171.143 114.957 171.682 112.23L186.71 101.707Z" fill="white"/>
<path d="M172.025 127.931C171.519 127.931 170.98 127.876 170.415 127.74C166.782 126.855 165.356 123.286 165.208 122.883C165.132 122.676 165.178 122.447 165.329 122.288C166.16 121.414 167.007 120.365 167.838 119.175C169.037 117.459 170.582 114.843 171.118 112.123C171.146 111.977 171.232 111.851 171.353 111.766L186.383 101.241C186.446 101.195 186.519 101.165 186.597 101.15C187.005 101.067 190.618 100.379 192.283 101.961C192.951 102.596 193.203 103.474 193.032 104.572C192.908 105.379 192.795 106.443 192.676 107.567C192.145 112.597 191.485 118.86 188.537 119.927C186.731 120.579 184.919 119.715 183.322 118.954C181.576 118.119 180.463 117.651 179.626 118.412C177.585 120.279 176.031 123.125 174.872 127.115C174.822 127.291 174.688 127.432 174.514 127.495C173.887 127.714 173.025 127.931 172.025 127.931ZM166.417 122.802C166.818 123.689 168.09 125.991 170.69 126.626C171.937 126.931 173.063 126.749 173.859 126.502C175.071 122.457 176.706 119.531 178.855 117.565C180.304 116.239 182.09 117.091 183.818 117.915C185.282 118.613 186.796 119.337 188.152 118.845C190.427 118.024 191.097 111.655 191.543 107.443C191.664 106.304 191.777 105.23 191.906 104.393C192.016 103.68 191.883 103.153 191.5 102.788C190.492 101.83 187.975 102.055 186.947 102.246L172.202 112.57C171.71 114.843 170.559 117.285 168.783 119.828C167.999 120.945 167.206 121.943 166.417 122.802Z" fill="#202124"/>
<path d="M186.211 112.428C186.145 112.428 186.08 112.418 186.014 112.393C183.782 111.582 183.021 108.794 183.258 106.39C183.47 104.237 184.405 102.725 185.634 102.536C188.438 102.107 189.388 106.4 189.426 106.581C189.491 106.891 189.295 107.194 188.985 107.262C188.677 107.327 188.37 107.131 188.304 106.821C188.297 106.785 187.526 103.421 185.808 103.668C185.155 103.768 184.548 104.986 184.399 106.5C184.213 108.398 184.76 110.715 186.407 111.314C186.705 111.423 186.858 111.75 186.75 112.048C186.664 112.285 186.445 112.428 186.211 112.428Z" fill="#202124"/>
<path d="M188.236 104.938C188.236 104.938 194.786 106.155 194.577 99.6628C194.368 93.1704 189.772 86.8014 177.473 89.3419C177.473 89.3419 174.679 80.8029 167.549 83.2729C160.422 85.7428 162.727 96.9635 169.854 97.9515C169.854 97.9515 163.893 108.923 171.469 112.93C173.384 113.943 175.616 114.122 177.73 113.658C179.967 113.169 182.867 112.053 184.038 109.525C184.038 109.525 183.018 104.3 185.008 103.242C187.006 102.186 188.236 104.938 188.236 104.938Z" fill="#202124"/>
<path d="M82.0365 310.554C81.8702 310.554 81.7065 310.484 81.5956 310.345L70.6112 297.042C70.4852 296.889 70.4474 296.682 70.5104 296.493C75.5945 281.504 85.4452 268.29 94.1345 256.633C103.373 244.238 111.352 233.534 112.055 223.458C113.44 203.58 117.653 189.7 117.693 189.564C117.761 189.345 117.953 189.188 118.179 189.163C118.409 189.138 118.628 189.251 118.741 189.453C119.57 190.927 120.807 192.097 122.314 192.83C122.598 192.969 122.717 193.312 122.578 193.596C122.44 193.881 122.097 194 121.812 193.861C120.48 193.213 119.336 192.268 118.449 191.096C117.421 194.849 114.342 207.128 113.196 223.541C112.47 233.955 104.398 244.783 95.0515 257.324C86.4706 268.834 76.7534 281.872 71.697 296.564L82.1247 309.191C86.0624 306.118 115.237 283.18 121.079 273.452C125.899 265.427 131.406 251.245 134.263 243.505C134.374 243.207 134.701 243.059 134.999 243.165C135.296 243.275 135.447 243.603 135.339 243.9C132.469 251.678 126.932 265.936 122.064 274.042C115.718 284.609 83.7471 309.387 82.3892 310.438C82.2834 310.514 82.1599 310.554 82.0365 310.554Z" fill="#202124"/>
<path d="M140.946 320.763C137.142 320.763 134.504 319.649 134.34 319.578C134.174 319.507 134.053 319.361 134.01 319.185C128.291 295.254 132.103 272.538 134.008 263.883C135.023 259.273 137.542 242.961 127.372 226.624C118.141 211.794 120.952 193.449 120.983 193.265C121.013 193.081 121.129 192.925 121.295 192.841C121.461 192.761 121.658 192.763 121.822 192.851C135.275 200.145 155.999 194.076 156.206 194.016C156.506 193.925 156.826 194.094 156.916 194.396C157.022 194.737 167.417 228.648 166.586 253.441C165.754 278.247 148.058 318.875 147.879 319.283C147.816 319.427 147.698 319.538 147.552 319.591C145.161 320.468 142.899 320.763 140.946 320.763ZM135.056 318.625C136.232 319.051 141.218 320.604 146.93 318.595C148.353 315.296 164.648 277.029 165.442 253.401C166.21 230.506 157.307 199.697 155.987 195.268C152.573 196.209 134.766 200.622 122.013 194.24C121.597 197.882 120.428 213.294 128.347 226.017C138.744 242.722 136.167 259.409 135.129 264.127C133.247 272.674 129.49 295.032 135.056 318.625Z" fill="#202124"/>
</svg>
