<svg width="782" height="402" viewBox="0 0 782 402" fill="none" xmlns="http://www.w3.org/2000/svg">
<path d="M952.783 35.8498C950.698 16.2473 934.16 1.37585 914.447 1.37585H180.483C165.093 1.37585 150.146 6.53302 138.03 16.0238L74.1178 66.0885H956L952.783 35.8498Z" fill="#00B9FE"/>
<path d="M956 89.4952H127.822C115.258 89.4952 102.984 85.7175 92.5945 78.6526L74.1178 66.0885H956V89.4952Z" fill="#00B9FE"/>
<path d="M74.1178 66.0885L138.03 16.0238C150.146 6.53302 165.093 1.37585 180.483 1.37585H914.447C934.16 1.37585 950.698 16.2473 952.783 35.8498L956 66.0885M74.1178 66.0885H956M74.1178 66.0885L92.5945 78.6526C102.984 85.7175 115.258 89.4952 127.822 89.4952H956V66.0885" stroke="white"/>
<rect width="637.489" height="168.666" transform="matrix(-1 0 0 1 956 89.4952)" fill="#202124" stroke="white"/>
<path d="M589.064 138.374C589.064 131.15 583.208 125.294 575.984 125.294H395.615C388.391 125.294 382.535 131.15 382.535 138.374V209.282C382.535 216.506 388.391 222.363 395.615 222.363H575.984C583.208 222.363 589.064 216.506 589.064 209.282V138.374Z" stroke="white"/>
<path d="M237.965 14.4562H195.645C186.241 14.4562 177.231 18.2284 170.632 24.9277L143.65 52.32H237.965V14.4562Z" fill="#202124"/>
<path d="M299.924 14.4562H237.965V52.32H299.924V14.4562Z" fill="#202124"/>
<path d="M237.965 14.4562H195.645C186.241 14.4562 177.231 18.2284 170.632 24.9277L143.65 52.32H237.965M237.965 14.4562V52.32M237.965 14.4562H299.924V52.32H237.965" stroke="white"/>
<path d="M318.511 89.4952H160.86C160.86 89.4952 127.388 138.334 97.5248 162.125C70.6406 183.542 34.8768 181.041 11.815 206.529C-13.1582 234.129 10.74 288.898 27.1526 319.017C34.4997 332.5 48.9051 340.085 64.26 340.085H318.512L318.511 89.4952Z" stroke="white"/>
<path d="M956 258.161H318.511V340.085H916.759C938.431 340.085 956 322.516 956 300.844V258.161Z" stroke="white"/>
<path d="M92.0163 340.085C92.0163 368.601 115.133 391.718 143.649 391.718C172.165 391.718 195.281 368.601 195.281 340.085C195.281 311.569 172.165 288.453 143.649 288.453C115.133 288.453 92.0163 311.569 92.0163 340.085Z" fill="#202124" stroke="white"/>
<path d="M637.257 340.085C637.257 368.601 660.373 391.717 688.889 391.717C717.405 391.717 740.521 368.601 740.521 340.085C740.521 311.569 717.405 288.452 688.889 288.452C660.373 288.452 637.257 311.569 637.257 340.085Z" fill="#202124" stroke="white"/>
<path d="M124.374 340.085C124.374 350.731 133.004 359.361 143.65 359.361C154.296 359.361 162.926 350.731 162.926 340.085C162.926 329.439 154.296 320.809 143.65 320.809C133.004 320.809 124.374 329.439 124.374 340.085Z" fill="#202124" stroke="white"/>
<path d="M669.612 340.085C669.612 350.731 678.242 359.361 688.888 359.361C699.534 359.361 708.164 350.731 708.164 340.085C708.164 329.439 699.534 320.809 688.888 320.809C678.242 320.809 669.612 329.439 669.612 340.085Z" fill="#202124" stroke="white"/>
<path d="M300.613 107.396C300.613 107.396 211.117 97.7562 168.778 117.033C114.041 141.956 58.9734 235.788 129.882 257.818C143.382 262.012 160.122 262.136 176.351 271.954C193.02 282.038 211.117 307.729 211.117 307.729L300.613 307.729V107.396Z" stroke="white"/>
<path d="M283.4 132.222C283.4 125.541 278.37 119.958 271.702 119.527C249.721 118.105 202.116 116.799 176.005 129.425C153.611 140.253 134.395 167.313 123.352 185.622C118.382 193.861 124.484 203.776 134.106 203.776H270.32C277.544 203.776 283.4 197.92 283.4 190.696V132.222Z" stroke="white"/>
<path d="M592.911 352.714L592.493 376.752H585.577L582.101 352.333L592.911 352.714Z" fill="#202124" stroke="white"/>
<path d="M587.098 371.744H587.099L590.63 372.074V372.073C590.922 372.102 591.184 372.267 591.334 372.518L591.335 372.519L593.037 375.356L593.592 376.279L593.939 375.261L594.712 372.995C596.865 375.697 598.827 379.694 600.48 383.836C602.271 388.322 603.682 392.922 604.577 396.105C605.141 398.11 603.842 400.158 601.788 400.511C594.689 401.732 588.599 401.474 584.881 401.075C582.977 400.869 581.594 399.158 581.783 397.251V397.25L584.091 373.78L584.674 375.28L585.321 376.949L585.632 375.186L586.104 372.505C586.189 372.028 586.621 371.699 587.098 371.744Z" fill="#202124" stroke="white"/>
<path d="M593.732 398.323C588.359 398.323 584.232 397.312 583.973 397.248C583.567 397.149 583.321 396.736 583.424 396.33C583.524 395.924 583.933 395.675 584.342 395.781C584.435 395.805 593.656 398.057 602.302 395.785C602.708 395.675 603.12 395.918 603.226 396.324C603.333 396.726 603.09 397.142 602.688 397.248C599.612 398.054 596.506 398.323 593.732 398.323Z" fill="#202124"/>
<path d="M596.896 388.373H588.489C588.07 388.373 587.734 388.033 587.734 387.617C587.734 387.198 588.074 386.862 588.489 386.862H596.896C597.315 386.862 597.651 387.202 597.651 387.617C597.654 388.033 597.315 388.373 596.896 388.373Z" fill="#202124"/>
<path d="M514.454 354.497L511.286 383.317L499.791 385.724L500.522 352.165L514.454 354.497Z" fill="#202124" stroke="white"/>
<path d="M491.66 380.002C493.48 379.104 495.463 378.694 497.449 378.809L503.012 379.128C503.334 379.147 503.655 379.455 503.655 379.916V382.758L504.323 382.52L513.925 379.099C515.908 382.244 516.586 387.117 516.74 391.348C516.819 393.519 516.761 395.49 516.682 396.919C516.642 397.633 516.597 398.21 516.562 398.608C516.556 398.683 516.549 398.752 516.543 398.813C499.29 400.321 487.673 400.343 480.365 399.985C476.682 399.805 474.094 399.529 472.431 399.299C471.599 399.184 470.999 399.08 470.608 399.006C470.537 398.992 470.473 398.978 470.416 398.967C470.425 397.224 471.207 395.424 472.548 393.62C473.983 391.69 476.023 389.805 478.308 388.053C482.874 384.55 488.339 381.636 491.659 380.003L491.66 380.002Z" fill="#202124" stroke="white"/>
<path d="M500.02 397.045C485.165 397.045 473.786 394.787 473.636 394.753C473.227 394.67 472.961 394.271 473.045 393.862C473.128 393.453 473.527 393.19 473.936 393.27C474.129 393.31 493.598 397.172 514.794 394.713C515.207 394.667 515.586 394.963 515.632 395.379C515.682 395.795 515.383 396.17 514.967 396.217C509.8 396.819 504.735 397.045 500.02 397.045Z" fill="#202124"/>
<path d="M488.167 389.517C487.931 389.517 487.702 389.407 487.552 389.201C487.309 388.862 487.386 388.389 487.725 388.146L497.325 381.237C497.664 380.991 498.136 381.071 498.379 381.41C498.622 381.749 498.545 382.222 498.206 382.465L488.606 389.374C488.473 389.47 488.317 389.517 488.167 389.517Z" fill="#202124"/>
<path d="M585.203 169.328V169.329C587.225 175.167 589.997 183.797 592.576 194.416C595.382 205.96 600.512 230.344 600.12 284.074C599.981 302.781 599.159 327.243 596.432 355.996C595.241 356.374 593.652 356.61 591.889 356.737C589.983 356.873 587.912 356.885 585.993 356.839C584.075 356.793 582.316 356.689 581.035 356.597C580.395 356.551 579.875 356.508 579.516 356.477C579.471 356.473 579.428 356.469 579.389 356.465C579.049 348.899 577.05 336.867 574.238 323.06C571.37 308.971 567.65 293 563.966 277.969C560.282 262.937 556.633 248.842 553.905 238.505C552.541 233.337 551.408 229.108 550.615 226.171C550.219 224.703 549.907 223.557 549.695 222.779C549.589 222.389 549.508 222.091 549.453 221.891C549.426 221.791 549.405 221.715 549.391 221.664C549.384 221.639 549.379 221.619 549.375 221.607C549.373 221.601 549.372 221.596 549.371 221.593C549.371 221.591 549.37 221.59 549.37 221.589C549.369 221.589 549.347 221.594 548.888 221.72L549.37 221.588L549.03 220.352L548.443 221.491C545.753 226.714 542.413 237.859 538.921 251.572C535.423 265.307 531.757 281.679 528.426 297.402C525.094 313.125 522.096 328.203 519.93 339.35C518.847 344.923 517.971 349.514 517.367 352.711C517.065 354.31 516.831 355.561 516.672 356.411C516.603 356.783 516.547 357.077 516.507 357.292L497.514 356.8C495.66 316.005 499.165 267.361 503.145 228.85C505.142 209.524 507.258 192.755 508.875 180.818C509.683 174.849 510.367 170.089 510.849 166.821C511.089 165.187 511.279 163.926 511.409 163.073C511.472 162.664 511.519 162.348 511.553 162.131L578.577 150.422L585.203 169.328Z" fill="#202124" stroke="white"/>
<path d="M547.837 220.093C547.501 220.093 547.192 219.867 547.106 219.528L544.159 208.134L537.02 206.657C536.611 206.57 536.348 206.171 536.431 205.762C536.515 205.353 536.917 205.093 537.326 205.173L544.924 206.743C545.207 206.803 545.43 207.016 545.503 207.296L548.569 219.145C548.672 219.551 548.429 219.964 548.027 220.067C547.964 220.087 547.9 220.093 547.837 220.093Z" fill="#202124"/>
<path d="M512.921 61.3262C524.559 60.0151 549.134 57.6824 566.397 59.1182C571.618 59.5521 576.571 61.5915 580.571 64.9736H580.572C586.705 70.1531 596.407 79.2306 604.617 90.8447C612.725 102.314 619.348 116.219 619.683 131.261L592.964 127.383L592.204 127.272L592.411 128.013V128.014C592.411 128.015 592.412 128.017 592.412 128.019C592.413 128.023 592.416 128.029 592.418 128.037C592.423 128.054 592.429 128.079 592.438 128.111C592.457 128.177 592.483 128.274 592.519 128.4C592.589 128.654 592.692 129.028 592.823 129.506C593.085 130.461 593.459 131.831 593.905 133.493C594.798 136.818 595.983 141.307 597.146 145.97C598.309 150.633 599.45 155.465 600.259 159.475C600.663 161.48 600.983 163.273 601.182 164.734C601.382 166.211 601.452 167.302 601.378 167.926C601.237 169.109 600.193 170.633 598.218 172.153C596.267 173.655 593.49 175.09 590.064 176.119C583.217 178.176 573.819 178.602 563.355 174.767C552.719 170.866 539.769 169.159 528.248 169.277C522.485 169.337 517.067 169.853 512.464 170.785C508.309 171.626 504.785 172.814 502.268 174.334L501.337 132.594L501.326 132.105H459.991C460.096 131.783 460.239 131.345 460.423 130.802C460.849 129.542 461.487 127.716 462.337 125.457C464.037 120.939 466.58 114.691 469.954 107.77C476.708 93.9141 486.764 77.4175 500.001 66.6934C503.696 63.6981 508.188 61.8581 512.921 61.3262Z" fill="#202124" stroke="white"/>
<path d="M498.958 129.683C498.858 129.866 498.727 130.107 498.563 130.395C498.154 131.116 497.552 132.143 496.783 133.362C495.245 135.801 493.045 139.002 490.39 142.06C487.731 145.122 484.636 148.019 481.314 149.874C477.998 151.725 474.493 152.52 470.97 151.455C463.781 149.282 461.01 144.606 460.011 140.475C459.508 138.397 459.453 136.449 459.525 135.019C459.561 134.305 459.629 133.723 459.688 133.321C459.706 133.192 459.725 133.082 459.74 132.992L489.28 124.071L498.958 129.683Z" fill="#202124" stroke="white"/>
<path d="M467.854 99.8453H540.463C541.971 99.8453 543.299 100.81 543.78 102.219L543.865 102.506L558.523 161.631C559.07 163.844 557.396 165.981 555.121 165.981H482.513C481.004 165.981 479.677 165.016 479.195 163.607L479.11 163.319L464.452 104.195C463.905 101.985 465.576 99.8453 467.854 99.8453Z" fill="#FE9300" stroke="white"/>
<path d="M489.278 125.96L488.951 126.338C489.278 125.96 489.279 125.96 489.279 125.961L489.282 125.964C489.284 125.966 489.288 125.968 489.291 125.971C489.297 125.976 489.306 125.984 489.316 125.994C489.338 126.014 489.367 126.041 489.403 126.077C489.476 126.149 489.577 126.252 489.694 126.387C489.929 126.655 490.234 127.05 490.522 127.557C491.099 128.575 491.612 130.06 491.337 131.902C490.788 135.583 487.15 140.425 475.488 145.765C474.219 146.346 473.11 146.539 472.152 146.365C471.183 146.189 470.431 145.649 469.864 144.894C468.759 143.422 468.32 141.079 468.186 138.719C468.05 136.331 468.222 133.813 468.426 131.9C468.528 130.942 468.638 130.132 468.724 129.56C468.766 129.275 468.802 129.048 468.828 128.892C468.841 128.815 468.851 128.755 468.858 128.715L468.868 128.656C468.868 128.655 468.869 128.653 468.869 128.652V128.651L469.199 126.815L469.832 128.57L471.775 133.965L488.735 125.887L489.031 125.746L489.278 125.96Z" fill="#202124" stroke="white"/>
<path d="M560.347 90.8485C562.904 90.3902 565.518 91.2288 567.333 93.0868L567.334 93.0878L572.359 98.2401C572.368 98.2451 572.378 98.2507 572.389 98.2567C572.451 98.2916 572.544 98.3431 572.664 98.411C572.905 98.5468 573.259 98.7465 573.712 99.0028C574.618 99.5155 575.92 100.255 577.503 101.159C580.669 102.968 584.962 105.44 589.465 108.093C593.967 110.745 598.683 113.579 602.696 116.11C606.699 118.635 610.032 120.879 611.747 122.345C613.408 123.764 615.157 125.142 616.652 126.569C618.155 128.004 619.457 129.537 620.235 131.317C621.821 134.943 621.156 139.377 616.363 145.733C615.054 147.469 613.202 148.104 611.051 147.919C608.929 147.736 606.495 146.757 603.906 145.266C598.722 142.277 592.737 137.119 587.08 131.599C581.416 126.071 576.051 120.153 572.104 115.619C570.131 113.351 568.511 111.428 567.384 110.072C566.82 109.394 566.38 108.857 566.08 108.49C565.962 108.345 565.866 108.227 565.793 108.137C565.765 108.139 565.736 108.143 565.705 108.145C565.469 108.161 565.134 108.17 564.726 108.146C563.909 108.099 562.792 107.918 561.585 107.389C559.206 106.344 556.563 103.976 555.145 98.8153C555.091 98.8163 555.031 98.8184 554.968 98.8192C554.604 98.824 554.084 98.8256 553.46 98.8153C552.212 98.7947 550.539 98.724 548.846 98.5223C547.16 98.3215 545.421 97.9873 544.061 97.4257C542.731 96.8769 541.581 96.0322 541.429 94.7118L541.375 94.245L541.838 94.162L560.347 90.8485Z" fill="#202124" stroke="white"/>
<path d="M525.999 39.5119C525.407 40.5332 526.627 42.5193 526.64 42.5159C526.66 42.5093 526.055 36.7042 522.819 35.2372C520.944 34.3856 519.973 35.8027 517.18 35.4201C514.213 35.011 510.945 32.812 509.721 29.5952C508.241 25.7096 510.373 22.0104 511.719 19.675C513.056 17.353 514.759 14.7682 517.712 13.6505C521.562 12.1934 523.172 14.4289 527.578 13.0583C531.163 11.9439 530.9 10.214 534.089 9.30583C536.749 8.55067 544.411 8.97981 546.127 13.0583C547.214 15.6431 544.87 17.22 546.037 21.0523C546.739 23.351 547.843 23.6338 548.651 25.4102C550.649 29.818 548.145 37.5592 543.373 40.1507C536.902 43.6703 527.398 37.0901 525.999 39.5119Z" fill="#202124" stroke="white"/>
<path d="M543.129 35.0784L546.41 53.2922H546.411C546.788 55.3828 548.382 57.0452 550.453 57.5071L558.348 59.2698L559.399 59.5051L558.541 60.1565L536.524 76.8665L536.222 77.0959L535.919 76.8655L516.326 61.9387L515.509 61.3167L516.503 61.0569L522.86 59.4006L523.056 59.3459C525.052 58.7427 526.513 57.0149 526.767 54.9309V54.9299L528.273 42.5686L528.305 42.3118L528.533 42.1887L542.399 34.7268L543.006 34.4006L543.129 35.0784Z" fill="#202124" stroke="white"/>
<path d="M541.062 37.6788C541.062 37.6788 545.94 35.8391 544.108 31.8072C542.276 27.7753 539.293 30.7526 539.293 30.7526C539.293 30.7526 536.523 20.8192 530.697 24.7347C524.874 28.6535 519.357 30.0773 519.357 30.0773C519.357 30.0773 521.409 40.0773 525.094 46.7273C527.315 50.7392 530.132 53.5336 533.447 52.1863C542.528 48.4971 541.062 37.6788 541.062 37.6788Z" fill="#202124" stroke="white"/>
</svg>
