<svg width="60" height="60" viewBox="0 0 60 60" fill="none" xmlns="http://www.w3.org/2000/svg">
<path d="M50.023 5V12.8305C50.023 13.5651 49.1045 13.8977 48.6342 13.3333C44.0565 8.21875 37.4043 5 30 5C16.1929 5 5 16.1929 5 30" stroke="#202124" stroke-width="1.5" stroke-linecap="round" stroke-linejoin="round"/>
<path d="M9.977 55V47.1695C9.977 46.4349 10.8955 46.1023 11.3658 46.6667C15.9435 51.7812 22.5957 55 30 55C43.8071 55 55 43.8071 55 30" stroke="#202124" stroke-width="1.5" stroke-linecap="round" stroke-linejoin="round"/>
<path d="M21.9478 43.4208C21.9478 41.6929 22.5356 39.945 23.9715 38.9837C25.6934 37.8307 27.7678 37.1577 30.0003 37.1577C32.2328 37.1577 34.3071 37.8307 36.0291 38.9837C37.465 39.945 38.0528 41.6929 38.0528 43.4208" stroke="#202124" stroke-width="1.5" stroke-linecap="round" stroke-linejoin="round"/>
<path d="M30 32.6846C32.4707 32.6846 34.4736 30.6816 34.4736 28.2109C34.4736 25.7402 32.4707 23.7373 30 23.7373C27.5293 23.7373 25.5264 25.7402 25.5264 28.2109C25.5264 30.6816 27.5293 32.6846 30 32.6846Z" fill="#FE9300" stroke="#202124" stroke-width="1.5" stroke-linecap="round" stroke-linejoin="round"/>
<path d="M39.8423 28.2104C41.8288 28.2104 43.6744 28.8849 45.206 30.04C46.5042 31.0192 47.0001 32.6753 47.0001 34.3014V34.4735" stroke="#202124" stroke-width="1.5" stroke-linecap="round" stroke-linejoin="round"/>
<path d="M39.8416 23.7369C41.8182 23.7369 43.4205 22.1346 43.4205 20.158C43.4205 18.1814 41.8182 16.5791 39.8416 16.5791C37.865 16.5791 36.2627 18.1814 36.2627 20.158C36.2627 22.1346 37.865 23.7369 39.8416 23.7369Z" fill="#FE9300" stroke="#202124" stroke-width="1.5" stroke-linecap="round" stroke-linejoin="round"/>
<path d="M20.1578 28.2104C18.1713 28.2104 16.3256 28.8849 14.794 30.04C13.4958 31.0192 13 32.6753 13 34.3014V34.4735" stroke="#202124" stroke-width="1.5" stroke-linecap="round" stroke-linejoin="round"/>
<path d="M20.158 23.7369C22.1346 23.7369 23.7369 22.1346 23.7369 20.158C23.7369 18.1814 22.1346 16.5791 20.158 16.5791C18.1814 16.5791 16.5791 18.1814 16.5791 20.158C16.5791 22.1346 18.1814 23.7369 20.158 23.7369Z" fill="#FE9300" stroke="#202124" stroke-width="1.5" stroke-linecap="round" stroke-linejoin="round"/>
</svg>
