<svg width="100" height="100" viewBox="0 0 100 100" fill="none" xmlns="http://www.w3.org/2000/svg">
<path d="M16.6667 21C16.6667 20.4477 17.1144 20 17.6667 20H79C79.5523 20 80 20.4477 80 21V81.6667C80 89.0305 74.0305 95 66.6667 95H30C22.6362 95 16.6667 89.0305 16.6667 81.6667V21Z" stroke="#202124" stroke-width="2" stroke-linecap="round" stroke-linejoin="round"/>
<path d="M11.6667 16.6666C11.6667 18.5075 13.1591 19.9999 15 19.9999H81.6667C83.5076 19.9999 85 18.5075 85 16.6666C85 14.8256 83.5076 13.3333 81.6667 13.3333H15C13.1591 13.3333 11.6667 14.8256 11.6667 16.6666Z" stroke="#202124" stroke-width="2" stroke-linecap="round" stroke-linejoin="round"/>
<path d="M16.6667 45.9861V21C16.6667 20.4477 17.1144 20 17.6667 20H52.3334C52.8856 20 53.3334 20.4477 53.3334 21V51.3333C53.3334 53.3584 51.6917 55 49.6667 55C47.6416 55 46 53.3584 46 51.3333V37.2778C46 35.2527 44.3584 33.6111 42.3334 33.6111C40.3083 33.6111 38.6667 35.2527 38.6667 37.2778V38.2083C38.6667 40.2334 37.0251 41.875 35 41.875C32.975 41.875 31.3334 40.2334 31.3334 38.2083V29.5C31.3334 27.475 29.6917 25.8333 27.6667 25.8333C25.6416 25.8333 24 27.475 24 29.5V45.9861C24 48.0112 22.3584 49.6528 20.3334 49.6528C18.3083 49.6528 16.6667 48.0112 16.6667 45.9861Z" fill="#FE9300" stroke="#202124" stroke-width="2" stroke-linecap="round" stroke-linejoin="round"/>
</svg>
