<svg width="24" height="24" viewBox="0 0 24 24" fill="none" xmlns="http://www.w3.org/2000/svg">
<path d="M7 7.5V7C7 4.23858 9.23858 2 12 2C14.7614 2 17 4.23858 17 7V7.5" stroke="#202124"/>
<path d="M19.659 16.8786L19.6591 16.8781H4.34082C4.75094 19.3264 4.956 20.5505 5.76806 21.2752C6.58011 22 7.74661 22 10.0796 22H13.9204C16.2534 22 17.4199 22 18.2319 21.2752C19.0439 20.5506 19.2489 19.3266 19.659 16.8786Z" fill="white" stroke="#202124"/>
<path d="M3.17786 9.93557L4.34085 16.8781H19.6591L20.8221 9.93557L20.8221 9.93555C21.0113 8.80629 21.1059 8.24167 20.8146 7.87083C20.5234 7.5 19.9853 7.5 18.9092 7.5H5.09079C4.01468 7.5 3.47662 7.5 3.18537 7.87083C2.89411 8.24167 2.98869 8.8063 3.17786 9.93557Z" fill="#FE9300" stroke="#202124"/>
</svg>
