<svg width="24" height="24" viewBox="0 0 24 24" fill="none" xmlns="http://www.w3.org/2000/svg">
<path d="M18 8C18 4.6863 15.3138 2 12 2C8.6862 2 6 4.6863 6 8C6 11.3138 8.6862 14 12 14C15.3138 14 18 11.3138 18 8Z" fill="#FE9300" stroke="#202124" stroke-linecap="round"/>
<path d="M19.322 23C20.3329 23 21.1709 22.1863 20.97 21.212C20.8534 20.6463 20.6815 20.0916 20.4558 19.5558C19.9958 18.4639 19.3217 17.4718 18.4718 16.636C17.6219 15.8003 16.6129 15.1374 15.5025 14.6851C14.3921 14.2328 13.2019 14 12 14C10.7981 14 9.60793 14.2328 8.4975 14.6851C7.38706 15.1374 6.3781 15.8003 5.52822 16.636C4.67833 17.4718 4.00416 18.4639 3.54421 19.5558C3.31851 20.0916 3.14656 20.6463 3.02996 21.212C2.82911 22.1863 3.66706 23 4.67801 23L19.322 23Z" fill="white" stroke="#202124" stroke-linecap="round"/>
</svg>
