<svg width="60" height="60" viewBox="0 0 60 60" fill="none" xmlns="http://www.w3.org/2000/svg">
<path d="M40 17.5C40 23.0228 35.523 27.5 30 27.5C24.477 27.5 20 23.0228 20 17.5C20 11.9772 24.477 7.5 30 7.5C35.523 7.5 40 11.9772 40 17.5Z" fill="#FE9300" stroke="#202124" stroke-width="1.5" stroke-linecap="round" stroke-linejoin="round"/>
<path d="M35.7144 35H24.2857C16.3959 35 10 41.396 10 49.2857C10 52.4417 12.5584 55 15.7143 55H44.2857C47.4417 55 50 52.4417 50 49.2857C50 41.396 43.604 35 35.7144 35Z" stroke="#202124" stroke-width="1.5" stroke-linecap="round" stroke-linejoin="round"/>
<path d="M49.9343 2.5537C49.9488 2.4821 50.0513 2.4821 50.0658 2.5537C50.8256 6.2702 53.7298 9.1746 57.4463 9.9342C57.5181 9.94885 57.5181 10.0511 57.4463 10.0658C53.7298 10.8254 50.8256 13.7298 50.0658 17.4463C50.0513 17.5179 49.9488 17.5179 49.9343 17.4463C49.1746 13.7298 46.2703 10.8254 42.5538 10.0658C42.4821 10.0511 42.4821 9.94885 42.5538 9.9342C46.2703 9.1746 49.1746 6.2702 49.9343 2.5537Z" fill="#FE9300" stroke="#202124" stroke-width="1.5" stroke-linecap="round" stroke-linejoin="round"/>
</svg>
