<svg width="60" height="60" viewBox="0 0 60 60" fill="none" xmlns="http://www.w3.org/2000/svg">
<path d="M37.5 20C37.5 13.0964 31.9035 7.5 25 7.5C18.0964 7.5 12.5 13.0964 12.5 20C12.5 26.9035 18.0964 32.5 25 32.5C31.9035 32.5 37.5 26.9035 37.5 20Z" stroke="#202124" stroke-width="1.5" stroke-linecap="round" stroke-linejoin="round"/>
<path d="M7.5 50C7.5 40.335 15.335 32.5 25 32.5C28.1875 32.5 31.176 33.3522 33.75 34.8412" stroke="#202124" stroke-width="1.5" stroke-linecap="round" stroke-linejoin="round"/>
<path d="M45.2618 36.2638L46.8016 39.3688C47.0116 39.801 47.5716 40.2155 48.0438 40.295L50.8348 40.7625C52.6196 41.0625 53.0396 42.368 51.7536 43.656L49.5838 45.8435C49.2163 46.214 49.0151 46.9288 49.1288 47.4403L49.7501 50.1485C50.2401 52.292 49.1113 53.1213 47.2303 52.001L44.6143 50.4395C44.1418 50.1573 43.3633 50.1573 42.8821 50.4395L40.2661 52.001C38.3938 53.1213 37.2563 52.2833 37.7463 50.1485L38.3676 47.4403C38.4813 46.9288 38.2801 46.214 37.9126 45.8435L35.7428 43.656C34.4653 42.368 34.8766 41.0625 36.6616 40.7625L39.4523 40.295C39.9161 40.2155 40.4761 39.801 40.6861 39.3688L42.2258 36.2638C43.0658 34.5787 44.4306 34.5787 45.2618 36.2638Z" fill="#FE9300" stroke="#202124" stroke-width="1.5" stroke-linecap="round" stroke-linejoin="round"/>
</svg>
