<svg width="462" height="191" viewBox="0 0 462 191" fill="none" xmlns="http://www.w3.org/2000/svg">
<path d="M459.325 17.6625C458.321 8.18792 450.358 1 440.865 1H87.4288C80.0176 1 72.8201 3.49265 66.9858 8.07989L36.2091 32.2781H460.875L459.325 17.6625Z" fill="white"/>
<path d="M460.875 43.5914H62.0699C56.0198 43.5914 50.1095 41.7655 45.1064 38.3508L36.2091 32.2781H460.875V43.5914Z" fill="white"/>
<path d="M36.2091 32.2781L66.9858 8.07989C72.8201 3.49265 80.0176 1 87.4288 1H440.865C450.358 1 458.321 8.18792 459.325 17.6625L460.875 32.2781M36.2091 32.2781H460.875M36.2091 32.2781L45.1065 38.3508C50.1095 41.7655 56.0198 43.5914 62.0699 43.5914H460.875V32.2781" stroke="#202124"/>
<rect width="306.979" height="81.5226" transform="matrix(-1 0 0 1 460.875 43.5908)" stroke="#202124"/>
<path d="M284.18 67.2162C284.18 63.7246 281.36 60.894 277.881 60.894H191.025C187.547 60.894 184.727 63.7246 184.727 67.2162V101.489C184.727 104.981 187.547 107.811 191.025 107.811H277.881C281.36 107.811 284.18 104.981 284.18 101.489V67.2162Z" stroke="#202124"/>
<path d="M431.702 67.2162C431.702 63.7246 428.882 60.894 425.404 60.894H384.628C381.149 60.894 378.329 63.7246 378.329 67.2162V101.489C378.329 104.981 381.149 107.811 384.628 107.811H425.404C428.882 107.811 431.702 104.981 431.702 101.489V67.2162Z" stroke="#202124"/>
<path d="M115.109 7.32178H94.7297C90.2014 7.32178 85.8624 9.14501 82.6847 12.383L69.6916 25.6228H115.109V7.32178Z" fill="white"/>
<path d="M144.945 7.32178H115.109V25.6228H144.945V7.32178Z" fill="white"/>
<path d="M115.109 7.32178H94.7297C90.2014 7.32178 85.8624 9.14501 82.6847 12.383L69.6916 25.6228H115.109M115.109 7.32178V25.6228M115.109 7.32178H144.945V25.6228H115.109" stroke="#202124"/>
<path d="M153.896 43.5908H77.9797C77.9797 43.5908 61.8614 67.1965 47.4809 78.6954C34.5349 89.0472 17.313 87.8384 6.20777 100.158C-5.81793 113.498 5.69011 139.969 13.5935 154.527C17.1315 161.044 24.0683 164.71 31.4624 164.71H153.896L153.896 43.5908Z" stroke="#202124"/>
<path d="M460.875 125.114H153.895V164.711H441.978C452.414 164.711 460.875 156.219 460.875 145.744V125.114Z" stroke="#202124"/>
<path d="M44.8297 164.711C44.8297 178.494 55.9613 189.667 69.693 189.667C83.4246 189.667 94.5563 178.494 94.5563 164.711C94.5563 150.928 83.4246 139.755 69.693 139.755C55.9613 139.755 44.8297 150.928 44.8297 164.711Z" fill="#FE9300" stroke="#202124"/>
<path d="M307.384 164.711C307.384 178.494 318.515 189.667 332.247 189.667C345.979 189.667 357.11 178.494 357.11 164.711C357.11 150.928 345.979 139.755 332.247 139.755C318.515 139.755 307.384 150.928 307.384 164.711Z" fill="#FE9300" stroke="#202124"/>
<path d="M60.4102 164.71C60.4102 169.855 64.5661 174.027 69.6926 174.027C74.819 174.027 78.9749 169.855 78.9749 164.71C78.9749 159.564 74.819 155.393 69.6926 155.393C64.5661 155.393 60.4102 159.564 60.4102 164.71Z" stroke="#202124"/>
<path d="M322.966 164.71C322.966 169.855 327.122 174.027 332.248 174.027C337.375 174.027 341.531 169.855 341.531 164.71C341.531 159.564 337.375 155.393 332.248 155.393C327.122 155.393 322.966 159.564 322.966 164.71Z" stroke="#202124"/>
<path d="M145.276 52.2435C145.276 52.2435 102.179 47.5844 81.7913 56.9017C55.4326 68.9477 28.9153 114.3 63.0609 124.948C69.5618 126.975 77.6226 127.035 85.4379 131.781C93.4645 136.655 102.179 149.072 102.179 149.072L145.276 149.072V52.2435Z" stroke="#202124"/>
<path d="M136.988 64.2432C136.988 61.0138 134.566 58.3157 131.355 58.1072C120.77 57.42 97.8463 56.7886 85.2726 62.8911C74.4891 68.1247 65.2356 81.2039 59.9177 90.0534C57.5246 94.0357 60.4629 98.828 65.0963 98.828H130.69C134.168 98.828 136.988 95.9975 136.988 92.5059V64.2432Z" stroke="#202124"/>
</svg>
